<svg width="21.902113mm" height="21.902113mm" viewBox="-0.951057 -0.951057 21.902113 21.902113">
<style><![CDATA[
rect.boundingBox {
    stroke: blue;
    stroke-width: .05;
    fill-opacity: 0;
    stroke-opacity: .5;
}
path.thinRhombus {
    fill: #333333;
    stroke: #000000;
    stroke-width: .01;
}
path.thickRhombus {
    fill: #aaaaaa;
    stroke: #000000;
    stroke-width: .01;
}
]]></style>
<path class="thinRhombus" id="Rhombus (0, -1) (2, -1) [-1, -1, -1, -1, 0]" d="M -0.690983,0.951057 0.118034,1.538842 1.118034,1.538842 0.309017,0.951057 z"/>
<path class="thickRhombus" id="Rhombus (0, -1) (1, -1) [-1, -1, -2, -1, 0]" d="M 0.118034,1.538842 -0.190983,2.489898 0.809017,2.489898 1.118034,1.538842 z"/>
<path class="thickRhombus" id="Rhombus (0, -1) (4, 2) [-1, -3, -3, 0, 2]" d="M 1.118034,6.518638 0.809017,5.567582 -0.190983,5.567582 0.118034,6.518638 z"/>
<path class="thickRhombus" id="Rhombus (0, -1) (1, -3) [-1, -3, -3, 0, 2]" d="M 0.118034,6.518638 -0.190983,7.469695 0.809017,7.469695 1.118034,6.518638 z"/>
<path class="thinRhombus" id="Rhombus (0, -1) (2, -3) [-1, -4, -3, 1, 3]" d="M -0.690983,9.008537 0.118034,9.596322 1.118034,9.596322 0.309017,9.008537 z"/>
<path class="thickRhombus" id="Rhombus (0, -1) (1, -4) [-1, -4, -4, 1, 3]" d="M 0.118034,9.596322 -0.190983,10.547378 0.809017,10.547378 1.118034,9.596322 z"/>
<path class="thickRhombus" id="Rhombus (0, -1) (4, 4) [-1, -5, -4, 1, 4]" d="M 1.118034,11.498435 0.809017,10.547378 -0.190983,10.547378 0.118034,11.498435 z"/>
<path class="thinRhombus" id="Rhombus (0, -1) (3, 2) [-1, -5, -4, 2, 4]" d="M 0.309017,12.086220 1.118034,11.498435 0.118034,11.498435 -0.690983,12.086220 z"/>
<path class="thinRhombus" id="Rhombus (0, -1) (2, -4) [-1, -6, -4, 2, 5]" d="M -0.690983,13.988333 0.118034,14.576118 1.118034,14.576118 0.309017,13.988333 z"/>
<path class="thickRhombus" id="Rhombus (0, -1) (1, -6) [-1, -6, -5, 2, 5]" d="M 0.118034,14.576118 -0.190983,15.527175 0.809017,15.527175 1.118034,14.576118 z"/>
<path class="thickRhombus" id="Rhombus (0, -1) (4, 7) [-1, -8, -6, 3, 7]" d="M 1.118034,19.555915 0.809017,18.604858 -0.190983,18.604858 0.118034,19.555915 z"/>
<path class="thinRhombus" id="Rhombus (0, -1) (3, 4) [-1, -8, -6, 4, 7]" d="M 0.309017,20.143700 1.118034,19.555915 0.118034,19.555915 -0.690983,20.143700 z"/>
<path class="thickRhombus" id="Rhombus (0, 0) (1, 0) [0, 0, -2, -2, 0]" d="M 2.236068,0.000000 1.927051,0.951057 2.927051,0.951057 3.236068,0.000000 z"/>
<path class="thinRhombus" id="Rhombus (0, 0) (2, -2) [0, -1, -2, -2, 0]" d="M 1.927051,0.951057 2.736068,1.538842 3.736068,1.538842 2.927051,0.951057 z"/>
<path class="thinRhombus" id="Rhombus (0, 0) (3, -1) [0, -1, -3, -1, 0]" d="M 2.927051,2.126627 3.736068,1.538842 2.736068,1.538842 1.927051,2.126627 z"/>
<path class="thickRhombus" id="Rhombus (0, 0) (4, 1) [0, -1, -3, -1, 1]" d="M 3.236068,3.077684 2.927051,2.126627 1.927051,2.126627 2.236068,3.077684 z"/>
<path class="thickRhombus" id="Rhombus (0, 0) (1, -1) [0, -1, -3, -1, 1]" d="M 2.236068,3.077684 1.927051,4.028740 2.927051,4.028740 3.236068,3.077684 z"/>
<path class="thickRhombus" id="Rhombus (0, 0) (4, 2) [0, -2, -3, -1, 2]" d="M 3.236068,4.979797 2.927051,4.028740 1.927051,4.028740 2.236068,4.979797 z"/>
<path class="thickRhombus" id="Rhombus (0, 0) (1, -2) [0, -2, -3, -1, 2]" d="M 2.236068,4.979797 1.927051,5.930853 2.927051,5.930853 3.236068,4.979797 z"/>
<path class="thinRhombus" id="Rhombus (0, 0) (2, -3) [0, -3, -3, -1, 2]" d="M 1.927051,5.930853 2.736068,6.518638 3.736068,6.518638 2.927051,5.930853 z"/>
<path class="thinRhombus" id="Rhombus (0, 0) (3, 0) [0, -3, -4, 0, 2]" d="M 2.927051,7.106424 3.736068,6.518638 2.736068,6.518638 1.927051,7.106424 z"/>
<path class="thickRhombus" id="Rhombus (0, 0) (4, 3) [0, -3, -4, 0, 3]" d="M 3.236068,8.057480 2.927051,7.106424 1.927051,7.106424 2.236068,8.057480 z"/>
<path class="thickRhombus" id="Rhombus (0, 0) (1, -3) [0, -3, -4, 0, 3]" d="M 2.236068,8.057480 1.927051,9.008537 2.927051,9.008537 3.236068,8.057480 z"/>
<path class="thickRhombus" id="Rhombus (0, 0) (4, 4) [0, -4, -4, 0, 4]" d="M 3.236068,9.959593 2.927051,9.008537 1.927051,9.008537 2.236068,9.959593 z"/>
<path class="thinRhombus" id="Rhombus (0, 0) (2, -4) [0, -4, -4, 0, 4]" d="M 2.236068,9.959593 3.045085,10.547378 4.045085,10.547378 3.236068,9.959593 z"/>
<path class="thickRhombus" id="Rhombus (0, 0) (1, -4) [0, -4, -5, 0, 4]" d="M 3.045085,10.547378 2.736068,11.498435 3.736068,11.498435 4.045085,10.547378 z"/>
<path class="thinRhombus" id="Rhombus (0, 0) (3, 1) [0, -5, -5, 1, 4]" d="M 2.927051,12.086220 3.736068,11.498435 2.736068,11.498435 1.927051,12.086220 z"/>
<path class="thickRhombus" id="Rhombus (0, 0) (4, 5) [0, -5, -5, 1, 5]" d="M 3.236068,13.037277 2.927051,12.086220 1.927051,12.086220 2.236068,13.037277 z"/>
<path class="thickRhombus" id="Rhombus (0, 0) (1, -5) [0, -5, -5, 1, 5]" d="M 2.236068,13.037277 1.927051,13.988333 2.927051,13.988333 3.236068,13.037277 z"/>
<path class="thinRhombus" id="Rhombus (0, 0) (2, -5) [0, -6, -5, 1, 5]" d="M 1.927051,13.988333 2.736068,14.576118 3.736068,14.576118 2.927051,13.988333 z"/>
<path class="thinRhombus" id="Rhombus (0, 0) (3, 2) [0, -6, -6, 2, 5]" d="M 2.927051,15.163904 3.736068,14.576118 2.736068,14.576118 1.927051,15.163904 z"/>
<path class="thickRhombus" id="Rhombus (0, 0) (4, 6) [0, -6, -6, 2, 6]" d="M 3.236068,16.114960 2.927051,15.163904 1.927051,15.163904 2.236068,16.114960 z"/>
<path class="thickRhombus" id="Rhombus (0, 0) (1, -6) [0, -6, -6, 2, 6]" d="M 2.236068,16.114960 1.927051,17.066017 2.927051,17.066017 3.236068,16.114960 z"/>
<path class="thickRhombus" id="Rhombus (0, 0) (4, 7) [0, -7, -6, 2, 7]" d="M 3.236068,18.017073 2.927051,17.066017 1.927051,17.066017 2.236068,18.017073 z"/>
<path class="thickRhombus" id="Rhombus (0, 0) (1, -7) [0, -7, -6, 2, 7]" d="M 2.236068,18.017073 1.927051,18.968130 2.927051,18.968130 3.236068,18.017073 z"/>
<path class="thinRhombus" id="Rhombus (0, 0) (2, -6) [0, -8, -6, 2, 7]" d="M 1.927051,18.968130 2.736068,19.555915 3.736068,19.555915 2.927051,18.968130 z"/>
<path class="thinRhombus" id="Rhombus (0, 0) (3, 3) [0, -8, -7, 3, 7]" d="M 2.927051,20.143700 3.736068,19.555915 2.736068,19.555915 1.927051,20.143700 z"/>
<path class="thickRhombus" id="Rhombus (0, 1) (1, 0) [1, 0, -3, -3, 0]" d="M 4.854102,0.000000 4.545085,0.951057 5.545085,0.951057 5.854102,0.000000 z"/>
<path class="thinRhombus" id="Rhombus (0, 1) (3, -2) [1, -1, -3, -2, 0]" d="M 4.736068,1.538842 5.545085,0.951057 4.545085,0.951057 3.736068,1.538842 z"/>
<path class="thickRhombus" id="Rhombus (0, 1) (4, 1) [1, -1, -3, -2, 1]" d="M 5.045085,2.489898 4.736068,1.538842 3.736068,1.538842 4.045085,2.489898 z"/>
<path class="thinRhombus" id="Rhombus (0, 1) (2, -3) [1, -1, -3, -2, 1]" d="M 4.045085,2.489898 4.854102,3.077684 5.854102,3.077684 5.045085,2.489898 z"/>
<path class="thickRhombus" id="Rhombus (0, 1) (1, -1) [1, -1, -4, -2, 1]" d="M 4.854102,3.077684 4.545085,4.028740 5.545085,4.028740 5.854102,3.077684 z"/>
<path class="thickRhombus" id="Rhombus (0, 1) (4, 2) [1, -2, -4, -2, 2]" d="M 5.854102,4.979797 5.545085,4.028740 4.545085,4.028740 4.854102,4.979797 z"/>
<path class="thinRhombus" id="Rhombus (0, 1) (3, -1) [1, -2, -4, -1, 2]" d="M 5.045085,5.567582 5.854102,4.979797 4.854102,4.979797 4.045085,5.567582 z"/>
<path class="thickRhombus" id="Rhombus (0, 1) (1, -2) [1, -2, -4, -1, 2]" d="M 4.045085,5.567582 3.736068,6.518638 4.736068,6.518638 5.045085,5.567582 z"/>
<path class="thickRhombus" id="Rhombus (0, 1) (4, 3) [1, -3, -4, -1, 3]" d="M 5.045085,7.469695 4.736068,6.518638 3.736068,6.518638 4.045085,7.469695 z"/>
<path class="thinRhombus" id="Rhombus (0, 1) (2, -4) [1, -3, -4, -1, 3]" d="M 4.045085,7.469695 4.854102,8.057480 5.854102,8.057480 5.045085,7.469695 z"/>
<path class="thickRhombus" id="Rhombus (0, 1) (1, -3) [1, -3, -5, -1, 3]" d="M 4.854102,8.057480 4.545085,9.008537 5.545085,9.008537 5.854102,8.057480 z"/>
<path class="thickRhombus" id="Rhombus (0, 1) (4, 4) [1, -4, -5, -1, 4]" d="M 5.854102,9.959593 5.545085,9.008537 4.545085,9.008537 4.854102,9.959593 z"/>
<path class="thinRhombus" id="Rhombus (0, 1) (3, 0) [1, -4, -5, 0, 4]" d="M 5.045085,10.547378 5.854102,9.959593 4.854102,9.959593 4.045085,10.547378 z"/>
<path class="thinRhombus" id="Rhombus (0, 1) (2, -5) [1, -4, -5, 0, 4]" d="M 4.045085,10.547378 4.854102,11.135164 5.854102,11.135164 5.045085,10.547378 z"/>
<path class="thickRhombus" id="Rhombus (0, 1) (1, -4) [1, -4, -6, 0, 4]" d="M 4.854102,11.135164 4.545085,12.086220 5.545085,12.086220 5.854102,11.135164 z"/>
<path class="thickRhombus" id="Rhombus (0, 1) (4, 5) [1, -5, -6, 0, 5]" d="M 5.854102,13.037277 5.545085,12.086220 4.545085,12.086220 4.854102,13.037277 z"/>
<path class="thickRhombus" id="Rhombus (0, 1) (1, -5) [1, -5, -6, 0, 5]" d="M 4.854102,13.037277 4.545085,13.988333 5.545085,13.988333 5.854102,13.037277 z"/>
<path class="thinRhombus" id="Rhombus (0, 1) (3, 1) [1, -6, -6, 1, 5]" d="M 4.736068,14.576118 5.545085,13.988333 4.545085,13.988333 3.736068,14.576118 z"/>
<path class="thickRhombus" id="Rhombus (0, 1) (4, 6) [1, -6, -6, 1, 6]" d="M 5.045085,15.527175 4.736068,14.576118 3.736068,14.576118 4.045085,15.527175 z"/>
<path class="thinRhombus" id="Rhombus (0, 1) (2, -6) [1, -6, -6, 1, 6]" d="M 4.045085,15.527175 4.854102,16.114960 5.854102,16.114960 5.045085,15.527175 z"/>
<path class="thickRhombus" id="Rhombus (0, 1) (1, -6) [1, -6, -7, 1, 6]" d="M 4.854102,16.114960 4.545085,17.066017 5.545085,17.066017 5.854102,16.114960 z"/>
<path class="thickRhombus" id="Rhombus (0, 1) (4, 7) [1, -7, -7, 1, 7]" d="M 5.854102,18.017073 5.545085,17.066017 4.545085,17.066017 4.854102,18.017073 z"/>
<path class="thinRhombus" id="Rhombus (0, 1) (3, 2) [1, -7, -7, 2, 7]" d="M 5.045085,18.604858 5.854102,18.017073 4.854102,18.017073 4.045085,18.604858 z"/>
<path class="thickRhombus" id="Rhombus (0, 1) (1, -7) [1, -7, -7, 2, 7]" d="M 4.045085,18.604858 3.736068,19.555915 4.736068,19.555915 5.045085,18.604858 z"/>
<path class="thinRhombus" id="Rhombus (0, 1) (2, -7) [1, -8, -7, 2, 7]" d="M 3.736068,19.555915 4.545085,20.143700 5.545085,20.143700 4.736068,19.555915 z"/>
<path class="thinRhombus" id="Rhombus (0, 2) (3, -3) [2, 0, -4, -3, 0]" d="M 7.663119,0.587785 8.472136,0.000000 7.472136,0.000000 6.663119,0.587785 z"/>
<path class="thickRhombus" id="Rhombus (0, 2) (4, 1) [2, 0, -4, -3, 1]" d="M 7.972136,1.538842 7.663119,0.587785 6.663119,0.587785 6.972136,1.538842 z"/>
<path class="thickRhombus" id="Rhombus (0, 2) (1, 0) [2, 0, -4, -3, 1]" d="M 6.972136,1.538842 6.663119,2.489898 7.663119,2.489898 7.972136,1.538842 z"/>
<path class="thickRhombus" id="Rhombus (0, 2) (4, 2) [2, -1, -4, -3, 2]" d="M 7.972136,3.440955 7.663119,2.489898 6.663119,2.489898 6.972136,3.440955 z"/>
<path class="thinRhombus" id="Rhombus (0, 2) (2, -4) [2, -1, -4, -3, 2]" d="M 6.972136,3.440955 7.781153,4.028740 8.781153,4.028740 7.972136,3.440955 z"/>
<path class="thickRhombus" id="Rhombus (0, 2) (1, -1) [2, -1, -5, -3, 2]" d="M 7.781153,4.028740 7.472136,4.979797 8.472136,4.979797 8.781153,4.028740 z"/>
<path class="thinRhombus" id="Rhombus (0, 2) (3, -2) [2, -2, -5, -2, 2]" d="M 7.663119,5.567582 8.472136,4.979797 7.472136,4.979797 6.663119,5.567582 z"/>
<path class="thickRhombus" id="Rhombus (0, 2) (4, 3) [2, -2, -5, -2, 3]" d="M 7.972136,6.518638 7.663119,5.567582 6.663119,5.567582 6.972136,6.518638 z"/>
<path class="thickRhombus" id="Rhombus (0, 2) (1, -2) [2, -2, -5, -2, 3]" d="M 6.972136,6.518638 6.663119,7.469695 7.663119,7.469695 7.972136,6.518638 z"/>
<path class="thinRhombus" id="Rhombus (0, 2) (2, -5) [2, -3, -5, -2, 3]" d="M 6.663119,7.469695 7.472136,8.057480 8.472136,8.057480 7.663119,7.469695 z"/>
<path class="thickRhombus" id="Rhombus (0, 2) (4, 4) [2, -3, -6, -2, 4]" d="M 8.781153,9.008537 8.472136,8.057480 7.472136,8.057480 7.781153,9.008537 z"/>
<path class="thinRhombus" id="Rhombus (0, 2) (3, -1) [2, -3, -6, -1, 4]" d="M 7.972136,9.596322 8.781153,9.008537 7.781153,9.008537 6.972136,9.596322 z"/>
<path class="thickRhombus" id="Rhombus (0, 2) (1, -3) [2, -3, -6, -1, 4]" d="M 6.972136,9.596322 6.663119,10.547378 7.663119,10.547378 7.972136,9.596322 z"/>
<path class="thickRhombus" id="Rhombus (0, 2) (4, 5) [2, -4, -6, -1, 5]" d="M 7.972136,11.498435 7.663119,10.547378 6.663119,10.547378 6.972136,11.498435 z"/>
<path class="thinRhombus" id="Rhombus (0, 2) (2, -6) [2, -4, -6, -1, 5]" d="M 6.972136,11.498435 7.781153,12.086220 8.781153,12.086220 7.972136,11.498435 z"/>
<path class="thickRhombus" id="Rhombus (0, 2) (1, -4) [2, -4, -7, -1, 5]" d="M 7.781153,12.086220 7.472136,13.037277 8.472136,13.037277 8.781153,12.086220 z"/>
<path class="thinRhombus" id="Rhombus (0, 2) (3, 0) [2, -5, -7, 0, 5]" d="M 7.663119,13.625062 8.472136,13.037277 7.472136,13.037277 6.663119,13.625062 z"/>
<path class="thickRhombus" id="Rhombus (0, 2) (4, 6) [2, -5, -7, 0, 6]" d="M 7.972136,14.576118 7.663119,13.625062 6.663119,13.625062 6.972136,14.576118 z"/>
<path class="thickRhombus" id="Rhombus (0, 2) (1, -5) [2, -5, -7, 0, 6]" d="M 6.972136,14.576118 6.663119,15.527175 7.663119,15.527175 7.972136,14.576118 z"/>
<path class="thinRhombus" id="Rhombus (0, 2) (2, -7) [2, -6, -7, 0, 6]" d="M 6.663119,15.527175 7.472136,16.114960 8.472136,16.114960 7.663119,15.527175 z"/>
<path class="thickRhombus" id="Rhombus (0, 2) (4, 7) [2, -6, -8, 0, 7]" d="M 8.781153,17.066017 8.472136,16.114960 7.472136,16.114960 7.781153,17.066017 z"/>
<path class="thickRhombus" id="Rhombus (0, 2) (1, -6) [2, -6, -8, 0, 7]" d="M 7.781153,17.066017 7.472136,18.017073 8.472136,18.017073 8.781153,17.066017 z"/>
<path class="thinRhombus" id="Rhombus (0, 2) (3, 1) [2, -7, -8, 1, 7]" d="M 7.663119,18.604858 8.472136,18.017073 7.472136,18.017073 6.663119,18.604858 z"/>
<path class="thickRhombus" id="Rhombus (0, 2) (4, 8) [2, -7, -8, 1, 8]" d="M 7.972136,19.555915 7.663119,18.604858 6.663119,18.604858 6.972136,19.555915 z"/>
<path class="thickRhombus" id="Rhombus (0, 3) (4, 1) [3, 0, -4, -4, 1]" d="M 9.781153,0.951057 9.472136,0.000000 8.472136,0.000000 8.781153,0.951057 z"/>
<path class="thinRhombus" id="Rhombus (0, 3) (2, -4) [3, 0, -4, -4, 1]" d="M 8.781153,0.951057 9.590170,1.538842 10.590170,1.538842 9.781153,0.951057 z"/>
<path class="thickRhombus" id="Rhombus (0, 3) (1, 0) [3, 0, -5, -4, 1]" d="M 9.590170,1.538842 9.281153,2.489898 10.281153,2.489898 10.590170,1.538842 z"/>
<path class="thickRhombus" id="Rhombus (0, 3) (4, 2) [3, -1, -5, -4, 2]" d="M 10.590170,3.440955 10.281153,2.489898 9.281153,2.489898 9.590170,3.440955 z"/>
<path class="thinRhombus" id="Rhombus (0, 3) (3, -3) [3, -1, -5, -3, 2]" d="M 9.781153,4.028740 10.590170,3.440955 9.590170,3.440955 8.781153,4.028740 z"/>
<path class="thinRhombus" id="Rhombus (0, 3) (2, -5) [3, -1, -5, -3, 2]" d="M 8.781153,4.028740 9.590170,4.616525 10.590170,4.616525 9.781153,4.028740 z"/>
<path class="thickRhombus" id="Rhombus (0, 3) (1, -1) [3, -1, -6, -3, 2]" d="M 9.590170,4.616525 9.281153,5.567582 10.281153,5.567582 10.590170,4.616525 z"/>
<path class="thickRhombus" id="Rhombus (0, 3) (4, 3) [3, -2, -6, -3, 3]" d="M 10.590170,6.518638 10.281153,5.567582 9.281153,5.567582 9.590170,6.518638 z"/>
<path class="thickRhombus" id="Rhombus (0, 3) (1, -2) [3, -2, -6, -3, 3]" d="M 9.590170,6.518638 9.281153,7.469695 10.281153,7.469695 10.590170,6.518638 z"/>
<path class="thickRhombus" id="Rhombus (0, 3) (4, 4) [3, -3, -6, -3, 4]" d="M 10.590170,8.420751 10.281153,7.469695 9.281153,7.469695 9.590170,8.420751 z"/>
<path class="thinRhombus" id="Rhombus (0, 3) (3, -2) [3, -3, -6, -2, 4]" d="M 9.781153,9.008537 10.590170,8.420751 9.590170,8.420751 8.781153,9.008537 z"/>
<path class="thinRhombus" id="Rhombus (0, 3) (2, -6) [3, -3, -6, -2, 4]" d="M 8.781153,9.008537 9.590170,9.596322 10.590170,9.596322 9.781153,9.008537 z"/>
<path class="thickRhombus" id="Rhombus (0, 3) (1, -3) [3, -3, -7, -2, 4]" d="M 9.590170,9.596322 9.281153,10.547378 10.281153,10.547378 10.590170,9.596322 z"/>
<path class="thickRhombus" id="Rhombus (0, 3) (4, 5) [3, -4, -7, -2, 5]" d="M 10.590170,11.498435 10.281153,10.547378 9.281153,10.547378 9.590170,11.498435 z"/>
<path class="thinRhombus" id="Rhombus (0, 3) (3, -1) [3, -4, -7, -1, 5]" d="M 9.781153,12.086220 10.590170,11.498435 9.590170,11.498435 8.781153,12.086220 z"/>
<path class="thinRhombus" id="Rhombus (0, 3) (2, -7) [3, -4, -7, -1, 5]" d="M 8.781153,12.086220 9.590170,12.674005 10.590170,12.674005 9.781153,12.086220 z"/>
<path class="thickRhombus" id="Rhombus (0, 3) (1, -4) [3, -4, -8, -1, 5]" d="M 9.590170,12.674005 9.281153,13.625062 10.281153,13.625062 10.590170,12.674005 z"/>
<path class="thickRhombus" id="Rhombus (0, 3) (4, 6) [3, -5, -8, -1, 6]" d="M 10.590170,14.576118 10.281153,13.625062 9.281153,13.625062 9.590170,14.576118 z"/>
<path class="thickRhombus" id="Rhombus (0, 3) (1, -5) [3, -5, -8, -1, 6]" d="M 9.590170,14.576118 9.281153,15.527175 10.281153,15.527175 10.590170,14.576118 z"/>
<path class="thickRhombus" id="Rhombus (0, 3) (4, 7) [3, -6, -8, -1, 7]" d="M 10.590170,16.478231 10.281153,15.527175 9.281153,15.527175 9.590170,16.478231 z"/>
<path class="thinRhombus" id="Rhombus (0, 3) (3, 0) [3, -6, -8, 0, 7]" d="M 9.781153,17.066017 10.590170,16.478231 9.590170,16.478231 8.781153,17.066017 z"/>
<path class="thinRhombus" id="Rhombus (0, 3) (2, -8) [3, -6, -8, 0, 7]" d="M 8.781153,17.066017 9.590170,17.653802 10.590170,17.653802 9.781153,17.066017 z"/>
<path class="thickRhombus" id="Rhombus (0, 3) (1, -6) [3, -6, -9, 0, 7]" d="M 9.590170,17.653802 9.281153,18.604858 10.281153,18.604858 10.590170,17.653802 z"/>
<path class="thickRhombus" id="Rhombus (0, 3) (4, 8) [3, -7, -9, 0, 8]" d="M 10.590170,19.555915 10.281153,18.604858 9.281153,18.604858 9.590170,19.555915 z"/>
<path class="thickRhombus" id="Rhombus (0, 4) (1, 1) [4, 1, -5, -5, 1]" d="M 11.708204,0.000000 11.399187,0.951057 12.399187,0.951057 12.708204,0.000000 z"/>
<path class="thinRhombus" id="Rhombus (0, 4) (2, -5) [4, 0, -5, -5, 1]" d="M 11.399187,0.951057 12.208204,1.538842 13.208204,1.538842 12.399187,0.951057 z"/>
<path class="thickRhombus" id="Rhombus (0, 4) (4, 2) [4, 0, -6, -5, 2]" d="M 13.517221,2.489898 13.208204,1.538842 12.208204,1.538842 12.517221,2.489898 z"/>
<path class="thickRhombus" id="Rhombus (0, 4) (1, 0) [4, 0, -6, -5, 2]" d="M 12.517221,2.489898 12.208204,3.440955 13.208204,3.440955 13.517221,2.489898 z"/>
<path class="thinRhombus" id="Rhombus (0, 4) (3, -4) [4, -1, -6, -4, 2]" d="M 12.399187,4.028740 13.208204,3.440955 12.208204,3.440955 11.399187,4.028740 z"/>
<path class="thickRhombus" id="Rhombus (0, 4) (4, 3) [4, -1, -6, -4, 3]" d="M 12.708204,4.979797 12.399187,4.028740 11.399187,4.028740 11.708204,4.979797 z"/>
<path class="thinRhombus" id="Rhombus (0, 4) (2, -6) [4, -1, -6, -4, 3]" d="M 11.708204,4.979797 12.517221,5.567582 13.517221,5.567582 12.708204,4.979797 z"/>
<path class="thickRhombus" id="Rhombus (0, 4) (1, -1) [4, -1, -7, -4, 3]" d="M 12.517221,5.567582 12.208204,6.518638 13.208204,6.518638 13.517221,5.567582 z"/>
<path class="thickRhombus" id="Rhombus (0, 4) (4, 4) [4, -2, -7, -4, 4]" d="M 13.517221,7.469695 13.208204,6.518638 12.208204,6.518638 12.517221,7.469695 z"/>
<path class="thinRhombus" id="Rhombus (0, 4) (3, -3) [4, -2, -7, -3, 4]" d="M 12.708204,8.057480 13.517221,7.469695 12.517221,7.469695 11.708204,8.057480 z"/>
<path class="thickRhombus" id="Rhombus (0, 4) (1, -2) [4, -2, -7, -3, 4]" d="M 11.708204,8.057480 11.399187,9.008537 12.399187,9.008537 12.708204,8.057480 z"/>
<path class="thinRhombus" id="Rhombus (0, 4) (2, -7) [4, -3, -7, -3, 4]" d="M 11.399187,9.008537 12.208204,9.596322 13.208204,9.596322 12.399187,9.008537 z"/>
<path class="thickRhombus" id="Rhombus (0, 4) (4, 5) [4, -3, -8, -3, 5]" d="M 13.517221,10.547378 13.208204,9.596322 12.208204,9.596322 12.517221,10.547378 z"/>
<path class="thickRhombus" id="Rhombus (0, 4) (1, -3) [4, -3, -8, -3, 5]" d="M 12.517221,10.547378 12.208204,11.498435 13.208204,11.498435 13.517221,10.547378 z"/>
<path class="thinRhombus" id="Rhombus (0, 4) (3, -2) [4, -4, -8, -2, 5]" d="M 12.399187,12.086220 13.208204,11.498435 12.208204,11.498435 11.399187,12.086220 z"/>
<path class="thickRhombus" id="Rhombus (0, 4) (4, 6) [4, -4, -8, -2, 6]" d="M 12.708204,13.037277 12.399187,12.086220 11.399187,12.086220 11.708204,13.037277 z"/>
<path class="thinRhombus" id="Rhombus (0, 4) (2, -8) [4, -4, -8, -2, 6]" d="M 11.708204,13.037277 12.517221,13.625062 13.517221,13.625062 12.708204,13.037277 z"/>
<path class="thickRhombus" id="Rhombus (0, 4) (1, -4) [4, -4, -9, -2, 6]" d="M 12.517221,13.625062 12.208204,14.576118 13.208204,14.576118 13.517221,13.625062 z"/>
<path class="thickRhombus" id="Rhombus (0, 4) (4, 7) [4, -5, -9, -2, 7]" d="M 13.517221,15.527175 13.208204,14.576118 12.208204,14.576118 12.517221,15.527175 z"/>
<path class="thinRhombus" id="Rhombus (0, 4) (3, -1) [4, -5, -9, -1, 7]" d="M 12.708204,16.114960 13.517221,15.527175 12.517221,15.527175 11.708204,16.114960 z"/>
<path class="thickRhombus" id="Rhombus (0, 4) (1, -5) [4, -5, -9, -1, 7]" d="M 11.708204,16.114960 11.399187,17.066017 12.399187,17.066017 12.708204,16.114960 z"/>
<path class="thickRhombus" id="Rhombus (0, 4) (4, 8) [4, -6, -9, -1, 8]" d="M 12.708204,18.017073 12.399187,17.066017 11.399187,17.066017 11.708204,18.017073 z"/>
<path class="thinRhombus" id="Rhombus (0, 4) (2, -9) [4, -6, -9, -1, 8]" d="M 11.708204,18.017073 12.517221,18.604858 13.517221,18.604858 12.708204,18.017073 z"/>
<path class="thickRhombus" id="Rhombus (0, 4) (1, -6) [4, -6, -10, -1, 8]" d="M 12.517221,18.604858 12.208204,19.555915 13.208204,19.555915 13.517221,18.604858 z"/>
<path class="thickRhombus" id="Rhombus (0, 5) (4, 2) [5, 1, -6, -6, 2]" d="M 15.635255,0.951057 15.326238,0.000000 14.326238,0.000000 14.635255,0.951057 z"/>
<path class="thickRhombus" id="Rhombus (0, 5) (1, 1) [5, 1, -6, -6, 2]" d="M 14.635255,0.951057 14.326238,1.902113 15.326238,1.902113 15.635255,0.951057 z"/>
<path class="thinRhombus" id="Rhombus (0, 5) (2, -6) [5, 0, -6, -6, 2]" d="M 14.326238,1.902113 15.135255,2.489898 16.135255,2.489898 15.326238,1.902113 z"/>
<path class="thinRhombus" id="Rhombus (0, 5) (3, -5) [5, 0, -7, -5, 2]" d="M 15.326238,3.077684 16.135255,2.489898 15.135255,2.489898 14.326238,3.077684 z"/>
<path class="thickRhombus" id="Rhombus (0, 5) (4, 3) [5, 0, -7, -5, 3]" d="M 15.635255,4.028740 15.326238,3.077684 14.326238,3.077684 14.635255,4.028740 z"/>
<path class="thickRhombus" id="Rhombus (0, 5) (1, 0) [5, 0, -7, -5, 3]" d="M 14.635255,4.028740 14.326238,4.979797 15.326238,4.979797 15.635255,4.028740 z"/>
<path class="thinRhombus" id="Rhombus (0, 5) (2, -7) [5, -1, -7, -5, 3]" d="M 14.326238,4.979797 15.135255,5.567582 16.135255,5.567582 15.326238,4.979797 z"/>
<path class="thickRhombus" id="Rhombus (0, 5) (4, 4) [5, -1, -8, -5, 4]" d="M 16.444272,6.518638 16.135255,5.567582 15.135255,5.567582 15.444272,6.518638 z"/>
<path class="thickRhombus" id="Rhombus (0, 5) (1, -1) [5, -1, -8, -5, 4]" d="M 15.444272,6.518638 15.135255,7.469695 16.135255,7.469695 16.444272,6.518638 z"/>
<path class="thinRhombus" id="Rhombus (0, 5) (3, -4) [5, -2, -8, -4, 4]" d="M 15.326238,8.057480 16.135255,7.469695 15.135255,7.469695 14.326238,8.057480 z"/>
<path class="thickRhombus" id="Rhombus (0, 5) (4, 5) [5, -2, -8, -4, 5]" d="M 15.635255,9.008537 15.326238,8.057480 14.326238,8.057480 14.635255,9.008537 z"/>
<path class="thickRhombus" id="Rhombus (0, 5) (1, -2) [5, -2, -8, -4, 5]" d="M 14.635255,9.008537 14.326238,9.959593 15.326238,9.959593 15.635255,9.008537 z"/>
<path class="thinRhombus" id="Rhombus (0, 5) (2, -8) [5, -3, -8, -4, 5]" d="M 14.326238,9.959593 15.135255,10.547378 16.135255,10.547378 15.326238,9.959593 z"/>
<path class="thinRhombus" id="Rhombus (0, 5) (3, -3) [5, -3, -9, -3, 5]" d="M 15.326238,11.135164 16.135255,10.547378 15.135255,10.547378 14.326238,11.135164 z"/>
<path class="thickRhombus" id="Rhombus (0, 5) (4, 6) [5, -3, -9, -3, 6]" d="M 15.635255,12.086220 15.326238,11.135164 14.326238,11.135164 14.635255,12.086220 z"/>
<path class="thickRhombus" id="Rhombus (0, 5) (1, -3) [5, -3, -9, -3, 6]" d="M 14.635255,12.086220 14.326238,13.037277 15.326238,13.037277 15.635255,12.086220 z"/>
<path class="thickRhombus" id="Rhombus (0, 5) (4, 7) [5, -4, -9, -3, 7]" d="M 15.635255,13.988333 15.326238,13.037277 14.326238,13.037277 14.635255,13.988333 z"/>
<path class="thinRhombus" id="Rhombus (0, 5) (2, -9) [5, -4, -9, -3, 7]" d="M 14.635255,13.988333 15.444272,14.576118 16.444272,14.576118 15.635255,13.988333 z"/>
<path class="thickRhombus" id="Rhombus (0, 5) (1, -4) [5, -4, -10, -3, 7]" d="M 15.444272,14.576118 15.135255,15.527175 16.135255,15.527175 16.444272,14.576118 z"/>
<path class="thinRhombus" id="Rhombus (0, 5) (3, -2) [5, -5, -10, -2, 7]" d="M 15.326238,16.114960 16.135255,15.527175 15.135255,15.527175 14.326238,16.114960 z"/>
<path class="thickRhombus" id="Rhombus (0, 5) (4, 8) [5, -5, -10, -2, 8]" d="M 15.635255,17.066017 15.326238,16.114960 14.326238,16.114960 14.635255,17.066017 z"/>
<path class="thickRhombus" id="Rhombus (0, 5) (1, -5) [5, -5, -10, -2, 8]" d="M 14.635255,17.066017 14.326238,18.017073 15.326238,18.017073 15.635255,17.066017 z"/>
<path class="thinRhombus" id="Rhombus (0, 5) (2, -10) [5, -6, -10, -2, 8]" d="M 14.326238,18.017073 15.135255,18.604858 16.135255,18.604858 15.326238,18.017073 z"/>
<path class="thickRhombus" id="Rhombus (0, 5) (4, 9) [5, -6, -11, -2, 9]" d="M 16.444272,19.555915 16.135255,18.604858 15.135255,18.604858 15.444272,19.555915 z"/>
<path class="thinRhombus" id="Rhombus (0, 5) (3, -1) [5, -6, -11, -1, 9]" d="M 15.635255,20.143700 16.444272,19.555915 15.444272,19.555915 14.635255,20.143700 z"/>
<path class="thickRhombus" id="Rhombus (0, 6) (4, 2) [6, 1, -7, -7, 2]" d="M 18.253289,0.951057 17.944272,0.000000 16.944272,0.000000 17.253289,0.951057 z"/>
<path class="thinRhombus" id="Rhombus (0, 6) (3, -6) [6, 1, -7, -6, 2]" d="M 17.444272,1.538842 18.253289,0.951057 17.253289,0.951057 16.444272,1.538842 z"/>
<path class="thickRhombus" id="Rhombus (0, 6) (1, 1) [6, 1, -7, -6, 2]" d="M 16.444272,1.538842 16.135255,2.489898 17.135255,2.489898 17.444272,1.538842 z"/>
<path class="thinRhombus" id="Rhombus (0, 6) (2, -7) [6, 0, -7, -6, 2]" d="M 16.135255,2.489898 16.944272,3.077684 17.944272,3.077684 17.135255,2.489898 z"/>
<path class="thickRhombus" id="Rhombus (0, 6) (4, 3) [6, 0, -8, -6, 3]" d="M 18.253289,4.028740 17.944272,3.077684 16.944272,3.077684 17.253289,4.028740 z"/>
<path class="thickRhombus" id="Rhombus (0, 6) (1, 0) [6, 0, -8, -6, 3]" d="M 17.253289,4.028740 16.944272,4.979797 17.944272,4.979797 18.253289,4.028740 z"/>
<path class="thickRhombus" id="Rhombus (0, 6) (4, 4) [6, -1, -8, -6, 4]" d="M 18.253289,5.930853 17.944272,4.979797 16.944272,4.979797 17.253289,5.930853 z"/>
<path class="thinRhombus" id="Rhombus (0, 6) (3, -5) [6, -1, -8, -5, 4]" d="M 17.444272,6.518638 18.253289,5.930853 17.253289,5.930853 16.444272,6.518638 z"/>
<path class="thinRhombus" id="Rhombus (0, 6) (2, -8) [6, -1, -8, -5, 4]" d="M 16.444272,6.518638 17.253289,7.106424 18.253289,7.106424 17.444272,6.518638 z"/>
<path class="thickRhombus" id="Rhombus (0, 6) (1, -1) [6, -1, -9, -5, 4]" d="M 17.253289,7.106424 16.944272,8.057480 17.944272,8.057480 18.253289,7.106424 z"/>
<path class="thickRhombus" id="Rhombus (0, 6) (4, 5) [6, -2, -9, -5, 5]" d="M 18.253289,9.008537 17.944272,8.057480 16.944272,8.057480 17.253289,9.008537 z"/>
<path class="thickRhombus" id="Rhombus (0, 6) (1, -2) [6, -2, -9, -5, 5]" d="M 17.253289,9.008537 16.944272,9.959593 17.944272,9.959593 18.253289,9.008537 z"/>
<path class="thinRhombus" id="Rhombus (0, 6) (3, -4) [6, -3, -9, -4, 5]" d="M 17.135255,10.547378 17.944272,9.959593 16.944272,9.959593 16.135255,10.547378 z"/>
<path class="thickRhombus" id="Rhombus (0, 6) (4, 6) [6, -3, -9, -4, 6]" d="M 17.444272,11.498435 17.135255,10.547378 16.135255,10.547378 16.444272,11.498435 z"/>
<path class="thinRhombus" id="Rhombus (0, 6) (2, -9) [6, -3, -9, -4, 6]" d="M 16.444272,11.498435 17.253289,12.086220 18.253289,12.086220 17.444272,11.498435 z"/>
<path class="thickRhombus" id="Rhombus (0, 6) (1, -3) [6, -3, -10, -4, 6]" d="M 17.253289,12.086220 16.944272,13.037277 17.944272,13.037277 18.253289,12.086220 z"/>
<path class="thickRhombus" id="Rhombus (0, 6) (4, 7) [6, -4, -10, -4, 7]" d="M 18.253289,13.988333 17.944272,13.037277 16.944272,13.037277 17.253289,13.988333 z"/>
<path class="thinRhombus" id="Rhombus (0, 6) (3, -3) [6, -4, -10, -3, 7]" d="M 17.444272,14.576118 18.253289,13.988333 17.253289,13.988333 16.444272,14.576118 z"/>
<path class="thinRhombus" id="Rhombus (0, 6) (2, -10) [6, -4, -10, -3, 7]" d="M 16.444272,14.576118 17.253289,15.163904 18.253289,15.163904 17.444272,14.576118 z"/>
<path class="thickRhombus" id="Rhombus (0, 6) (1, -4) [6, -4, -11, -3, 7]" d="M 17.253289,15.163904 16.944272,16.114960 17.944272,16.114960 18.253289,15.163904 z"/>
<path class="thickRhombus" id="Rhombus (0, 6) (4, 8) [6, -5, -11, -3, 8]" d="M 18.253289,17.066017 17.944272,16.114960 16.944272,16.114960 17.253289,17.066017 z"/>
<path class="thickRhombus" id="Rhombus (0, 6) (1, -5) [6, -5, -11, -3, 8]" d="M 17.253289,17.066017 16.944272,18.017073 17.944272,18.017073 18.253289,17.066017 z"/>
<path class="thickRhombus" id="Rhombus (0, 6) (4, 9) [6, -6, -11, -3, 9]" d="M 18.253289,18.968130 17.944272,18.017073 16.944272,18.017073 17.253289,18.968130 z"/>
<path class="thinRhombus" id="Rhombus (0, 6) (3, -2) [6, -6, -11, -2, 9]" d="M 17.444272,19.555915 18.253289,18.968130 17.253289,18.968130 16.444272,19.555915 z"/>
<path class="thinRhombus" id="Rhombus (0, 6) (2, -11) [6, -6, -11, -2, 9]" d="M 16.444272,19.555915 17.253289,20.143700 18.253289,20.143700 17.444272,19.555915 z"/>
<path class="thinRhombus" id="Rhombus (0, 7) (3, -7) [7, 1, -8, -7, 2]" d="M 20.062306,1.538842 20.871323,0.951057 19.871323,0.951057 19.062306,1.538842 z"/>
<path class="thickRhombus" id="Rhombus (0, 7) (4, 3) [7, 1, -8, -7, 3]" d="M 20.371323,2.489898 20.062306,1.538842 19.062306,1.538842 19.371323,2.489898 z"/>
<path class="thickRhombus" id="Rhombus (0, 7) (1, 1) [7, 1, -8, -7, 3]" d="M 19.371323,2.489898 19.062306,3.440955 20.062306,3.440955 20.371323,2.489898 z"/>
<path class="thinRhombus" id="Rhombus (0, 7) (2, -8) [7, 0, -8, -7, 3]" d="M 19.062306,3.440955 19.871323,4.028740 20.871323,4.028740 20.062306,3.440955 z"/>
<path class="thickRhombus" id="Rhombus (0, 7) (1, 0) [7, 0, -9, -6, 4]" d="M 19.371323,5.567582 19.062306,6.518638 20.062306,6.518638 20.371323,5.567582 z"/>
<path class="thickRhombus" id="Rhombus (0, 7) (4, 5) [7, -1, -9, -6, 5]" d="M 20.371323,7.469695 20.062306,6.518638 19.062306,6.518638 19.371323,7.469695 z"/>
<path class="thinRhombus" id="Rhombus (0, 7) (3, -5) [7, -2, -10, -5, 5]" d="M 20.062306,9.596322 20.871323,9.008537 19.871323,9.008537 19.062306,9.596322 z"/>
<path class="thickRhombus" id="Rhombus (0, 7) (4, 6) [7, -2, -10, -5, 6]" d="M 20.371323,10.547378 20.062306,9.596322 19.062306,9.596322 19.371323,10.547378 z"/>
<path class="thickRhombus" id="Rhombus (0, 7) (1, -2) [7, -2, -10, -5, 6]" d="M 19.371323,10.547378 19.062306,11.498435 20.062306,11.498435 20.371323,10.547378 z"/>
<path class="thinRhombus" id="Rhombus (0, 7) (2, -10) [7, -3, -10, -5, 6]" d="M 19.062306,11.498435 19.871323,12.086220 20.871323,12.086220 20.062306,11.498435 z"/>
<path class="thinRhombus" id="Rhombus (0, 7) (3, -4) [7, -4, -11, -4, 7]" d="M 20.062306,14.576118 20.871323,13.988333 19.871323,13.988333 19.062306,14.576118 z"/>
<path class="thickRhombus" id="Rhombus (0, 7) (4, 8) [7, -4, -11, -4, 8]" d="M 20.371323,15.527175 20.062306,14.576118 19.062306,14.576118 19.371323,15.527175 z"/>
<path class="thickRhombus" id="Rhombus (0, 7) (1, -5) [7, -5, -12, -3, 9]" d="M 19.371323,18.604858 19.062306,19.555915 20.062306,19.555915 20.371323,18.604858 z"/>
<path class="thickRhombus" id="Rhombus (1, -7) (2, -5) [-1, -7, -5, 3, 6]" d="M -0.000000,18.017073 0.809017,18.604858 1.118034,17.653802 0.309017,17.066017 z"/>
<path class="thinRhombus" id="Rhombus (1, -7) (3, 3) [-1, -7, -6, 3, 6]" d="M 0.809017,18.604858 1.618034,18.017073 1.927051,17.066017 1.118034,17.653802 z"/>
<path class="thinRhombus" id="Rhombus (1, -7) (4, 7) [-1, -7, -6, 2, 7]" d="M 2.236068,18.017073 1.927051,17.066017 1.618034,18.017073 1.927051,18.968130 z"/>
<path class="thickRhombus" id="Rhombus (1, -7) (2, -6) [0, -7, -6, 2, 7]" d="M 2.927051,18.968130 3.736068,19.555915 4.045085,18.604858 3.236068,18.017073 z"/>
<path class="thickRhombus" id="Rhombus (1, -7) (2, -7) [1, -7, -7, 2, 7]" d="M 4.736068,19.555915 5.545085,20.143700 5.854102,19.192644 5.045085,18.604858 z"/>
<path class="thinRhombus" id="Rhombus (1, -7) (3, 2) [1, -7, -8, 2, 7]" d="M 5.545085,20.143700 6.354102,19.555915 6.663119,18.604858 5.854102,19.192644 z"/>
<path class="thinRhombus" id="Rhombus (1, -7) (4, 8) [1, -7, -8, 1, 8]" d="M 6.972136,19.555915 6.663119,18.604858 6.354102,19.555915 6.663119,20.506972 z"/>
<path class="thickRhombus" id="Rhombus (1, -6) (2, -5) [-1, -6, -5, 2, 5]" d="M 0.809017,15.527175 1.618034,16.114960 1.927051,15.163904 1.118034,14.576118 z"/>
<path class="thinRhombus" id="Rhombus (1, -6) (4, 6) [-1, -6, -6, 2, 6]" d="M 2.236068,16.114960 1.927051,15.163904 1.618034,16.114960 1.927051,17.066017 z"/>
<path class="thinRhombus" id="Rhombus (1, -6) (3, 2) [0, -6, -6, 2, 6]" d="M 2.927051,17.066017 3.736068,16.478231 4.045085,15.527175 3.236068,16.114960 z"/>
<path class="thickRhombus" id="Rhombus (1, -6) (2, -6) [0, -6, -6, 1, 6]" d="M 3.736068,16.478231 4.545085,17.066017 4.854102,16.114960 4.045085,15.527175 z"/>
<path class="thinRhombus" id="Rhombus (1, -6) (4, 7) [1, -6, -7, 1, 7]" d="M 6.163119,17.066017 5.854102,16.114960 5.545085,17.066017 5.854102,18.017073 z"/>
<path class="thickRhombus" id="Rhombus (1, -6) (2, -7) [1, -6, -7, 1, 7]" d="M 5.854102,18.017073 6.663119,18.604858 6.972136,17.653802 6.163119,17.066017 z"/>
<path class="thinRhombus" id="Rhombus (1, -6) (3, 1) [1, -6, -8, 1, 7]" d="M 6.663119,18.604858 7.472136,18.017073 7.781153,17.066017 6.972136,17.653802 z"/>
<path class="thickRhombus" id="Rhombus (1, -6) (2, -8) [2, -6, -8, 0, 7]" d="M 8.472136,18.017073 9.281153,18.604858 9.590170,17.653802 8.781153,17.066017 z"/>
<path class="thinRhombus" id="Rhombus (1, -6) (4, 8) [3, -6, -9, 0, 8]" d="M 10.899187,18.604858 10.590170,17.653802 10.281153,18.604858 10.590170,19.555915 z"/>
<path class="thinRhombus" id="Rhombus (1, -6) (3, 0) [3, -6, -9, 0, 8]" d="M 10.590170,19.555915 11.399187,18.968130 11.708204,18.017073 10.899187,18.604858 z"/>
<path class="thickRhombus" id="Rhombus (1, -6) (2, -9) [3, -6, -9, -1, 8]" d="M 11.399187,18.968130 12.208204,19.555915 12.517221,18.604858 11.708204,18.017073 z"/>
<path class="thinRhombus" id="Rhombus (1, -6) (4, 9) [4, -6, -10, -1, 9]" d="M 13.826238,19.555915 13.517221,18.604858 13.208204,19.555915 13.517221,20.506972 z"/>
<path class="thinRhombus" id="Rhombus (1, -5) (3, 2) [-1, -5, -4, 2, 4]" d="M -0.000000,13.037277 0.809017,12.449491 1.118034,11.498435 0.309017,12.086220 z"/>
<path class="thickRhombus" id="Rhombus (1, -5) (2, -4) [-1, -5, -4, 1, 4]" d="M 0.809017,12.449491 1.618034,13.037277 1.927051,12.086220 1.118034,11.498435 z"/>
<path class="thinRhombus" id="Rhombus (1, -5) (4, 5) [-1, -5, -5, 1, 5]" d="M 2.236068,13.037277 1.927051,12.086220 1.618034,13.037277 1.927051,13.988333 z"/>
<path class="thickRhombus" id="Rhombus (1, -5) (2, -5) [0, -5, -5, 1, 5]" d="M 2.927051,13.988333 3.736068,14.576118 4.045085,13.625062 3.236068,13.037277 z"/>
<path class="thinRhombus" id="Rhombus (1, -5) (3, 1) [0, -5, -6, 1, 5]" d="M 3.736068,14.576118 4.545085,13.988333 4.854102,13.037277 4.045085,13.625062 z"/>
<path class="thickRhombus" id="Rhombus (1, -5) (2, -6) [1, -5, -6, 0, 5]" d="M 5.545085,13.988333 6.354102,14.576118 6.663119,13.625062 5.854102,13.037277 z"/>
<path class="thinRhombus" id="Rhombus (1, -5) (4, 6) [1, -5, -7, 0, 6]" d="M 6.972136,14.576118 6.663119,13.625062 6.354102,14.576118 6.663119,15.527175 z"/>
<path class="thickRhombus" id="Rhombus (1, -5) (2, -7) [2, -5, -7, 0, 6]" d="M 7.663119,15.527175 8.472136,16.114960 8.781153,15.163904 7.972136,14.576118 z"/>
<path class="thinRhombus" id="Rhombus (1, -5) (3, 0) [2, -5, -8, 0, 6]" d="M 8.472136,16.114960 9.281153,15.527175 9.590170,14.576118 8.781153,15.163904 z"/>
<path class="thinRhombus" id="Rhombus (1, -5) (4, 7) [3, -5, -8, -1, 7]" d="M 10.899187,15.527175 10.590170,14.576118 10.281153,15.527175 10.590170,16.478231 z"/>
<path class="thickRhombus" id="Rhombus (1, -5) (2, -8) [3, -5, -8, -1, 7]" d="M 10.590170,16.478231 11.399187,17.066017 11.708204,16.114960 10.899187,15.527175 z"/>
<path class="thinRhombus" id="Rhombus (1, -5) (3, -1) [4, -5, -9, -1, 7]" d="M 12.399187,17.066017 13.208204,16.478231 13.517221,15.527175 12.708204,16.114960 z"/>
<path class="thickRhombus" id="Rhombus (1, -5) (2, -9) [4, -5, -9, -2, 7]" d="M 13.208204,16.478231 14.017221,17.066017 14.326238,16.114960 13.517221,15.527175 z"/>
<path class="thinRhombus" id="Rhombus (1, -5) (4, 8) [4, -5, -10, -2, 8]" d="M 14.635255,17.066017 14.326238,16.114960 14.017221,17.066017 14.326238,18.017073 z"/>
<path class="thickRhombus" id="Rhombus (1, -5) (2, -10) [5, -5, -10, -2, 8]" d="M 15.326238,18.017073 16.135255,18.604858 16.444272,17.653802 15.635255,17.066017 z"/>
<path class="thinRhombus" id="Rhombus (1, -5) (3, -2) [5, -5, -11, -2, 8]" d="M 16.135255,18.604858 16.944272,18.017073 17.253289,17.066017 16.444272,17.653802 z"/>
<path class="thinRhombus" id="Rhombus (1, -5) (4, 9) [6, -5, -11, -3, 9]" d="M 18.562306,18.017073 18.253289,17.066017 17.944272,18.017073 18.253289,18.968130 z"/>
<path class="thickRhombus" id="Rhombus (1, -5) (2, -11) [6, -5, -11, -3, 9]" d="M 18.253289,18.968130 19.062306,19.555915 19.371323,18.604858 18.562306,18.017073 z"/>
<path class="thinRhombus" id="Rhombus (1, -4) (4, 4) [-1, -4, -4, 1, 4]" d="M 1.427051,10.547378 1.118034,9.596322 0.809017,10.547378 1.118034,11.498435 z"/>
<path class="thinRhombus" id="Rhombus (1, -4) (3, 1) [-1, -4, -4, 1, 4]" d="M 1.118034,11.498435 1.927051,10.910650 2.236068,9.959593 1.427051,10.547378 z"/>
<path class="thickRhombus" id="Rhombus (1, -4) (2, -4) [-1, -4, -4, 0, 4]" d="M 1.927051,10.910650 2.736068,11.498435 3.045085,10.547378 2.236068,9.959593 z"/>
<path class="thickRhombus" id="Rhombus (1, -4) (2, -5) [0, -4, -5, 0, 4]" d="M 3.736068,11.498435 4.545085,12.086220 4.854102,11.135164 4.045085,10.547378 z"/>
<path class="thinRhombus" id="Rhombus (1, -4) (4, 5) [1, -4, -6, 0, 5]" d="M 6.163119,12.086220 5.854102,11.135164 5.545085,12.086220 5.854102,13.037277 z"/>
<path class="thinRhombus" id="Rhombus (1, -4) (3, 0) [1, -4, -6, 0, 5]" d="M 5.854102,13.037277 6.663119,12.449491 6.972136,11.498435 6.163119,12.086220 z"/>
<path class="thickRhombus" id="Rhombus (1, -4) (2, -6) [1, -4, -6, -1, 5]" d="M 6.663119,12.449491 7.472136,13.037277 7.781153,12.086220 6.972136,11.498435 z"/>
<path class="thickRhombus" id="Rhombus (1, -4) (2, -7) [2, -4, -7, -1, 5]" d="M 8.472136,13.037277 9.281153,13.625062 9.590170,12.674005 8.781153,12.086220 z"/>
<path class="thinRhombus" id="Rhombus (1, -4) (4, 6) [3, -4, -8, -1, 6]" d="M 10.899187,13.625062 10.590170,12.674005 10.281153,13.625062 10.590170,14.576118 z"/>
<path class="thinRhombus" id="Rhombus (1, -4) (3, -1) [3, -4, -8, -1, 6]" d="M 10.590170,14.576118 11.399187,13.988333 11.708204,13.037277 10.899187,13.625062 z"/>
<path class="thickRhombus" id="Rhombus (1, -4) (2, -8) [3, -4, -8, -2, 6]" d="M 11.399187,13.988333 12.208204,14.576118 12.517221,13.625062 11.708204,13.037277 z"/>
<path class="thinRhombus" id="Rhombus (1, -4) (4, 7) [4, -4, -9, -2, 7]" d="M 13.826238,14.576118 13.517221,13.625062 13.208204,14.576118 13.517221,15.527175 z"/>
<path class="thinRhombus" id="Rhombus (1, -4) (3, -2) [4, -4, -9, -2, 7]" d="M 13.517221,15.527175 14.326238,14.939390 14.635255,13.988333 13.826238,14.576118 z"/>
<path class="thickRhombus" id="Rhombus (1, -4) (2, -9) [4, -4, -9, -3, 7]" d="M 14.326238,14.939390 15.135255,15.527175 15.444272,14.576118 14.635255,13.988333 z"/>
<path class="thickRhombus" id="Rhombus (1, -4) (2, -10) [5, -4, -10, -3, 7]" d="M 16.135255,15.527175 16.944272,16.114960 17.253289,15.163904 16.444272,14.576118 z"/>
<path class="thinRhombus" id="Rhombus (1, -4) (4, 8) [6, -4, -11, -3, 8]" d="M 18.562306,16.114960 18.253289,15.163904 17.944272,16.114960 18.253289,17.066017 z"/>
<path class="thinRhombus" id="Rhombus (1, -4) (3, -3) [6, -4, -11, -3, 8]" d="M 18.253289,17.066017 19.062306,16.478231 19.371323,15.527175 18.562306,16.114960 z"/>
<path class="thickRhombus" id="Rhombus (1, -4) (2, -11) [6, -4, -11, -4, 8]" d="M 19.062306,16.478231 19.871323,17.066017 20.180340,16.114960 19.371323,15.527175 z"/>
<path class="thickRhombus" id="Rhombus (1, -3) (2, -3) [-1, -3, -3, 0, 2]" d="M 0.809017,7.469695 1.618034,8.057480 1.927051,7.106424 1.118034,6.518638 z"/>
<path class="thinRhombus" id="Rhombus (1, -3) (4, 3) [-1, -3, -4, 0, 3]" d="M 2.236068,8.057480 1.927051,7.106424 1.618034,8.057480 1.927051,9.008537 z"/>
<path class="thinRhombus" id="Rhombus (1, -3) (3, 0) [0, -3, -4, 0, 3]" d="M 2.927051,9.008537 3.736068,8.420751 4.045085,7.469695 3.236068,8.057480 z"/>
<path class="thickRhombus" id="Rhombus (1, -3) (2, -4) [0, -3, -4, -1, 3]" d="M 3.736068,8.420751 4.545085,9.008537 4.854102,8.057480 4.045085,7.469695 z"/>
<path class="thinRhombus" id="Rhombus (1, -3) (4, 4) [1, -3, -5, -1, 4]" d="M 6.163119,9.008537 5.854102,8.057480 5.545085,9.008537 5.854102,9.959593 z"/>
<path class="thickRhombus" id="Rhombus (1, -3) (2, -5) [1, -3, -5, -1, 4]" d="M 5.854102,9.959593 6.663119,10.547378 6.972136,9.596322 6.163119,9.008537 z"/>
<path class="thinRhombus" id="Rhombus (1, -3) (3, -1) [2, -3, -6, -1, 4]" d="M 7.663119,10.547378 8.472136,9.959593 8.781153,9.008537 7.972136,9.596322 z"/>
<path class="thickRhombus" id="Rhombus (1, -3) (2, -6) [2, -3, -6, -2, 4]" d="M 8.472136,9.959593 9.281153,10.547378 9.590170,9.596322 8.781153,9.008537 z"/>
<path class="thinRhombus" id="Rhombus (1, -3) (4, 5) [3, -3, -7, -2, 5]" d="M 10.899187,10.547378 10.590170,9.596322 10.281153,10.547378 10.590170,11.498435 z"/>
<path class="thickRhombus" id="Rhombus (1, -3) (2, -7) [3, -3, -7, -2, 5]" d="M 10.590170,11.498435 11.399187,12.086220 11.708204,11.135164 10.899187,10.547378 z"/>
<path class="thinRhombus" id="Rhombus (1, -3) (3, -2) [3, -3, -8, -2, 5]" d="M 11.399187,12.086220 12.208204,11.498435 12.517221,10.547378 11.708204,11.135164 z"/>
<path class="thickRhombus" id="Rhombus (1, -3) (2, -8) [4, -3, -8, -3, 5]" d="M 13.208204,11.498435 14.017221,12.086220 14.326238,11.135164 13.517221,10.547378 z"/>
<path class="thinRhombus" id="Rhombus (1, -3) (4, 6) [4, -3, -9, -3, 6]" d="M 14.635255,12.086220 14.326238,11.135164 14.017221,12.086220 14.326238,13.037277 z"/>
<path class="thinRhombus" id="Rhombus (1, -3) (3, -3) [5, -3, -9, -3, 6]" d="M 15.326238,13.037277 16.135255,12.449491 16.444272,11.498435 15.635255,12.086220 z"/>
<path class="thickRhombus" id="Rhombus (1, -3) (2, -9) [5, -3, -9, -4, 6]" d="M 16.135255,12.449491 16.944272,13.037277 17.253289,12.086220 16.444272,11.498435 z"/>
<path class="thinRhombus" id="Rhombus (1, -3) (4, 7) [6, -3, -10, -4, 7]" d="M 18.562306,13.037277 18.253289,12.086220 17.944272,13.037277 18.253289,13.988333 z"/>
<path class="thickRhombus" id="Rhombus (1, -3) (2, -10) [6, -3, -10, -4, 7]" d="M 18.253289,13.988333 19.062306,14.576118 19.371323,13.625062 18.562306,13.037277 z"/>
<path class="thinRhombus" id="Rhombus (1, -3) (3, -4) [6, -3, -11, -4, 7]" d="M 19.062306,14.576118 19.871323,13.988333 20.180340,13.037277 19.371323,13.625062 z"/>
<path class="thickRhombus" id="Rhombus (1, -2) (2, -2) [-1, -2, -2, 0, 1]" d="M -0.000000,4.979797 0.809017,5.567582 1.118034,4.616525 0.309017,4.028740 z"/>
<path class="thinRhombus" id="Rhombus (1, -2) (3, 0) [-1, -2, -3, 0, 1]" d="M 0.809017,5.567582 1.618034,4.979797 1.927051,4.028740 1.118034,4.616525 z"/>
<path class="thinRhombus" id="Rhombus (1, -2) (4, 2) [-1, -2, -3, -1, 2]" d="M 2.236068,4.979797 1.927051,4.028740 1.618034,4.979797 1.927051,5.930853 z"/>
<path class="thickRhombus" id="Rhombus (1, -2) (2, -3) [0, -2, -3, -1, 2]" d="M 2.927051,5.930853 3.736068,6.518638 4.045085,5.567582 3.236068,4.979797 z"/>
<path class="thinRhombus" id="Rhombus (1, -2) (3, -1) [1, -2, -4, -1, 2]" d="M 4.736068,6.518638 5.545085,5.930853 5.854102,4.979797 5.045085,5.567582 z"/>
<path class="thickRhombus" id="Rhombus (1, -2) (2, -4) [1, -2, -4, -2, 2]" d="M 5.545085,5.930853 6.354102,6.518638 6.663119,5.567582 5.854102,4.979797 z"/>
<path class="thinRhombus" id="Rhombus (1, -2) (4, 3) [1, -2, -5, -2, 3]" d="M 6.972136,6.518638 6.663119,5.567582 6.354102,6.518638 6.663119,7.469695 z"/>
<path class="thickRhombus" id="Rhombus (1, -2) (2, -5) [2, -2, -5, -2, 3]" d="M 7.663119,7.469695 8.472136,8.057480 8.781153,7.106424 7.972136,6.518638 z"/>
<path class="thinRhombus" id="Rhombus (1, -2) (3, -2) [2, -2, -6, -2, 3]" d="M 8.472136,8.057480 9.281153,7.469695 9.590170,6.518638 8.781153,7.106424 z"/>
<path class="thinRhombus" id="Rhombus (1, -2) (4, 4) [3, -2, -6, -3, 4]" d="M 10.899187,7.469695 10.590170,6.518638 10.281153,7.469695 10.590170,8.420751 z"/>
<path class="thickRhombus" id="Rhombus (1, -2) (2, -6) [3, -2, -6, -3, 4]" d="M 10.590170,8.420751 11.399187,9.008537 11.708204,8.057480 10.899187,7.469695 z"/>
<path class="thickRhombus" id="Rhombus (1, -2) (2, -7) [4, -2, -7, -3, 4]" d="M 12.399187,9.008537 13.208204,9.596322 13.517221,8.645265 12.708204,8.057480 z"/>
<path class="thinRhombus" id="Rhombus (1, -2) (3, -3) [4, -2, -8, -3, 4]" d="M 13.208204,9.596322 14.017221,9.008537 14.326238,8.057480 13.517221,8.645265 z"/>
<path class="thinRhombus" id="Rhombus (1, -2) (4, 5) [4, -2, -8, -4, 5]" d="M 14.635255,9.008537 14.326238,8.057480 14.017221,9.008537 14.326238,9.959593 z"/>
<path class="thickRhombus" id="Rhombus (1, -2) (2, -8) [5, -2, -8, -4, 5]" d="M 15.326238,9.959593 16.135255,10.547378 16.444272,9.596322 15.635255,9.008537 z"/>
<path class="thinRhombus" id="Rhombus (1, -2) (3, -4) [5, -2, -9, -4, 5]" d="M 16.135255,10.547378 16.944272,9.959593 17.253289,9.008537 16.444272,9.596322 z"/>
<path class="thickRhombus" id="Rhombus (1, -2) (2, -9) [6, -2, -9, -5, 5]" d="M 17.944272,9.959593 18.753289,10.547378 19.062306,9.596322 18.253289,9.008537 z"/>
<path class="thinRhombus" id="Rhombus (1, -2) (4, 6) [6, -2, -10, -5, 6]" d="M 19.371323,10.547378 19.062306,9.596322 18.753289,10.547378 19.062306,11.498435 z"/>
<path class="thickRhombus" id="Rhombus (1, -1) (2, -2) [-1, -1, -2, -1, 0]" d="M 0.809017,2.489898 1.618034,3.077684 1.927051,2.126627 1.118034,1.538842 z"/>
<path class="thinRhombus" id="Rhombus (1, -1) (4, 1) [-1, -1, -3, -1, 1]" d="M 2.236068,3.077684 1.927051,2.126627 1.618034,3.077684 1.927051,4.028740 z"/>
<path class="thinRhombus" id="Rhombus (1, -1) (3, -1) [0, -1, -3, -1, 1]" d="M 2.927051,4.028740 3.736068,3.440955 4.045085,2.489898 3.236068,3.077684 z"/>
<path class="thickRhombus" id="Rhombus (1, -1) (2, -3) [0, -1, -3, -2, 1]" d="M 3.736068,3.440955 4.545085,4.028740 4.854102,3.077684 4.045085,2.489898 z"/>
<path class="thinRhombus" id="Rhombus (1, -1) (4, 2) [1, -1, -4, -2, 2]" d="M 6.163119,4.028740 5.854102,3.077684 5.545085,4.028740 5.854102,4.979797 z"/>
<path class="thinRhombus" id="Rhombus (1, -1) (3, -2) [1, -1, -4, -2, 2]" d="M 5.854102,4.979797 6.663119,4.392011 6.972136,3.440955 6.163119,4.028740 z"/>
<path class="thickRhombus" id="Rhombus (1, -1) (2, -4) [1, -1, -4, -3, 2]" d="M 6.663119,4.392011 7.472136,4.979797 7.781153,4.028740 6.972136,3.440955 z"/>
<path class="thickRhombus" id="Rhombus (1, -1) (2, -5) [2, -1, -5, -3, 2]" d="M 8.472136,4.979797 9.281153,5.567582 9.590170,4.616525 8.781153,4.028740 z"/>
<path class="thinRhombus" id="Rhombus (1, -1) (4, 3) [3, -1, -6, -3, 3]" d="M 10.899187,5.567582 10.590170,4.616525 10.281153,5.567582 10.590170,6.518638 z"/>
<path class="thinRhombus" id="Rhombus (1, -1) (3, -3) [3, -1, -6, -3, 3]" d="M 10.590170,6.518638 11.399187,5.930853 11.708204,4.979797 10.899187,5.567582 z"/>
<path class="thickRhombus" id="Rhombus (1, -1) (2, -6) [3, -1, -6, -4, 3]" d="M 11.399187,5.930853 12.208204,6.518638 12.517221,5.567582 11.708204,4.979797 z"/>
<path class="thinRhombus" id="Rhombus (1, -1) (4, 4) [4, -1, -7, -4, 4]" d="M 13.826238,6.518638 13.517221,5.567582 13.208204,6.518638 13.517221,7.469695 z"/>
<path class="thickRhombus" id="Rhombus (1, -1) (2, -7) [4, -1, -7, -4, 4]" d="M 13.517221,7.469695 14.326238,8.057480 14.635255,7.106424 13.826238,6.518638 z"/>
<path class="thinRhombus" id="Rhombus (1, -1) (3, -4) [4, -1, -8, -4, 4]" d="M 14.326238,8.057480 15.135255,7.469695 15.444272,6.518638 14.635255,7.106424 z"/>
<path class="thickRhombus" id="Rhombus (1, -1) (2, -8) [5, -1, -8, -5, 4]" d="M 16.135255,7.469695 16.944272,8.057480 17.253289,7.106424 16.444272,6.518638 z"/>
<path class="thinRhombus" id="Rhombus (1, -1) (4, 5) [6, -1, -9, -5, 5]" d="M 18.562306,8.057480 18.253289,7.106424 17.944272,8.057480 18.253289,9.008537 z"/>
<path class="thinRhombus" id="Rhombus (1, -1) (3, -5) [6, -1, -9, -5, 5]" d="M 18.253289,9.008537 19.062306,8.420751 19.371323,7.469695 18.562306,8.057480 z"/>
<path class="thickRhombus" id="Rhombus (1, -1) (2, -9) [6, -1, -9, -6, 5]" d="M 19.062306,8.420751 19.871323,9.008537 20.180340,8.057480 19.371323,7.469695 z"/>
<path class="thinRhombus" id="Rhombus (1, 0) (4, 0) [-1, 0, -2, -2, 0]" d="M 2.236068,0.000000 1.927051,-0.951057 1.618034,0.000000 1.927051,0.951057 z"/>
<path class="thickRhombus" id="Rhombus (1, 0) (2, -2) [0, 0, -2, -2, 0]" d="M 2.927051,0.951057 3.736068,1.538842 4.045085,0.587785 3.236068,0.000000 z"/>
<path class="thinRhombus" id="Rhombus (1, 0) (3, -2) [0, 0, -3, -2, 0]" d="M 3.736068,1.538842 4.545085,0.951057 4.854102,0.000000 4.045085,0.587785 z"/>
<path class="thickRhombus" id="Rhombus (1, 0) (2, -3) [1, 0, -3, -3, 0]" d="M 5.545085,0.951057 6.354102,1.538842 6.663119,0.587785 5.854102,0.000000 z"/>
<path class="thinRhombus" id="Rhombus (1, 0) (4, 1) [1, 0, -4, -3, 1]" d="M 6.972136,1.538842 6.663119,0.587785 6.354102,1.538842 6.663119,2.489898 z"/>
<path class="thinRhombus" id="Rhombus (1, 0) (3, -3) [2, 0, -4, -3, 1]" d="M 7.663119,2.489898 8.472136,1.902113 8.781153,0.951057 7.972136,1.538842 z"/>
<path class="thickRhombus" id="Rhombus (1, 0) (2, -4) [2, 0, -4, -4, 1]" d="M 8.472136,1.902113 9.281153,2.489898 9.590170,1.538842 8.781153,0.951057 z"/>
<path class="thinRhombus" id="Rhombus (1, 0) (4, 2) [3, 0, -5, -4, 2]" d="M 10.899187,2.489898 10.590170,1.538842 10.281153,2.489898 10.590170,3.440955 z"/>
<path class="thickRhombus" id="Rhombus (1, 0) (2, -5) [3, 0, -5, -4, 2]" d="M 10.590170,3.440955 11.399187,4.028740 11.708204,3.077684 10.899187,2.489898 z"/>
<path class="thinRhombus" id="Rhombus (1, 0) (3, -4) [3, 0, -6, -4, 2]" d="M 11.399187,4.028740 12.208204,3.440955 12.517221,2.489898 11.708204,3.077684 z"/>
<path class="thickRhombus" id="Rhombus (1, 0) (2, -6) [4, 0, -6, -5, 2]" d="M 13.208204,3.440955 14.017221,4.028740 14.326238,3.077684 13.517221,2.489898 z"/>
<path class="thinRhombus" id="Rhombus (1, 0) (4, 3) [4, 0, -7, -5, 3]" d="M 14.635255,4.028740 14.326238,3.077684 14.017221,4.028740 14.326238,4.979797 z"/>
<path class="thickRhombus" id="Rhombus (1, 0) (2, -7) [5, 0, -7, -5, 3]" d="M 15.326238,4.979797 16.135255,5.567582 16.444272,4.616525 15.635255,4.028740 z"/>
<path class="thinRhombus" id="Rhombus (1, 0) (3, -5) [5, 0, -8, -5, 3]" d="M 16.135255,5.567582 16.944272,4.979797 17.253289,4.028740 16.444272,4.616525 z"/>
<path class="thinRhombus" id="Rhombus (1, 0) (4, 4) [6, 0, -8, -6, 4]" d="M 18.562306,4.979797 18.253289,4.028740 17.944272,4.979797 18.253289,5.930853 z"/>
<path class="thickRhombus" id="Rhombus (1, 0) (2, -8) [6, 0, -8, -6, 4]" d="M 18.253289,5.930853 19.062306,6.518638 19.371323,5.567582 18.562306,4.979797 z"/>
<path class="thinRhombus" id="Rhombus (1, 1) (4, 1) [3, 1, -5, -5, 1]" d="M 11.708204,0.000000 11.399187,-0.951057 11.090170,0.000000 11.399187,0.951057 z"/>
<path class="thickRhombus" id="Rhombus (1, 1) (2, -5) [4, 1, -5, -5, 1]" d="M 12.399187,0.951057 13.208204,1.538842 13.517221,0.587785 12.708204,0.000000 z"/>
<path class="thinRhombus" id="Rhombus (1, 1) (3, -5) [4, 1, -6, -5, 1]" d="M 13.208204,1.538842 14.017221,0.951057 14.326238,0.000000 13.517221,0.587785 z"/>
<path class="thinRhombus" id="Rhombus (1, 1) (4, 2) [4, 1, -6, -6, 2]" d="M 14.635255,0.951057 14.326238,0.000000 14.017221,0.951057 14.326238,1.902113 z"/>
<path class="thickRhombus" id="Rhombus (1, 1) (2, -6) [5, 1, -6, -6, 2]" d="M 15.326238,1.902113 16.135255,2.489898 16.444272,1.538842 15.635255,0.951057 z"/>
<path class="thickRhombus" id="Rhombus (1, 1) (2, -7) [6, 1, -7, -6, 2]" d="M 17.135255,2.489898 17.944272,3.077684 18.253289,2.126627 17.444272,1.538842 z"/>
<path class="thinRhombus" id="Rhombus (1, 1) (3, -6) [6, 1, -8, -6, 2]" d="M 17.944272,3.077684 18.753289,2.489898 19.062306,1.538842 18.253289,2.126627 z"/>
<path class="thinRhombus" id="Rhombus (1, 1) (4, 3) [6, 1, -8, -7, 3]" d="M 19.371323,2.489898 19.062306,1.538842 18.753289,2.489898 19.062306,3.440955 z"/>
<path class="thinRhombus" id="Rhombus (1, 2) (4, 2) [6, 2, -7, -7, 2]" d="M 18.562306,0.000000 18.253289,-0.951057 17.944272,0.000000 18.253289,0.951057 z"/>
<path class="thickRhombus" id="Rhombus (1, 2) (2, -7) [6, 2, -7, -7, 2]" d="M 18.253289,0.951057 19.062306,1.538842 19.371323,0.587785 18.562306,0.000000 z"/>
<path class="thinRhombus" id="Rhombus (1, 2) (3, -7) [6, 2, -8, -7, 2]" d="M 19.062306,1.538842 19.871323,0.951057 20.180340,0.000000 19.371323,0.587785 z"/>
<path class="thickRhombus" id="Rhombus (2, -11) (3, -2) [6, -6, -11, -2, 9]" d="M 18.253289,20.143700 19.062306,19.555915 18.253289,18.968130 17.444272,19.555915 z"/>
<path class="thinRhombus" id="Rhombus (2, -11) (4, 9) [6, -5, -11, -3, 9]" d="M 19.371323,18.604858 19.062306,17.653802 18.253289,17.066017 18.562306,18.017073 z"/>
<path class="thickRhombus" id="Rhombus (2, -11) (3, -3) [6, -5, -11, -3, 8]" d="M 19.062306,17.653802 19.871323,17.066017 19.062306,16.478231 18.253289,17.066017 z"/>
<path class="thinRhombus" id="Rhombus (2, -10) (4, 9) [4, -6, -10, -1, 9]" d="M 14.635255,20.143700 14.326238,19.192644 13.517221,18.604858 13.826238,19.555915 z"/>
<path class="thickRhombus" id="Rhombus (2, -10) (3, -1) [4, -6, -10, -1, 8]" d="M 14.326238,19.192644 15.135255,18.604858 14.326238,18.017073 13.517221,18.604858 z"/>
<path class="thickRhombus" id="Rhombus (2, -10) (3, -2) [5, -5, -10, -2, 8]" d="M 16.444272,17.653802 17.253289,17.066017 16.444272,16.478231 15.635255,17.066017 z"/>
<path class="thinRhombus" id="Rhombus (2, -10) (4, 8) [5, -5, -10, -3, 8]" d="M 17.253289,17.066017 16.944272,16.114960 16.135255,15.527175 16.444272,16.478231 z"/>
<path class="thickRhombus" id="Rhombus (2, -10) (3, -3) [6, -4, -10, -3, 7]" d="M 18.253289,15.163904 19.062306,14.576118 18.253289,13.988333 17.444272,14.576118 z"/>
<path class="thickRhombus" id="Rhombus (2, -10) (3, -4) [6, -3, -10, -4, 7]" d="M 19.371323,13.625062 20.180340,13.037277 19.371323,12.449491 18.562306,13.037277 z"/>
<path class="thinRhombus" id="Rhombus (2, -10) (4, 7) [6, -3, -10, -5, 7]" d="M 20.180340,13.037277 19.871323,12.086220 19.062306,11.498435 19.371323,12.449491 z"/>
<path class="thickRhombus" id="Rhombus (2, -9) (3, 0) [3, -7, -9, 0, 8]" d="M 11.399187,20.143700 12.208204,19.555915 11.399187,18.968130 10.590170,19.555915 z"/>
<path class="thinRhombus" id="Rhombus (2, -9) (4, 8) [4, -6, -9, -1, 8]" d="M 13.517221,18.604858 13.208204,17.653802 12.399187,17.066017 12.708204,18.017073 z"/>
<path class="thickRhombus" id="Rhombus (2, -9) (3, -1) [4, -6, -9, -1, 7]" d="M 13.208204,17.653802 14.017221,17.066017 13.208204,16.478231 12.399187,17.066017 z"/>
<path class="thickRhombus" id="Rhombus (2, -9) (3, -2) [4, -5, -9, -2, 7]" d="M 14.326238,16.114960 15.135255,15.527175 14.326238,14.939390 13.517221,15.527175 z"/>
<path class="thinRhombus" id="Rhombus (2, -9) (4, 7) [5, -4, -9, -3, 7]" d="M 16.444272,14.576118 16.135255,13.625062 15.326238,13.037277 15.635255,13.988333 z"/>
<path class="thickRhombus" id="Rhombus (2, -9) (3, -3) [5, -4, -9, -3, 6]" d="M 16.135255,13.625062 16.944272,13.037277 16.135255,12.449491 15.326238,13.037277 z"/>
<path class="thickRhombus" id="Rhombus (2, -9) (3, -4) [6, -3, -9, -4, 6]" d="M 18.253289,12.086220 19.062306,11.498435 18.253289,10.910650 17.444272,11.498435 z"/>
<path class="thinRhombus" id="Rhombus (2, -9) (4, 6) [6, -3, -9, -5, 6]" d="M 19.062306,11.498435 18.753289,10.547378 17.944272,9.959593 18.253289,10.910650 z"/>
<path class="thickRhombus" id="Rhombus (2, -9) (3, -5) [6, -2, -9, -5, 5]" d="M 19.062306,9.596322 19.871323,9.008537 19.062306,8.420751 18.253289,9.008537 z"/>
<path class="thickRhombus" id="Rhombus (2, -8) (3, 1) [2, -7, -8, 1, 8]" d="M 8.781153,20.143700 9.590170,19.555915 8.781153,18.968130 7.972136,19.555915 z"/>
<path class="thinRhombus" id="Rhombus (2, -8) (4, 8) [2, -7, -8, 0, 8]" d="M 9.590170,19.555915 9.281153,18.604858 8.472136,18.017073 8.781153,18.968130 z"/>
<path class="thickRhombus" id="Rhombus (2, -8) (3, 0) [3, -6, -8, 0, 7]" d="M 10.590170,17.653802 11.399187,17.066017 10.590170,16.478231 9.781153,17.066017 z"/>
<path class="thinRhombus" id="Rhombus (2, -8) (4, 7) [3, -5, -8, -1, 7]" d="M 11.708204,16.114960 11.399187,15.163904 10.590170,14.576118 10.899187,15.527175 z"/>
<path class="thickRhombus" id="Rhombus (2, -8) (3, -1) [3, -5, -8, -1, 6]" d="M 11.399187,15.163904 12.208204,14.576118 11.399187,13.988333 10.590170,14.576118 z"/>
<path class="thickRhombus" id="Rhombus (2, -8) (3, -2) [4, -4, -8, -2, 6]" d="M 13.517221,13.625062 14.326238,13.037277 13.517221,12.449491 12.708204,13.037277 z"/>
<path class="thinRhombus" id="Rhombus (2, -8) (4, 6) [4, -4, -8, -3, 6]" d="M 14.326238,13.037277 14.017221,12.086220 13.208204,11.498435 13.517221,12.449491 z"/>
<path class="thickRhombus" id="Rhombus (2, -8) (3, -3) [4, -3, -8, -3, 5]" d="M 14.326238,11.135164 15.135255,10.547378 14.326238,9.959593 13.517221,10.547378 z"/>
<path class="thickRhombus" id="Rhombus (2, -8) (3, -4) [5, -2, -8, -4, 5]" d="M 16.444272,9.596322 17.253289,9.008537 16.444272,8.420751 15.635255,9.008537 z"/>
<path class="thinRhombus" id="Rhombus (2, -8) (4, 5) [5, -2, -8, -5, 5]" d="M 17.253289,9.008537 16.944272,8.057480 16.135255,7.469695 16.444272,8.420751 z"/>
<path class="thickRhombus" id="Rhombus (2, -8) (3, -5) [6, -1, -8, -5, 4]" d="M 18.253289,7.106424 19.062306,6.518638 18.253289,5.930853 17.444272,6.518638 z"/>
<path class="thinRhombus" id="Rhombus (2, -8) (4, 4) [6, 0, -8, -6, 4]" d="M 19.371323,5.567582 19.062306,4.616525 18.253289,4.028740 18.562306,4.979797 z"/>
<path class="thickRhombus" id="Rhombus (2, -8) (3, -6) [6, 0, -8, -6, 3]" d="M 19.062306,4.616525 19.871323,4.028740 19.062306,3.440955 18.253289,4.028740 z"/>
<path class="thickRhombus" id="Rhombus (2, -7) (3, 2) [1, -7, -7, 2, 7]" d="M 5.854102,19.192644 6.663119,18.604858 5.854102,18.017073 5.045085,18.604858 z"/>
<path class="thickRhombus" id="Rhombus (2, -7) (3, 1) [1, -6, -7, 1, 7]" d="M 6.972136,17.653802 7.781153,17.066017 6.972136,16.478231 6.163119,17.066017 z"/>
<path class="thinRhombus" id="Rhombus (2, -7) (4, 7) [1, -6, -7, 0, 7]" d="M 7.781153,17.066017 7.472136,16.114960 6.663119,15.527175 6.972136,16.478231 z"/>
<path class="thickRhombus" id="Rhombus (2, -7) (3, 0) [2, -5, -7, 0, 6]" d="M 8.781153,15.163904 9.590170,14.576118 8.781153,13.988333 7.972136,14.576118 z"/>
<path class="thinRhombus" id="Rhombus (2, -7) (4, 6) [2, -5, -7, -1, 6]" d="M 9.590170,14.576118 9.281153,13.625062 8.472136,13.037277 8.781153,13.988333 z"/>
<path class="thickRhombus" id="Rhombus (2, -7) (3, -1) [3, -4, -7, -1, 5]" d="M 10.590170,12.674005 11.399187,12.086220 10.590170,11.498435 9.781153,12.086220 z"/>
<path class="thickRhombus" id="Rhombus (2, -7) (3, -2) [3, -3, -7, -2, 5]" d="M 11.708204,11.135164 12.517221,10.547378 11.708204,9.959593 10.899187,10.547378 z"/>
<path class="thinRhombus" id="Rhombus (2, -7) (4, 5) [3, -3, -7, -3, 5]" d="M 12.517221,10.547378 12.208204,9.596322 11.399187,9.008537 11.708204,9.959593 z"/>
<path class="thickRhombus" id="Rhombus (2, -7) (3, -3) [4, -2, -7, -3, 4]" d="M 13.517221,8.645265 14.326238,8.057480 13.517221,7.469695 12.708204,8.057480 z"/>
<path class="thickRhombus" id="Rhombus (2, -7) (3, -4) [4, -1, -7, -4, 4]" d="M 14.635255,7.106424 15.444272,6.518638 14.635255,5.930853 13.826238,6.518638 z"/>
<path class="thinRhombus" id="Rhombus (2, -7) (4, 4) [4, -1, -7, -5, 4]" d="M 15.444272,6.518638 15.135255,5.567582 14.326238,4.979797 14.635255,5.930853 z"/>
<path class="thickRhombus" id="Rhombus (2, -7) (3, -5) [5, 0, -7, -5, 3]" d="M 16.444272,4.616525 17.253289,4.028740 16.444272,3.440955 15.635255,4.028740 z"/>
<path class="thinRhombus" id="Rhombus (2, -7) (4, 3) [5, 0, -7, -6, 3]" d="M 17.253289,4.028740 16.944272,3.077684 16.135255,2.489898 16.444272,3.440955 z"/>
<path class="thickRhombus" id="Rhombus (2, -7) (3, -6) [6, 1, -7, -6, 2]" d="M 18.253289,2.126627 19.062306,1.538842 18.253289,0.951057 17.444272,1.538842 z"/>
<path class="thickRhombus" id="Rhombus (2, -7) (3, -7) [6, 2, -7, -7, 2]" d="M 19.371323,0.587785 20.180340,0.000000 19.371323,-0.587785 18.562306,0.000000 z"/>
<path class="thickRhombus" id="Rhombus (2, -6) (3, 3) [-1, -8, -6, 3, 7]" d="M 1.927051,20.143700 2.736068,19.555915 1.927051,18.968130 1.118034,19.555915 z"/>
<path class="thinRhombus" id="Rhombus (2, -6) (4, 7) [0, -7, -6, 2, 7]" d="M 4.045085,18.604858 3.736068,17.653802 2.927051,17.066017 3.236068,18.017073 z"/>
<path class="thickRhombus" id="Rhombus (2, -6) (3, 2) [0, -7, -6, 2, 6]" d="M 3.736068,17.653802 4.545085,17.066017 3.736068,16.478231 2.927051,17.066017 z"/>
<path class="thickRhombus" id="Rhombus (2, -6) (3, 1) [1, -6, -6, 1, 6]" d="M 5.854102,16.114960 6.663119,15.527175 5.854102,14.939390 5.045085,15.527175 z"/>
<path class="thinRhombus" id="Rhombus (2, -6) (4, 6) [1, -6, -6, 0, 6]" d="M 6.663119,15.527175 6.354102,14.576118 5.545085,13.988333 5.854102,14.939390 z"/>
<path class="thickRhombus" id="Rhombus (2, -6) (3, 0) [1, -5, -6, 0, 5]" d="M 6.663119,13.625062 7.472136,13.037277 6.663119,12.449491 5.854102,13.037277 z"/>
<path class="thinRhombus" id="Rhombus (2, -6) (4, 5) [2, -4, -6, -1, 5]" d="M 8.781153,12.086220 8.472136,11.135164 7.663119,10.547378 7.972136,11.498435 z"/>
<path class="thickRhombus" id="Rhombus (2, -6) (3, -1) [2, -4, -6, -1, 4]" d="M 8.472136,11.135164 9.281153,10.547378 8.472136,9.959593 7.663119,10.547378 z"/>
<path class="thickRhombus" id="Rhombus (2, -6) (3, -2) [3, -3, -6, -2, 4]" d="M 10.590170,9.596322 11.399187,9.008537 10.590170,8.420751 9.781153,9.008537 z"/>
<path class="thinRhombus" id="Rhombus (2, -6) (4, 4) [3, -2, -6, -3, 4]" d="M 11.708204,8.057480 11.399187,7.106424 10.590170,6.518638 10.899187,7.469695 z"/>
<path class="thickRhombus" id="Rhombus (2, -6) (3, -3) [3, -2, -6, -3, 3]" d="M 11.399187,7.106424 12.208204,6.518638 11.399187,5.930853 10.590170,6.518638 z"/>
<path class="thickRhombus" id="Rhombus (2, -6) (3, -4) [4, -1, -6, -4, 3]" d="M 13.517221,5.567582 14.326238,4.979797 13.517221,4.392011 12.708204,4.979797 z"/>
<path class="thinRhombus" id="Rhombus (2, -6) (4, 3) [4, -1, -6, -5, 3]" d="M 14.326238,4.979797 14.017221,4.028740 13.208204,3.440955 13.517221,4.392011 z"/>
<path class="thickRhombus" id="Rhombus (2, -6) (3, -5) [4, 0, -6, -5, 2]" d="M 14.326238,3.077684 15.135255,2.489898 14.326238,1.902113 13.517221,2.489898 z"/>
<path class="thinRhombus" id="Rhombus (2, -6) (4, 2) [5, 1, -6, -6, 2]" d="M 16.444272,1.538842 16.135255,0.587785 15.326238,0.000000 15.635255,0.951057 z"/>
<path class="thickRhombus" id="Rhombus (2, -6) (3, -6) [5, 1, -6, -6, 1]" d="M 16.135255,0.587785 16.944272,0.000000 16.135255,-0.587785 15.326238,0.000000 z"/>
<path class="thickRhombus" id="Rhombus (2, -5) (3, 3) [-1, -7, -5, 3, 6]" d="M 1.118034,17.653802 1.927051,17.066017 1.118034,16.478231 0.309017,17.066017 z"/>
<path class="thinRhombus" id="Rhombus (2, -5) (4, 6) [-1, -7, -5, 2, 6]" d="M 1.927051,17.066017 1.618034,16.114960 0.809017,15.527175 1.118034,16.478231 z"/>
<path class="thickRhombus" id="Rhombus (2, -5) (3, 2) [-1, -6, -5, 2, 5]" d="M 1.927051,15.163904 2.736068,14.576118 1.927051,13.988333 1.118034,14.576118 z"/>
<path class="thickRhombus" id="Rhombus (2, -5) (3, 1) [0, -5, -5, 1, 5]" d="M 4.045085,13.625062 4.854102,13.037277 4.045085,12.449491 3.236068,13.037277 z"/>
<path class="thinRhombus" id="Rhombus (2, -5) (4, 5) [0, -5, -5, 0, 5]" d="M 4.854102,13.037277 4.545085,12.086220 3.736068,11.498435 4.045085,12.449491 z"/>
<path class="thickRhombus" id="Rhombus (2, -5) (3, 0) [1, -4, -5, 0, 4]" d="M 5.854102,11.135164 6.663119,10.547378 5.854102,9.959593 5.045085,10.547378 z"/>
<path class="thinRhombus" id="Rhombus (2, -5) (4, 4) [1, -3, -5, -1, 4]" d="M 6.972136,9.596322 6.663119,8.645265 5.854102,8.057480 6.163119,9.008537 z"/>
<path class="thickRhombus" id="Rhombus (2, -5) (3, -1) [1, -3, -5, -1, 3]" d="M 6.663119,8.645265 7.472136,8.057480 6.663119,7.469695 5.854102,8.057480 z"/>
<path class="thickRhombus" id="Rhombus (2, -5) (3, -2) [2, -2, -5, -2, 3]" d="M 8.781153,7.106424 9.590170,6.518638 8.781153,5.930853 7.972136,6.518638 z"/>
<path class="thinRhombus" id="Rhombus (2, -5) (4, 3) [2, -2, -5, -3, 3]" d="M 9.590170,6.518638 9.281153,5.567582 8.472136,4.979797 8.781153,5.930853 z"/>
<path class="thickRhombus" id="Rhombus (2, -5) (3, -3) [3, -1, -5, -3, 2]" d="M 10.590170,4.616525 11.399187,4.028740 10.590170,3.440955 9.781153,4.028740 z"/>
<path class="thickRhombus" id="Rhombus (2, -5) (3, -4) [3, 0, -5, -4, 2]" d="M 11.708204,3.077684 12.517221,2.489898 11.708204,1.902113 10.899187,2.489898 z"/>
<path class="thinRhombus" id="Rhombus (2, -5) (4, 2) [3, 0, -5, -5, 2]" d="M 12.517221,2.489898 12.208204,1.538842 11.399187,0.951057 11.708204,1.902113 z"/>
<path class="thickRhombus" id="Rhombus (2, -5) (3, -5) [4, 1, -5, -5, 1]" d="M 13.517221,0.587785 14.326238,0.000000 13.517221,-0.587785 12.708204,0.000000 z"/>
<path class="thinRhombus" id="Rhombus (2, -4) (4, 5) [-1, -6, -4, 2, 5]" d="M 1.118034,14.576118 0.809017,13.625062 -0.000000,13.037277 0.309017,13.988333 z"/>
<path class="thickRhombus" id="Rhombus (2, -4) (3, 2) [-1, -6, -4, 2, 4]" d="M 0.809017,13.625062 1.618034,13.037277 0.809017,12.449491 -0.000000,13.037277 z"/>
<path class="thickRhombus" id="Rhombus (2, -4) (3, 1) [-1, -5, -4, 1, 4]" d="M 1.927051,12.086220 2.736068,11.498435 1.927051,10.910650 1.118034,11.498435 z"/>
<path class="thinRhombus" id="Rhombus (2, -4) (4, 4) [0, -4, -4, 0, 4]" d="M 4.045085,10.547378 3.736068,9.596322 2.927051,9.008537 3.236068,9.959593 z"/>
<path class="thickRhombus" id="Rhombus (2, -4) (3, 0) [0, -4, -4, 0, 3]" d="M 3.736068,9.596322 4.545085,9.008537 3.736068,8.420751 2.927051,9.008537 z"/>
<path class="thinRhombus" id="Rhombus (2, -4) (4, 3) [1, -3, -4, -1, 3]" d="M 5.854102,8.057480 5.545085,7.106424 4.736068,6.518638 5.045085,7.469695 z"/>
<path class="thickRhombus" id="Rhombus (2, -4) (3, -1) [1, -3, -4, -1, 2]" d="M 5.545085,7.106424 6.354102,6.518638 5.545085,5.930853 4.736068,6.518638 z"/>
<path class="thickRhombus" id="Rhombus (2, -4) (3, -2) [1, -2, -4, -2, 2]" d="M 6.663119,5.567582 7.472136,4.979797 6.663119,4.392011 5.854102,4.979797 z"/>
<path class="thinRhombus" id="Rhombus (2, -4) (4, 2) [2, -1, -4, -3, 2]" d="M 8.781153,4.028740 8.472136,3.077684 7.663119,2.489898 7.972136,3.440955 z"/>
<path class="thickRhombus" id="Rhombus (2, -4) (3, -3) [2, -1, -4, -3, 1]" d="M 8.472136,3.077684 9.281153,2.489898 8.472136,1.902113 7.663119,2.489898 z"/>
<path class="thickRhombus" id="Rhombus (2, -4) (3, -4) [3, 0, -4, -4, 1]" d="M 10.590170,1.538842 11.399187,0.951057 10.590170,0.363271 9.781153,0.951057 z"/>
<path class="thinRhombus" id="Rhombus (2, -4) (4, 1) [3, 0, -4, -5, 1]" d="M 11.399187,0.951057 11.090170,0.000000 10.281153,-0.587785 10.590170,0.363271 z"/>
<path class="thickRhombus" id="Rhombus (2, -3) (3, 1) [-1, -4, -3, 1, 3]" d="M 1.118034,9.596322 1.927051,9.008537 1.118034,8.420751 0.309017,9.008537 z"/>
<path class="thinRhombus" id="Rhombus (2, -3) (4, 3) [-1, -4, -3, 0, 3]" d="M 1.927051,9.008537 1.618034,8.057480 0.809017,7.469695 1.118034,8.420751 z"/>
<path class="thickRhombus" id="Rhombus (2, -3) (3, 0) [-1, -3, -3, 0, 2]" d="M 1.927051,7.106424 2.736068,6.518638 1.927051,5.930853 1.118034,6.518638 z"/>
<path class="thinRhombus" id="Rhombus (2, -3) (4, 2) [0, -2, -3, -1, 2]" d="M 4.045085,5.567582 3.736068,4.616525 2.927051,4.028740 3.236068,4.979797 z"/>
<path class="thickRhombus" id="Rhombus (2, -3) (3, -1) [0, -2, -3, -1, 1]" d="M 3.736068,4.616525 4.545085,4.028740 3.736068,3.440955 2.927051,4.028740 z"/>
<path class="thickRhombus" id="Rhombus (2, -3) (3, -2) [1, -1, -3, -2, 1]" d="M 5.854102,3.077684 6.663119,2.489898 5.854102,1.902113 5.045085,2.489898 z"/>
<path class="thinRhombus" id="Rhombus (2, -3) (4, 1) [1, -1, -3, -3, 1]" d="M 6.663119,2.489898 6.354102,1.538842 5.545085,0.951057 5.854102,1.902113 z"/>
<path class="thickRhombus" id="Rhombus (2, -3) (3, -3) [1, 0, -3, -3, 0]" d="M 6.663119,0.587785 7.472136,0.000000 6.663119,-0.587785 5.854102,0.000000 z"/>
<path class="thickRhombus" id="Rhombus (2, -2) (3, 0) [-1, -2, -2, 0, 1]" d="M 1.118034,4.616525 1.927051,4.028740 1.118034,3.440955 0.309017,4.028740 z"/>
<path class="thinRhombus" id="Rhombus (2, -2) (4, 1) [-1, -2, -2, -1, 1]" d="M 1.927051,4.028740 1.618034,3.077684 0.809017,2.489898 1.118034,3.440955 z"/>
<path class="thickRhombus" id="Rhombus (2, -2) (3, -1) [-1, -1, -2, -1, 0]" d="M 1.927051,2.126627 2.736068,1.538842 1.927051,0.951057 1.118034,1.538842 z"/>
<path class="thickRhombus" id="Rhombus (2, -2) (3, -2) [0, 0, -2, -2, 0]" d="M 4.045085,0.587785 4.854102,0.000000 4.045085,-0.587785 3.236068,0.000000 z"/>
<path class="thinRhombus" id="Rhombus (2, -1) (4, 0) [-1, -1, -1, -1, 0]" d="M 1.118034,1.538842 0.809017,0.587785 0.000000,0.000000 0.309017,0.951057 z"/>
<path class="thickRhombus" id="Rhombus (2, -1) (3, -1) [-1, -1, -1, -1, -1]" d="M 0.809017,0.587785 1.618034,0.000000 0.809017,-0.587785 0.000000,0.000000 z"/>
<path class="thickRhombus" id="Rhombus (3, -6) (4, 4) [6, 0, -9, -6, 4]" d="M 20.180340,4.979797 19.871323,4.028740 19.062306,4.616525 19.371323,5.567582 z"/>
<path class="thickRhombus" id="Rhombus (3, -6) (4, 3) [6, 0, -8, -6, 3]" d="M 19.062306,3.440955 18.753289,2.489898 17.944272,3.077684 18.253289,4.028740 z"/>
<path class="thickRhombus" id="Rhombus (3, -6) (4, 2) [5, 1, -7, -6, 2]" d="M 17.253289,0.951057 16.944272,0.000000 16.135255,0.587785 16.444272,1.538842 z"/>
<path class="thickRhombus" id="Rhombus (3, -5) (4, 5) [6, -1, -9, -5, 5]" d="M 19.371323,7.469695 19.062306,6.518638 18.253289,7.106424 18.562306,8.057480 z"/>
<path class="thickRhombus" id="Rhombus (3, -5) (4, 4) [5, -1, -8, -5, 4]" d="M 17.253289,5.930853 16.944272,4.979797 16.135255,5.567582 16.444272,6.518638 z"/>
<path class="thickRhombus" id="Rhombus (3, -5) (4, 3) [5, 0, -7, -5, 3]" d="M 16.444272,3.440955 16.135255,2.489898 15.326238,3.077684 15.635255,4.028740 z"/>
<path class="thickRhombus" id="Rhombus (3, -5) (4, 2) [4, 0, -6, -5, 2]" d="M 14.326238,1.902113 14.017221,0.951057 13.208204,1.538842 13.517221,2.489898 z"/>
<path class="thickRhombus" id="Rhombus (3, -4) (4, 7) [6, -3, -10, -4, 7]" d="M 19.371323,12.449491 19.062306,11.498435 18.253289,12.086220 18.562306,13.037277 z"/>
<path class="thickRhombus" id="Rhombus (3, -4) (4, 6) [6, -3, -9, -4, 6]" d="M 18.253289,10.910650 17.944272,9.959593 17.135255,10.547378 17.444272,11.498435 z"/>
<path class="thickRhombus" id="Rhombus (3, -4) (4, 5) [5, -2, -8, -4, 5]" d="M 16.444272,8.420751 16.135255,7.469695 15.326238,8.057480 15.635255,9.008537 z"/>
<path class="thickRhombus" id="Rhombus (3, -4) (4, 4) [4, -1, -7, -4, 4]" d="M 14.635255,5.930853 14.326238,4.979797 13.517221,5.567582 13.826238,6.518638 z"/>
<path class="thickRhombus" id="Rhombus (3, -4) (4, 3) [4, -1, -6, -4, 3]" d="M 13.517221,4.392011 13.208204,3.440955 12.399187,4.028740 12.708204,4.979797 z"/>
<path class="thickRhombus" id="Rhombus (3, -4) (4, 2) [3, 0, -5, -4, 2]" d="M 11.708204,1.902113 11.399187,0.951057 10.590170,1.538842 10.899187,2.489898 z"/>
<path class="thickRhombus" id="Rhombus (3, -4) (4, 1) [3, 0, -4, -4, 1]" d="M 10.590170,0.363271 10.281153,-0.587785 9.472136,0.000000 9.781153,0.951057 z"/>
<path class="thickRhombus" id="Rhombus (3, -3) (4, 9) [6, -5, -12, -3, 9]" d="M 20.180340,18.017073 19.871323,17.066017 19.062306,17.653802 19.371323,18.604858 z"/>
<path class="thickRhombus" id="Rhombus (3, -3) (4, 8) [6, -4, -11, -3, 8]" d="M 19.371323,15.527175 19.062306,14.576118 18.253289,15.163904 18.562306,16.114960 z"/>
<path class="thickRhombus" id="Rhombus (3, -3) (4, 7) [5, -4, -10, -3, 7]" d="M 17.253289,13.988333 16.944272,13.037277 16.135255,13.625062 16.444272,14.576118 z"/>
<path class="thickRhombus" id="Rhombus (3, -3) (4, 6) [5, -3, -9, -3, 6]" d="M 16.444272,11.498435 16.135255,10.547378 15.326238,11.135164 15.635255,12.086220 z"/>
<path class="thickRhombus" id="Rhombus (3, -3) (4, 5) [4, -3, -8, -3, 5]" d="M 14.326238,9.959593 14.017221,9.008537 13.208204,9.596322 13.517221,10.547378 z"/>
<path class="thickRhombus" id="Rhombus (3, -3) (4, 4) [3, -2, -7, -3, 4]" d="M 12.517221,7.469695 12.208204,6.518638 11.399187,7.106424 11.708204,8.057480 z"/>
<path class="thickRhombus" id="Rhombus (3, -3) (4, 3) [3, -1, -6, -3, 3]" d="M 11.708204,4.979797 11.399187,4.028740 10.590170,4.616525 10.899187,5.567582 z"/>
<path class="thickRhombus" id="Rhombus (3, -3) (4, 2) [2, -1, -5, -3, 2]" d="M 9.590170,3.440955 9.281153,2.489898 8.472136,3.077684 8.781153,4.028740 z"/>
<path class="thickRhombus" id="Rhombus (3, -3) (4, 1) [2, 0, -4, -3, 1]" d="M 8.781153,0.951057 8.472136,0.000000 7.663119,0.587785 7.972136,1.538842 z"/>
<path class="thickRhombus" id="Rhombus (3, -2) (4, 9) [5, -6, -11, -2, 9]" d="M 17.253289,18.968130 16.944272,18.017073 16.135255,18.604858 16.444272,19.555915 z"/>
<path class="thickRhombus" id="Rhombus (3, -2) (4, 8) [5, -5, -10, -2, 8]" d="M 16.444272,16.478231 16.135255,15.527175 15.326238,16.114960 15.635255,17.066017 z"/>
<path class="thickRhombus" id="Rhombus (3, -2) (4, 7) [4, -4, -9, -2, 7]" d="M 14.635255,13.988333 14.326238,13.037277 13.517221,13.625062 13.826238,14.576118 z"/>
<path class="thickRhombus" id="Rhombus (3, -2) (4, 6) [4, -4, -8, -2, 6]" d="M 13.517221,12.449491 13.208204,11.498435 12.399187,12.086220 12.708204,13.037277 z"/>
<path class="thickRhombus" id="Rhombus (3, -2) (4, 5) [3, -3, -7, -2, 5]" d="M 11.708204,9.959593 11.399187,9.008537 10.590170,9.596322 10.899187,10.547378 z"/>
<path class="thickRhombus" id="Rhombus (3, -2) (4, 4) [2, -3, -6, -2, 4]" d="M 9.590170,8.420751 9.281153,7.469695 8.472136,8.057480 8.781153,9.008537 z"/>
<path class="thickRhombus" id="Rhombus (3, -2) (4, 3) [2, -2, -5, -2, 3]" d="M 8.781153,5.930853 8.472136,4.979797 7.663119,5.567582 7.972136,6.518638 z"/>
<path class="thickRhombus" id="Rhombus (3, -2) (4, 2) [1, -1, -4, -2, 2]" d="M 6.972136,3.440955 6.663119,2.489898 5.854102,3.077684 6.163119,4.028740 z"/>
<path class="thickRhombus" id="Rhombus (3, -2) (4, 1) [1, -1, -3, -2, 1]" d="M 5.854102,1.902113 5.545085,0.951057 4.736068,1.538842 5.045085,2.489898 z"/>
<path class="thickRhombus" id="Rhombus (3, -1) (4, 9) [4, -6, -11, -1, 9]" d="M 15.444272,19.555915 15.135255,18.604858 14.326238,19.192644 14.635255,20.143700 z"/>
<path class="thickRhombus" id="Rhombus (3, -1) (4, 8) [4, -6, -10, -1, 8]" d="M 14.326238,18.017073 14.017221,17.066017 13.208204,17.653802 13.517221,18.604858 z"/>
<path class="thickRhombus" id="Rhombus (3, -1) (4, 7) [3, -5, -9, -1, 7]" d="M 12.517221,15.527175 12.208204,14.576118 11.399187,15.163904 11.708204,16.114960 z"/>
<path class="thickRhombus" id="Rhombus (3, -1) (4, 6) [3, -4, -8, -1, 6]" d="M 11.708204,13.037277 11.399187,12.086220 10.590170,12.674005 10.899187,13.625062 z"/>
<path class="thickRhombus" id="Rhombus (3, -1) (4, 5) [2, -4, -7, -1, 5]" d="M 9.590170,11.498435 9.281153,10.547378 8.472136,11.135164 8.781153,12.086220 z"/>
<path class="thickRhombus" id="Rhombus (3, -1) (4, 4) [1, -3, -6, -1, 4]" d="M 7.781153,9.008537 7.472136,8.057480 6.663119,8.645265 6.972136,9.596322 z"/>
<path class="thickRhombus" id="Rhombus (3, -1) (4, 3) [1, -3, -5, -1, 3]" d="M 6.663119,7.469695 6.354102,6.518638 5.545085,7.106424 5.854102,8.057480 z"/>
<path class="thickRhombus" id="Rhombus (3, -1) (4, 2) [0, -2, -4, -1, 2]" d="M 4.854102,4.979797 4.545085,4.028740 3.736068,4.616525 4.045085,5.567582 z"/>
<path class="thickRhombus" id="Rhombus (3, -1) (4, 1) [0, -1, -3, -1, 1]" d="M 4.045085,2.489898 3.736068,1.538842 2.927051,2.126627 3.236068,3.077684 z"/>
<path class="thickRhombus" id="Rhombus (3, -1) (4, 0) [-1, -1, -2, -1, 0]" d="M 1.927051,0.951057 1.618034,0.000000 0.809017,0.587785 1.118034,1.538842 z"/>
<path class="thickRhombus" id="Rhombus (3, 0) (4, 8) [3, -6, -9, 0, 8]" d="M 11.708204,18.017073 11.399187,17.066017 10.590170,17.653802 10.899187,18.604858 z"/>
<path class="thickRhombus" id="Rhombus (3, 0) (4, 7) [2, -6, -8, 0, 7]" d="M 9.590170,16.478231 9.281153,15.527175 8.472136,16.114960 8.781153,17.066017 z"/>
<path class="thickRhombus" id="Rhombus (3, 0) (4, 6) [2, -5, -7, 0, 6]" d="M 8.781153,13.988333 8.472136,13.037277 7.663119,13.625062 7.972136,14.576118 z"/>
<path class="thickRhombus" id="Rhombus (3, 0) (4, 5) [1, -4, -6, 0, 5]" d="M 6.972136,11.498435 6.663119,10.547378 5.854102,11.135164 6.163119,12.086220 z"/>
<path class="thickRhombus" id="Rhombus (3, 0) (4, 4) [0, -4, -5, 0, 4]" d="M 4.854102,9.959593 4.545085,9.008537 3.736068,9.596322 4.045085,10.547378 z"/>
<path class="thickRhombus" id="Rhombus (3, 0) (4, 3) [0, -3, -4, 0, 3]" d="M 4.045085,7.469695 3.736068,6.518638 2.927051,7.106424 3.236068,8.057480 z"/>
<path class="thickRhombus" id="Rhombus (3, 0) (4, 2) [-1, -3, -3, 0, 2]" d="M 1.927051,5.930853 1.618034,4.979797 0.809017,5.567582 1.118034,6.518638 z"/>
<path class="thickRhombus" id="Rhombus (3, 0) (4, 1) [-1, -2, -2, 0, 1]" d="M 1.118034,3.440955 0.809017,2.489898 -0.000000,3.077684 0.309017,4.028740 z"/>
<path class="thickRhombus" id="Rhombus (3, 1) (4, 8) [2, -7, -8, 1, 8]" d="M 8.781153,18.968130 8.472136,18.017073 7.663119,18.604858 7.972136,19.555915 z"/>
<path class="thickRhombus" id="Rhombus (3, 1) (4, 7) [1, -6, -7, 1, 7]" d="M 6.972136,16.478231 6.663119,15.527175 5.854102,16.114960 6.163119,17.066017 z"/>
<path class="thickRhombus" id="Rhombus (3, 1) (4, 6) [1, -6, -6, 1, 6]" d="M 5.854102,14.939390 5.545085,13.988333 4.736068,14.576118 5.045085,15.527175 z"/>
<path class="thickRhombus" id="Rhombus (3, 1) (4, 5) [0, -5, -5, 1, 5]" d="M 4.045085,12.449491 3.736068,11.498435 2.927051,12.086220 3.236068,13.037277 z"/>
<path class="thickRhombus" id="Rhombus (3, 1) (4, 4) [-1, -4, -4, 1, 4]" d="M 2.236068,9.959593 1.927051,9.008537 1.118034,9.596322 1.427051,10.547378 z"/>
<path class="thickRhombus" id="Rhombus (3, 1) (4, 3) [-1, -4, -3, 1, 3]" d="M 1.118034,8.420751 0.809017,7.469695 -0.000000,8.057480 0.309017,9.008537 z"/>
<path class="thickRhombus" id="Rhombus (3, 2) (4, 7) [0, -7, -7, 2, 7]" d="M 4.854102,18.017073 4.545085,17.066017 3.736068,17.653802 4.045085,18.604858 z"/>
<path class="thickRhombus" id="Rhombus (3, 2) (4, 6) [0, -6, -6, 2, 6]" d="M 4.045085,15.527175 3.736068,14.576118 2.927051,15.163904 3.236068,16.114960 z"/>
<path class="thickRhombus" id="Rhombus (3, 2) (4, 5) [-1, -6, -5, 2, 5]" d="M 1.927051,13.988333 1.618034,13.037277 0.809017,13.625062 1.118034,14.576118 z"/>
<path class="thickRhombus" id="Rhombus (3, 3) (4, 7) [-1, -8, -6, 3, 7]" d="M 1.927051,18.968130 1.618034,18.017073 0.809017,18.604858 1.118034,19.555915 z"/>
<path class="thickRhombus" id="Rhombus (3, 3) (4, 6) [-1, -7, -5, 3, 6]" d="M 1.118034,16.478231 0.809017,15.527175 -0.000000,16.114960 0.309017,17.066017 z"/>
</svg>
