<svg width="21.902113mm" height="21.902113mm" viewBox="-0.951057 -0.951057 21.902113 21.902113">
<style><![CDATA[
rect.boundingBox {
    stroke: blue;
    stroke-width: .05;
    fill-opacity: 0;
    stroke-opacity: .5;
}
path.rhombusEdge {
    stroke: #000000;
    stroke-width: .01;
}
]]></style>
<path class="rhombusEdge" d="M 2.927051,0.951057 2.618034,0.000000 z"/>
<path class="rhombusEdge" d="M 2.618034,0.000000 1.618034,0.000000 z"/>
<path class="rhombusEdge" d="M 1.618034,0.000000 1.927051,0.951057 z"/>
<path class="rhombusEdge" d="M 1.927051,0.951057 2.927051,0.951057 z"/>
<path class="rhombusEdge" d="M 2.118034,1.538842 2.927051,0.951057 z"/>
<path class="rhombusEdge" d="M 1.927051,0.951057 1.118034,1.538842 z"/>
<path class="rhombusEdge" d="M 1.118034,1.538842 2.118034,1.538842 z"/>
<path class="rhombusEdge" d="M 1.118034,1.538842 0.809017,2.489898 z"/>
<path class="rhombusEdge" d="M 0.809017,2.489898 1.809017,2.489898 z"/>
<path class="rhombusEdge" d="M 1.809017,2.489898 2.118034,1.538842 z"/>
<path class="rhombusEdge" d="M 2.118034,3.440955 1.809017,2.489898 z"/>
<path class="rhombusEdge" d="M 0.809017,2.489898 1.118034,3.440955 z"/>
<path class="rhombusEdge" d="M 1.118034,3.440955 2.118034,3.440955 z"/>
<path class="rhombusEdge" d="M 1.118034,3.440955 1.927051,4.028740 z"/>
<path class="rhombusEdge" d="M 1.927051,4.028740 2.927051,4.028740 z"/>
<path class="rhombusEdge" d="M 2.927051,4.028740 2.118034,3.440955 z"/>
<path class="rhombusEdge" d="M 1.927051,4.028740 1.618034,4.979797 z"/>
<path class="rhombusEdge" d="M 1.618034,4.979797 2.618034,4.979797 z"/>
<path class="rhombusEdge" d="M 2.618034,4.979797 2.927051,4.028740 z"/>
<path class="rhombusEdge" d="M 1.809017,5.567582 2.618034,4.979797 z"/>
<path class="rhombusEdge" d="M 1.618034,4.979797 0.809017,5.567582 z"/>
<path class="rhombusEdge" d="M 0.809017,5.567582 1.809017,5.567582 z"/>
<path class="rhombusEdge" d="M 2.118034,6.518638 1.809017,5.567582 z"/>
<path class="rhombusEdge" d="M 0.809017,5.567582 1.118034,6.518638 z"/>
<path class="rhombusEdge" d="M 1.118034,6.518638 2.118034,6.518638 z"/>
<path class="rhombusEdge" d="M 1.118034,6.518638 0.809017,7.469695 z"/>
<path class="rhombusEdge" d="M 0.809017,7.469695 1.809017,7.469695 z"/>
<path class="rhombusEdge" d="M 1.809017,7.469695 2.118034,6.518638 z"/>
<path class="rhombusEdge" d="M 0.809017,7.469695 1.618034,8.057480 z"/>
<path class="rhombusEdge" d="M 1.618034,8.057480 2.618034,8.057480 z"/>
<path class="rhombusEdge" d="M 2.618034,8.057480 1.809017,7.469695 z"/>
<path class="rhombusEdge" d="M 2.927051,9.008537 2.618034,8.057480 z"/>
<path class="rhombusEdge" d="M 1.618034,8.057480 1.927051,9.008537 z"/>
<path class="rhombusEdge" d="M 1.927051,9.008537 2.927051,9.008537 z"/>
<path class="rhombusEdge" d="M 2.118034,9.596322 2.927051,9.008537 z"/>
<path class="rhombusEdge" d="M 1.927051,9.008537 1.118034,9.596322 z"/>
<path class="rhombusEdge" d="M 1.118034,9.596322 2.118034,9.596322 z"/>
<path class="rhombusEdge" d="M 1.118034,9.596322 0.809017,10.547378 z"/>
<path class="rhombusEdge" d="M 0.809017,10.547378 1.809017,10.547378 z"/>
<path class="rhombusEdge" d="M 1.809017,10.547378 2.118034,9.596322 z"/>
<path class="rhombusEdge" d="M 2.118034,11.498435 1.809017,10.547378 z"/>
<path class="rhombusEdge" d="M 0.809017,10.547378 1.118034,11.498435 z"/>
<path class="rhombusEdge" d="M 1.118034,11.498435 2.118034,11.498435 z"/>
<path class="rhombusEdge" d="M 1.118034,11.498435 0.809017,12.449491 z"/>
<path class="rhombusEdge" d="M 0.809017,12.449491 1.809017,12.449491 z"/>
<path class="rhombusEdge" d="M 1.809017,12.449491 2.118034,11.498435 z"/>
<path class="rhombusEdge" d="M 0.809017,12.449491 1.618034,13.037277 z"/>
<path class="rhombusEdge" d="M 1.618034,13.037277 2.618034,13.037277 z"/>
<path class="rhombusEdge" d="M 2.618034,13.037277 1.809017,12.449491 z"/>
<path class="rhombusEdge" d="M 1.809017,13.625062 2.618034,13.037277 z"/>
<path class="rhombusEdge" d="M 1.618034,13.037277 0.809017,13.625062 z"/>
<path class="rhombusEdge" d="M 0.809017,13.625062 1.809017,13.625062 z"/>
<path class="rhombusEdge" d="M 2.118034,14.576118 1.809017,13.625062 z"/>
<path class="rhombusEdge" d="M 0.809017,13.625062 1.118034,14.576118 z"/>
<path class="rhombusEdge" d="M 1.118034,14.576118 2.118034,14.576118 z"/>
<path class="rhombusEdge" d="M 1.118034,14.576118 0.809017,15.527175 z"/>
<path class="rhombusEdge" d="M 0.809017,15.527175 1.809017,15.527175 z"/>
<path class="rhombusEdge" d="M 1.809017,15.527175 2.118034,14.576118 z"/>
<path class="rhombusEdge" d="M 2.118034,16.478231 1.809017,15.527175 z"/>
<path class="rhombusEdge" d="M 0.809017,15.527175 1.118034,16.478231 z"/>
<path class="rhombusEdge" d="M 1.118034,16.478231 2.118034,16.478231 z"/>
<path class="rhombusEdge" d="M 1.118034,16.478231 1.927051,17.066017 z"/>
<path class="rhombusEdge" d="M 1.927051,17.066017 2.927051,17.066017 z"/>
<path class="rhombusEdge" d="M 2.927051,17.066017 2.118034,16.478231 z"/>
<path class="rhombusEdge" d="M 1.927051,17.066017 1.618034,18.017073 z"/>
<path class="rhombusEdge" d="M 1.618034,18.017073 2.618034,18.017073 z"/>
<path class="rhombusEdge" d="M 2.618034,18.017073 2.927051,17.066017 z"/>
<path class="rhombusEdge" d="M 1.809017,18.604858 2.618034,18.017073 z"/>
<path class="rhombusEdge" d="M 1.618034,18.017073 0.809017,18.604858 z"/>
<path class="rhombusEdge" d="M 0.809017,18.604858 1.809017,18.604858 z"/>
<path class="rhombusEdge" d="M 2.118034,19.555915 1.809017,18.604858 z"/>
<path class="rhombusEdge" d="M 0.809017,18.604858 1.118034,19.555915 z"/>
<path class="rhombusEdge" d="M 1.118034,19.555915 2.118034,19.555915 z"/>
<path class="rhombusEdge" d="M 3.927051,0.951057 4.736068,0.363271 z"/>
<path class="rhombusEdge" d="M 4.736068,0.363271 3.736068,0.363271 z"/>
<path class="rhombusEdge" d="M 3.736068,0.363271 2.927051,0.951057 z"/>
<path class="rhombusEdge" d="M 2.927051,0.951057 3.927051,0.951057 z"/>
<path class="rhombusEdge" d="M 2.927051,0.951057 3.736068,1.538842 z"/>
<path class="rhombusEdge" d="M 3.736068,1.538842 4.736068,1.538842 z"/>
<path class="rhombusEdge" d="M 4.736068,1.538842 3.927051,0.951057 z"/>
<path class="rhombusEdge" d="M 3.736068,1.538842 3.427051,2.489898 z"/>
<path class="rhombusEdge" d="M 3.427051,2.489898 4.427051,2.489898 z"/>
<path class="rhombusEdge" d="M 4.427051,2.489898 4.736068,1.538842 z"/>
<path class="rhombusEdge" d="M 4.736068,3.440955 4.427051,2.489898 z"/>
<path class="rhombusEdge" d="M 3.427051,2.489898 3.736068,3.440955 z"/>
<path class="rhombusEdge" d="M 3.736068,3.440955 4.736068,3.440955 z"/>
<path class="rhombusEdge" d="M 3.927051,4.028740 4.736068,3.440955 z"/>
<path class="rhombusEdge" d="M 3.736068,3.440955 2.927051,4.028740 z"/>
<path class="rhombusEdge" d="M 2.927051,4.028740 3.927051,4.028740 z"/>
<path class="rhombusEdge" d="M 2.927051,4.028740 3.736068,4.616525 z"/>
<path class="rhombusEdge" d="M 3.736068,4.616525 4.736068,4.616525 z"/>
<path class="rhombusEdge" d="M 4.736068,4.616525 3.927051,4.028740 z"/>
<path class="rhombusEdge" d="M 3.736068,4.616525 3.427051,5.567582 z"/>
<path class="rhombusEdge" d="M 3.427051,5.567582 4.427051,5.567582 z"/>
<path class="rhombusEdge" d="M 4.427051,5.567582 4.736068,4.616525 z"/>
<path class="rhombusEdge" d="M 4.736068,6.518638 4.427051,5.567582 z"/>
<path class="rhombusEdge" d="M 3.427051,5.567582 3.736068,6.518638 z"/>
<path class="rhombusEdge" d="M 3.736068,6.518638 4.736068,6.518638 z"/>
<path class="rhombusEdge" d="M 3.736068,6.518638 3.427051,7.469695 z"/>
<path class="rhombusEdge" d="M 3.427051,7.469695 4.427051,7.469695 z"/>
<path class="rhombusEdge" d="M 4.427051,7.469695 4.736068,6.518638 z"/>
<path class="rhombusEdge" d="M 4.736068,8.420751 4.427051,7.469695 z"/>
<path class="rhombusEdge" d="M 3.427051,7.469695 3.736068,8.420751 z"/>
<path class="rhombusEdge" d="M 3.736068,8.420751 4.736068,8.420751 z"/>
<path class="rhombusEdge" d="M 3.927051,9.008537 4.736068,8.420751 z"/>
<path class="rhombusEdge" d="M 3.736068,8.420751 2.927051,9.008537 z"/>
<path class="rhombusEdge" d="M 2.927051,9.008537 3.927051,9.008537 z"/>
<path class="rhombusEdge" d="M 2.927051,9.008537 3.736068,9.596322 z"/>
<path class="rhombusEdge" d="M 3.736068,9.596322 4.736068,9.596322 z"/>
<path class="rhombusEdge" d="M 4.736068,9.596322 3.927051,9.008537 z"/>
<path class="rhombusEdge" d="M 3.736068,9.596322 3.427051,10.547378 z"/>
<path class="rhombusEdge" d="M 3.427051,10.547378 4.427051,10.547378 z"/>
<path class="rhombusEdge" d="M 4.427051,10.547378 4.736068,9.596322 z"/>
<path class="rhombusEdge" d="M 4.736068,11.498435 4.427051,10.547378 z"/>
<path class="rhombusEdge" d="M 3.427051,10.547378 3.736068,11.498435 z"/>
<path class="rhombusEdge" d="M 3.736068,11.498435 4.736068,11.498435 z"/>
<path class="rhombusEdge" d="M 3.927051,12.086220 4.736068,11.498435 z"/>
<path class="rhombusEdge" d="M 3.736068,11.498435 2.927051,12.086220 z"/>
<path class="rhombusEdge" d="M 2.927051,12.086220 3.927051,12.086220 z"/>
<path class="rhombusEdge" d="M 2.927051,12.086220 2.618034,13.037277 z"/>
<path class="rhombusEdge" d="M 2.618034,13.037277 3.618034,13.037277 z"/>
<path class="rhombusEdge" d="M 3.618034,13.037277 3.927051,12.086220 z"/>
<path class="rhombusEdge" d="M 3.927051,13.988333 3.618034,13.037277 z"/>
<path class="rhombusEdge" d="M 2.618034,13.037277 2.927051,13.988333 z"/>
<path class="rhombusEdge" d="M 2.927051,13.988333 3.927051,13.988333 z"/>
<path class="rhombusEdge" d="M 2.927051,13.988333 3.736068,14.576118 z"/>
<path class="rhombusEdge" d="M 3.736068,14.576118 4.736068,14.576118 z"/>
<path class="rhombusEdge" d="M 4.736068,14.576118 3.927051,13.988333 z"/>
<path class="rhombusEdge" d="M 3.736068,14.576118 3.427051,15.527175 z"/>
<path class="rhombusEdge" d="M 3.427051,15.527175 4.427051,15.527175 z"/>
<path class="rhombusEdge" d="M 4.427051,15.527175 4.736068,14.576118 z"/>
<path class="rhombusEdge" d="M 4.736068,16.478231 4.427051,15.527175 z"/>
<path class="rhombusEdge" d="M 3.427051,15.527175 3.736068,16.478231 z"/>
<path class="rhombusEdge" d="M 3.736068,16.478231 4.736068,16.478231 z"/>
<path class="rhombusEdge" d="M 3.927051,17.066017 4.736068,16.478231 z"/>
<path class="rhombusEdge" d="M 3.736068,16.478231 2.927051,17.066017 z"/>
<path class="rhombusEdge" d="M 2.927051,17.066017 3.927051,17.066017 z"/>
<path class="rhombusEdge" d="M 2.927051,17.066017 3.736068,17.653802 z"/>
<path class="rhombusEdge" d="M 3.736068,17.653802 4.736068,17.653802 z"/>
<path class="rhombusEdge" d="M 4.736068,17.653802 3.927051,17.066017 z"/>
<path class="rhombusEdge" d="M 3.736068,17.653802 3.427051,18.604858 z"/>
<path class="rhombusEdge" d="M 3.427051,18.604858 4.427051,18.604858 z"/>
<path class="rhombusEdge" d="M 4.427051,18.604858 4.736068,17.653802 z"/>
<path class="rhombusEdge" d="M 4.736068,19.555915 4.427051,18.604858 z"/>
<path class="rhombusEdge" d="M 3.427051,18.604858 3.736068,19.555915 z"/>
<path class="rhombusEdge" d="M 3.736068,19.555915 4.736068,19.555915 z"/>
<path class="rhombusEdge" d="M 5.854102,0.000000 5.545085,0.951057 z"/>
<path class="rhombusEdge" d="M 5.545085,0.951057 6.545085,0.951057 z"/>
<path class="rhombusEdge" d="M 6.545085,0.951057 6.854102,0.000000 z"/>
<path class="rhombusEdge" d="M 6.854102,0.000000 5.854102,0.000000 z"/>
<path class="rhombusEdge" d="M 5.545085,0.951057 6.354102,1.538842 z"/>
<path class="rhombusEdge" d="M 6.354102,1.538842 7.354102,1.538842 z"/>
<path class="rhombusEdge" d="M 7.354102,1.538842 6.545085,0.951057 z"/>
<path class="rhombusEdge" d="M 7.663119,2.489898 7.354102,1.538842 z"/>
<path class="rhombusEdge" d="M 6.354102,1.538842 6.663119,2.489898 z"/>
<path class="rhombusEdge" d="M 6.663119,2.489898 7.663119,2.489898 z"/>
<path class="rhombusEdge" d="M 6.663119,2.489898 6.354102,3.440955 z"/>
<path class="rhombusEdge" d="M 6.354102,3.440955 7.354102,3.440955 z"/>
<path class="rhombusEdge" d="M 7.354102,3.440955 7.663119,2.489898 z"/>
<path class="rhombusEdge" d="M 6.545085,4.028740 7.354102,3.440955 z"/>
<path class="rhombusEdge" d="M 6.354102,3.440955 5.545085,4.028740 z"/>
<path class="rhombusEdge" d="M 5.545085,4.028740 6.545085,4.028740 z"/>
<path class="rhombusEdge" d="M 6.854102,4.979797 6.545085,4.028740 z"/>
<path class="rhombusEdge" d="M 5.545085,4.028740 5.854102,4.979797 z"/>
<path class="rhombusEdge" d="M 5.854102,4.979797 6.854102,4.979797 z"/>
<path class="rhombusEdge" d="M 5.854102,4.979797 6.663119,5.567582 z"/>
<path class="rhombusEdge" d="M 6.663119,5.567582 7.663119,5.567582 z"/>
<path class="rhombusEdge" d="M 7.663119,5.567582 6.854102,4.979797 z"/>
<path class="rhombusEdge" d="M 6.663119,5.567582 6.354102,6.518638 z"/>
<path class="rhombusEdge" d="M 6.354102,6.518638 7.354102,6.518638 z"/>
<path class="rhombusEdge" d="M 7.354102,6.518638 7.663119,5.567582 z"/>
<path class="rhombusEdge" d="M 7.663119,7.469695 7.354102,6.518638 z"/>
<path class="rhombusEdge" d="M 6.354102,6.518638 6.663119,7.469695 z"/>
<path class="rhombusEdge" d="M 6.663119,7.469695 7.663119,7.469695 z"/>
<path class="rhombusEdge" d="M 6.854102,8.057480 7.663119,7.469695 z"/>
<path class="rhombusEdge" d="M 6.663119,7.469695 5.854102,8.057480 z"/>
<path class="rhombusEdge" d="M 5.854102,8.057480 6.854102,8.057480 z"/>
<path class="rhombusEdge" d="M 5.854102,8.057480 5.545085,9.008537 z"/>
<path class="rhombusEdge" d="M 5.545085,9.008537 6.545085,9.008537 z"/>
<path class="rhombusEdge" d="M 6.545085,9.008537 6.854102,8.057480 z"/>
<path class="rhombusEdge" d="M 6.854102,9.959593 6.545085,9.008537 z"/>
<path class="rhombusEdge" d="M 5.545085,9.008537 5.854102,9.959593 z"/>
<path class="rhombusEdge" d="M 5.854102,9.959593 6.854102,9.959593 z"/>
<path class="rhombusEdge" d="M 5.854102,9.959593 6.663119,10.547378 z"/>
<path class="rhombusEdge" d="M 6.663119,10.547378 7.663119,10.547378 z"/>
<path class="rhombusEdge" d="M 7.663119,10.547378 6.854102,9.959593 z"/>
<path class="rhombusEdge" d="M 6.663119,10.547378 6.354102,11.498435 z"/>
<path class="rhombusEdge" d="M 6.354102,11.498435 7.354102,11.498435 z"/>
<path class="rhombusEdge" d="M 7.354102,11.498435 7.663119,10.547378 z"/>
<path class="rhombusEdge" d="M 6.545085,12.086220 7.354102,11.498435 z"/>
<path class="rhombusEdge" d="M 6.354102,11.498435 5.545085,12.086220 z"/>
<path class="rhombusEdge" d="M 5.545085,12.086220 6.545085,12.086220 z"/>
<path class="rhombusEdge" d="M 6.854102,13.037277 6.545085,12.086220 z"/>
<path class="rhombusEdge" d="M 5.545085,12.086220 5.854102,13.037277 z"/>
<path class="rhombusEdge" d="M 5.854102,13.037277 6.854102,13.037277 z"/>
<path class="rhombusEdge" d="M 5.854102,13.037277 5.545085,13.988333 z"/>
<path class="rhombusEdge" d="M 5.545085,13.988333 6.545085,13.988333 z"/>
<path class="rhombusEdge" d="M 6.545085,13.988333 6.854102,13.037277 z"/>
<path class="rhombusEdge" d="M 5.545085,13.988333 6.354102,14.576118 z"/>
<path class="rhombusEdge" d="M 6.354102,14.576118 7.354102,14.576118 z"/>
<path class="rhombusEdge" d="M 7.354102,14.576118 6.545085,13.988333 z"/>
<path class="rhombusEdge" d="M 7.663119,15.527175 7.354102,14.576118 z"/>
<path class="rhombusEdge" d="M 6.354102,14.576118 6.663119,15.527175 z"/>
<path class="rhombusEdge" d="M 6.663119,15.527175 7.663119,15.527175 z"/>
<path class="rhombusEdge" d="M 6.854102,16.114960 7.663119,15.527175 z"/>
<path class="rhombusEdge" d="M 6.663119,15.527175 5.854102,16.114960 z"/>
<path class="rhombusEdge" d="M 5.854102,16.114960 6.854102,16.114960 z"/>
<path class="rhombusEdge" d="M 5.854102,16.114960 5.545085,17.066017 z"/>
<path class="rhombusEdge" d="M 5.545085,17.066017 6.545085,17.066017 z"/>
<path class="rhombusEdge" d="M 6.545085,17.066017 6.854102,16.114960 z"/>
<path class="rhombusEdge" d="M 6.854102,18.017073 6.545085,17.066017 z"/>
<path class="rhombusEdge" d="M 5.545085,17.066017 5.854102,18.017073 z"/>
<path class="rhombusEdge" d="M 5.854102,18.017073 6.854102,18.017073 z"/>
<path class="rhombusEdge" d="M 5.854102,18.017073 6.663119,18.604858 z"/>
<path class="rhombusEdge" d="M 6.663119,18.604858 7.663119,18.604858 z"/>
<path class="rhombusEdge" d="M 7.663119,18.604858 6.854102,18.017073 z"/>
<path class="rhombusEdge" d="M 6.663119,18.604858 6.354102,19.555915 z"/>
<path class="rhombusEdge" d="M 6.354102,19.555915 7.354102,19.555915 z"/>
<path class="rhombusEdge" d="M 7.354102,19.555915 7.663119,18.604858 z"/>
<path class="rhombusEdge" d="M 9.781153,0.951057 9.472136,0.000000 z"/>
<path class="rhombusEdge" d="M 9.472136,0.000000 8.472136,0.000000 z"/>
<path class="rhombusEdge" d="M 8.472136,0.000000 8.781153,0.951057 z"/>
<path class="rhombusEdge" d="M 8.781153,0.951057 9.781153,0.951057 z"/>
<path class="rhombusEdge" d="M 8.781153,0.951057 8.472136,1.902113 z"/>
<path class="rhombusEdge" d="M 8.472136,1.902113 9.472136,1.902113 z"/>
<path class="rhombusEdge" d="M 9.472136,1.902113 9.781153,0.951057 z"/>
<path class="rhombusEdge" d="M 8.472136,1.902113 9.281153,2.489898 z"/>
<path class="rhombusEdge" d="M 9.281153,2.489898 10.281153,2.489898 z"/>
<path class="rhombusEdge" d="M 10.281153,2.489898 9.472136,1.902113 z"/>
<path class="rhombusEdge" d="M 9.472136,3.077684 10.281153,2.489898 z"/>
<path class="rhombusEdge" d="M 9.281153,2.489898 8.472136,3.077684 z"/>
<path class="rhombusEdge" d="M 8.472136,3.077684 9.472136,3.077684 z"/>
<path class="rhombusEdge" d="M 9.781153,4.028740 9.472136,3.077684 z"/>
<path class="rhombusEdge" d="M 8.472136,3.077684 8.781153,4.028740 z"/>
<path class="rhombusEdge" d="M 8.781153,4.028740 9.781153,4.028740 z"/>
<path class="rhombusEdge" d="M 8.781153,4.028740 8.472136,4.979797 z"/>
<path class="rhombusEdge" d="M 8.472136,4.979797 9.472136,4.979797 z"/>
<path class="rhombusEdge" d="M 9.472136,4.979797 9.781153,4.028740 z"/>
<path class="rhombusEdge" d="M 9.781153,5.930853 9.472136,4.979797 z"/>
<path class="rhombusEdge" d="M 8.472136,4.979797 8.781153,5.930853 z"/>
<path class="rhombusEdge" d="M 8.781153,5.930853 9.781153,5.930853 z"/>
<path class="rhombusEdge" d="M 8.781153,5.930853 9.590170,6.518638 z"/>
<path class="rhombusEdge" d="M 9.590170,6.518638 10.590170,6.518638 z"/>
<path class="rhombusEdge" d="M 10.590170,6.518638 9.781153,5.930853 z"/>
<path class="rhombusEdge" d="M 9.590170,6.518638 9.281153,7.469695 z"/>
<path class="rhombusEdge" d="M 9.281153,7.469695 10.281153,7.469695 z"/>
<path class="rhombusEdge" d="M 10.281153,7.469695 10.590170,6.518638 z"/>
<path class="rhombusEdge" d="M 9.472136,8.057480 10.281153,7.469695 z"/>
<path class="rhombusEdge" d="M 9.281153,7.469695 8.472136,8.057480 z"/>
<path class="rhombusEdge" d="M 8.472136,8.057480 9.472136,8.057480 z"/>
<path class="rhombusEdge" d="M 9.781153,9.008537 9.472136,8.057480 z"/>
<path class="rhombusEdge" d="M 8.472136,8.057480 8.781153,9.008537 z"/>
<path class="rhombusEdge" d="M 8.781153,9.008537 9.781153,9.008537 z"/>
<path class="rhombusEdge" d="M 8.781153,9.008537 8.472136,9.959593 z"/>
<path class="rhombusEdge" d="M 8.472136,9.959593 9.472136,9.959593 z"/>
<path class="rhombusEdge" d="M 9.472136,9.959593 9.781153,9.008537 z"/>
<path class="rhombusEdge" d="M 8.472136,9.959593 9.281153,10.547378 z"/>
<path class="rhombusEdge" d="M 9.281153,10.547378 10.281153,10.547378 z"/>
<path class="rhombusEdge" d="M 10.281153,10.547378 9.472136,9.959593 z"/>
<path class="rhombusEdge" d="M 9.472136,11.135164 10.281153,10.547378 z"/>
<path class="rhombusEdge" d="M 9.281153,10.547378 8.472136,11.135164 z"/>
<path class="rhombusEdge" d="M 8.472136,11.135164 9.472136,11.135164 z"/>
<path class="rhombusEdge" d="M 9.781153,12.086220 9.472136,11.135164 z"/>
<path class="rhombusEdge" d="M 8.472136,11.135164 8.781153,12.086220 z"/>
<path class="rhombusEdge" d="M 8.781153,12.086220 9.781153,12.086220 z"/>
<path class="rhombusEdge" d="M 8.781153,12.086220 8.472136,13.037277 z"/>
<path class="rhombusEdge" d="M 8.472136,13.037277 9.472136,13.037277 z"/>
<path class="rhombusEdge" d="M 9.472136,13.037277 9.781153,12.086220 z"/>
<path class="rhombusEdge" d="M 9.781153,13.988333 9.472136,13.037277 z"/>
<path class="rhombusEdge" d="M 8.472136,13.037277 8.781153,13.988333 z"/>
<path class="rhombusEdge" d="M 8.781153,13.988333 9.781153,13.988333 z"/>
<path class="rhombusEdge" d="M 8.781153,13.988333 8.472136,14.939390 z"/>
<path class="rhombusEdge" d="M 8.472136,14.939390 9.472136,14.939390 z"/>
<path class="rhombusEdge" d="M 9.472136,14.939390 9.781153,13.988333 z"/>
<path class="rhombusEdge" d="M 8.472136,14.939390 9.281153,15.527175 z"/>
<path class="rhombusEdge" d="M 9.281153,15.527175 10.281153,15.527175 z"/>
<path class="rhombusEdge" d="M 10.281153,15.527175 9.472136,14.939390 z"/>
<path class="rhombusEdge" d="M 9.472136,16.114960 10.281153,15.527175 z"/>
<path class="rhombusEdge" d="M 9.281153,15.527175 8.472136,16.114960 z"/>
<path class="rhombusEdge" d="M 8.472136,16.114960 9.472136,16.114960 z"/>
<path class="rhombusEdge" d="M 9.781153,17.066017 9.472136,16.114960 z"/>
<path class="rhombusEdge" d="M 8.472136,16.114960 8.781153,17.066017 z"/>
<path class="rhombusEdge" d="M 8.781153,17.066017 9.781153,17.066017 z"/>
<path class="rhombusEdge" d="M 8.781153,17.066017 8.472136,18.017073 z"/>
<path class="rhombusEdge" d="M 8.472136,18.017073 9.472136,18.017073 z"/>
<path class="rhombusEdge" d="M 9.472136,18.017073 9.781153,17.066017 z"/>
<path class="rhombusEdge" d="M 8.472136,18.017073 9.281153,18.604858 z"/>
<path class="rhombusEdge" d="M 9.281153,18.604858 10.281153,18.604858 z"/>
<path class="rhombusEdge" d="M 10.281153,18.604858 9.472136,18.017073 z"/>
<path class="rhombusEdge" d="M 10.590170,19.555915 10.281153,18.604858 z"/>
<path class="rhombusEdge" d="M 9.281153,18.604858 9.590170,19.555915 z"/>
<path class="rhombusEdge" d="M 9.590170,19.555915 10.590170,19.555915 z"/>
<path class="rhombusEdge" d="M 9.781153,20.143700 10.590170,19.555915 z"/>
<path class="rhombusEdge" d="M 9.590170,19.555915 8.781153,20.143700 z"/>
<path class="rhombusEdge" d="M 8.781153,20.143700 9.781153,20.143700 z"/>
<path class="rhombusEdge" d="M 12.399187,0.951057 12.090170,0.000000 z"/>
<path class="rhombusEdge" d="M 12.090170,0.000000 11.090170,0.000000 z"/>
<path class="rhombusEdge" d="M 11.090170,0.000000 11.399187,0.951057 z"/>
<path class="rhombusEdge" d="M 11.399187,0.951057 12.399187,0.951057 z"/>
<path class="rhombusEdge" d="M 11.590170,1.538842 12.399187,0.951057 z"/>
<path class="rhombusEdge" d="M 11.399187,0.951057 10.590170,1.538842 z"/>
<path class="rhombusEdge" d="M 10.590170,1.538842 11.590170,1.538842 z"/>
<path class="rhombusEdge" d="M 10.590170,1.538842 10.281153,2.489898 z"/>
<path class="rhombusEdge" d="M 10.281153,2.489898 11.281153,2.489898 z"/>
<path class="rhombusEdge" d="M 11.281153,2.489898 11.590170,1.538842 z"/>
<path class="rhombusEdge" d="M 11.590170,3.440955 11.281153,2.489898 z"/>
<path class="rhombusEdge" d="M 10.281153,2.489898 10.590170,3.440955 z"/>
<path class="rhombusEdge" d="M 10.590170,3.440955 11.590170,3.440955 z"/>
<path class="rhombusEdge" d="M 10.590170,3.440955 11.399187,4.028740 z"/>
<path class="rhombusEdge" d="M 11.399187,4.028740 12.399187,4.028740 z"/>
<path class="rhombusEdge" d="M 12.399187,4.028740 11.590170,3.440955 z"/>
<path class="rhombusEdge" d="M 11.399187,4.028740 11.090170,4.979797 z"/>
<path class="rhombusEdge" d="M 11.090170,4.979797 12.090170,4.979797 z"/>
<path class="rhombusEdge" d="M 12.090170,4.979797 12.399187,4.028740 z"/>
<path class="rhombusEdge" d="M 12.399187,5.930853 12.090170,4.979797 z"/>
<path class="rhombusEdge" d="M 11.090170,4.979797 11.399187,5.930853 z"/>
<path class="rhombusEdge" d="M 11.399187,5.930853 12.399187,5.930853 z"/>
<path class="rhombusEdge" d="M 11.590170,6.518638 12.399187,5.930853 z"/>
<path class="rhombusEdge" d="M 11.399187,5.930853 10.590170,6.518638 z"/>
<path class="rhombusEdge" d="M 10.590170,6.518638 11.590170,6.518638 z"/>
<path class="rhombusEdge" d="M 10.590170,6.518638 11.399187,7.106424 z"/>
<path class="rhombusEdge" d="M 11.399187,7.106424 12.399187,7.106424 z"/>
<path class="rhombusEdge" d="M 12.399187,7.106424 11.590170,6.518638 z"/>
<path class="rhombusEdge" d="M 11.399187,7.106424 11.090170,8.057480 z"/>
<path class="rhombusEdge" d="M 11.090170,8.057480 12.090170,8.057480 z"/>
<path class="rhombusEdge" d="M 12.090170,8.057480 12.399187,7.106424 z"/>
<path class="rhombusEdge" d="M 12.399187,9.008537 12.090170,8.057480 z"/>
<path class="rhombusEdge" d="M 11.090170,8.057480 11.399187,9.008537 z"/>
<path class="rhombusEdge" d="M 11.399187,9.008537 12.399187,9.008537 z"/>
<path class="rhombusEdge" d="M 11.399187,9.008537 11.090170,9.959593 z"/>
<path class="rhombusEdge" d="M 11.090170,9.959593 12.090170,9.959593 z"/>
<path class="rhombusEdge" d="M 12.090170,9.959593 12.399187,9.008537 z"/>
<path class="rhombusEdge" d="M 11.281153,10.547378 12.090170,9.959593 z"/>
<path class="rhombusEdge" d="M 11.090170,9.959593 10.281153,10.547378 z"/>
<path class="rhombusEdge" d="M 10.281153,10.547378 11.281153,10.547378 z"/>
<path class="rhombusEdge" d="M 11.590170,11.498435 11.281153,10.547378 z"/>
<path class="rhombusEdge" d="M 10.281153,10.547378 10.590170,11.498435 z"/>
<path class="rhombusEdge" d="M 10.590170,11.498435 11.590170,11.498435 z"/>
<path class="rhombusEdge" d="M 10.590170,11.498435 11.399187,12.086220 z"/>
<path class="rhombusEdge" d="M 11.399187,12.086220 12.399187,12.086220 z"/>
<path class="rhombusEdge" d="M 12.399187,12.086220 11.590170,11.498435 z"/>
<path class="rhombusEdge" d="M 11.399187,12.086220 11.090170,13.037277 z"/>
<path class="rhombusEdge" d="M 11.090170,13.037277 12.090170,13.037277 z"/>
<path class="rhombusEdge" d="M 12.090170,13.037277 12.399187,12.086220 z"/>
<path class="rhombusEdge" d="M 12.399187,13.988333 12.090170,13.037277 z"/>
<path class="rhombusEdge" d="M 11.090170,13.037277 11.399187,13.988333 z"/>
<path class="rhombusEdge" d="M 11.399187,13.988333 12.399187,13.988333 z"/>
<path class="rhombusEdge" d="M 11.590170,14.576118 12.399187,13.988333 z"/>
<path class="rhombusEdge" d="M 11.399187,13.988333 10.590170,14.576118 z"/>
<path class="rhombusEdge" d="M 10.590170,14.576118 11.590170,14.576118 z"/>
<path class="rhombusEdge" d="M 10.590170,14.576118 10.281153,15.527175 z"/>
<path class="rhombusEdge" d="M 10.281153,15.527175 11.281153,15.527175 z"/>
<path class="rhombusEdge" d="M 11.281153,15.527175 11.590170,14.576118 z"/>
<path class="rhombusEdge" d="M 10.281153,15.527175 11.090170,16.114960 z"/>
<path class="rhombusEdge" d="M 11.090170,16.114960 12.090170,16.114960 z"/>
<path class="rhombusEdge" d="M 12.090170,16.114960 11.281153,15.527175 z"/>
<path class="rhombusEdge" d="M 12.399187,17.066017 12.090170,16.114960 z"/>
<path class="rhombusEdge" d="M 11.090170,16.114960 11.399187,17.066017 z"/>
<path class="rhombusEdge" d="M 11.399187,17.066017 12.399187,17.066017 z"/>
<path class="rhombusEdge" d="M 11.399187,17.066017 11.090170,18.017073 z"/>
<path class="rhombusEdge" d="M 11.090170,18.017073 12.090170,18.017073 z"/>
<path class="rhombusEdge" d="M 12.090170,18.017073 12.399187,17.066017 z"/>
<path class="rhombusEdge" d="M 12.399187,18.968130 12.090170,18.017073 z"/>
<path class="rhombusEdge" d="M 11.090170,18.017073 11.399187,18.968130 z"/>
<path class="rhombusEdge" d="M 11.399187,18.968130 12.399187,18.968130 z"/>
<path class="rhombusEdge" d="M 11.590170,19.555915 12.399187,18.968130 z"/>
<path class="rhombusEdge" d="M 11.399187,18.968130 10.590170,19.555915 z"/>
<path class="rhombusEdge" d="M 10.590170,19.555915 11.590170,19.555915 z"/>
<path class="rhombusEdge" d="M 10.590170,19.555915 11.399187,20.143700 z"/>
<path class="rhombusEdge" d="M 11.399187,20.143700 12.399187,20.143700 z"/>
<path class="rhombusEdge" d="M 12.399187,20.143700 11.590170,19.555915 z"/>
<path class="rhombusEdge" d="M 14.326238,0.000000 14.017221,0.951057 z"/>
<path class="rhombusEdge" d="M 14.017221,0.951057 15.017221,0.951057 z"/>
<path class="rhombusEdge" d="M 15.017221,0.951057 15.326238,0.000000 z"/>
<path class="rhombusEdge" d="M 15.326238,0.000000 14.326238,0.000000 z"/>
<path class="rhombusEdge" d="M 14.208204,1.538842 15.017221,0.951057 z"/>
<path class="rhombusEdge" d="M 14.017221,0.951057 13.208204,1.538842 z"/>
<path class="rhombusEdge" d="M 13.208204,1.538842 14.208204,1.538842 z"/>
<path class="rhombusEdge" d="M 14.517221,2.489898 14.208204,1.538842 z"/>
<path class="rhombusEdge" d="M 13.208204,1.538842 13.517221,2.489898 z"/>
<path class="rhombusEdge" d="M 13.517221,2.489898 14.517221,2.489898 z"/>
<path class="rhombusEdge" d="M 13.517221,2.489898 13.208204,3.440955 z"/>
<path class="rhombusEdge" d="M 13.208204,3.440955 14.208204,3.440955 z"/>
<path class="rhombusEdge" d="M 14.208204,3.440955 14.517221,2.489898 z"/>
<path class="rhombusEdge" d="M 13.208204,3.440955 14.017221,4.028740 z"/>
<path class="rhombusEdge" d="M 14.017221,4.028740 15.017221,4.028740 z"/>
<path class="rhombusEdge" d="M 15.017221,4.028740 14.208204,3.440955 z"/>
<path class="rhombusEdge" d="M 15.326238,4.979797 15.017221,4.028740 z"/>
<path class="rhombusEdge" d="M 14.017221,4.028740 14.326238,4.979797 z"/>
<path class="rhombusEdge" d="M 14.326238,4.979797 15.326238,4.979797 z"/>
<path class="rhombusEdge" d="M 14.517221,5.567582 15.326238,4.979797 z"/>
<path class="rhombusEdge" d="M 14.326238,4.979797 13.517221,5.567582 z"/>
<path class="rhombusEdge" d="M 13.517221,5.567582 14.517221,5.567582 z"/>
<path class="rhombusEdge" d="M 13.517221,5.567582 13.208204,6.518638 z"/>
<path class="rhombusEdge" d="M 13.208204,6.518638 14.208204,6.518638 z"/>
<path class="rhombusEdge" d="M 14.208204,6.518638 14.517221,5.567582 z"/>
<path class="rhombusEdge" d="M 14.517221,7.469695 14.208204,6.518638 z"/>
<path class="rhombusEdge" d="M 13.208204,6.518638 13.517221,7.469695 z"/>
<path class="rhombusEdge" d="M 13.517221,7.469695 14.517221,7.469695 z"/>
<path class="rhombusEdge" d="M 13.517221,7.469695 14.326238,8.057480 z"/>
<path class="rhombusEdge" d="M 14.326238,8.057480 15.326238,8.057480 z"/>
<path class="rhombusEdge" d="M 15.326238,8.057480 14.517221,7.469695 z"/>
<path class="rhombusEdge" d="M 14.326238,8.057480 14.017221,9.008537 z"/>
<path class="rhombusEdge" d="M 14.017221,9.008537 15.017221,9.008537 z"/>
<path class="rhombusEdge" d="M 15.017221,9.008537 15.326238,8.057480 z"/>
<path class="rhombusEdge" d="M 14.208204,9.596322 15.017221,9.008537 z"/>
<path class="rhombusEdge" d="M 14.017221,9.008537 13.208204,9.596322 z"/>
<path class="rhombusEdge" d="M 13.208204,9.596322 14.208204,9.596322 z"/>
<path class="rhombusEdge" d="M 14.517221,10.547378 14.208204,9.596322 z"/>
<path class="rhombusEdge" d="M 13.208204,9.596322 13.517221,10.547378 z"/>
<path class="rhombusEdge" d="M 13.517221,10.547378 14.517221,10.547378 z"/>
<path class="rhombusEdge" d="M 13.517221,10.547378 13.208204,11.498435 z"/>
<path class="rhombusEdge" d="M 13.208204,11.498435 14.208204,11.498435 z"/>
<path class="rhombusEdge" d="M 14.208204,11.498435 14.517221,10.547378 z"/>
<path class="rhombusEdge" d="M 13.208204,11.498435 14.017221,12.086220 z"/>
<path class="rhombusEdge" d="M 14.017221,12.086220 15.017221,12.086220 z"/>
<path class="rhombusEdge" d="M 15.017221,12.086220 14.208204,11.498435 z"/>
<path class="rhombusEdge" d="M 15.326238,13.037277 15.017221,12.086220 z"/>
<path class="rhombusEdge" d="M 14.017221,12.086220 14.326238,13.037277 z"/>
<path class="rhombusEdge" d="M 14.326238,13.037277 15.326238,13.037277 z"/>
<path class="rhombusEdge" d="M 14.326238,13.037277 14.017221,13.988333 z"/>
<path class="rhombusEdge" d="M 14.017221,13.988333 15.017221,13.988333 z"/>
<path class="rhombusEdge" d="M 15.017221,13.988333 15.326238,13.037277 z"/>
<path class="rhombusEdge" d="M 14.208204,14.576118 15.017221,13.988333 z"/>
<path class="rhombusEdge" d="M 14.017221,13.988333 13.208204,14.576118 z"/>
<path class="rhombusEdge" d="M 13.208204,14.576118 14.208204,14.576118 z"/>
<path class="rhombusEdge" d="M 14.517221,15.527175 14.208204,14.576118 z"/>
<path class="rhombusEdge" d="M 13.208204,14.576118 13.517221,15.527175 z"/>
<path class="rhombusEdge" d="M 13.517221,15.527175 14.517221,15.527175 z"/>
<path class="rhombusEdge" d="M 13.517221,15.527175 13.208204,16.478231 z"/>
<path class="rhombusEdge" d="M 13.208204,16.478231 14.208204,16.478231 z"/>
<path class="rhombusEdge" d="M 14.208204,16.478231 14.517221,15.527175 z"/>
<path class="rhombusEdge" d="M 13.208204,16.478231 14.017221,17.066017 z"/>
<path class="rhombusEdge" d="M 14.017221,17.066017 15.017221,17.066017 z"/>
<path class="rhombusEdge" d="M 15.017221,17.066017 14.208204,16.478231 z"/>
<path class="rhombusEdge" d="M 15.326238,18.017073 15.017221,17.066017 z"/>
<path class="rhombusEdge" d="M 14.017221,17.066017 14.326238,18.017073 z"/>
<path class="rhombusEdge" d="M 14.326238,18.017073 15.326238,18.017073 z"/>
<path class="rhombusEdge" d="M 14.517221,18.604858 15.326238,18.017073 z"/>
<path class="rhombusEdge" d="M 14.326238,18.017073 13.517221,18.604858 z"/>
<path class="rhombusEdge" d="M 13.517221,18.604858 14.517221,18.604858 z"/>
<path class="rhombusEdge" d="M 13.517221,18.604858 13.208204,19.555915 z"/>
<path class="rhombusEdge" d="M 13.208204,19.555915 14.208204,19.555915 z"/>
<path class="rhombusEdge" d="M 14.208204,19.555915 14.517221,18.604858 z"/>
<path class="rhombusEdge" d="M 17.135255,0.587785 17.944272,0.000000 z"/>
<path class="rhombusEdge" d="M 17.944272,0.000000 16.944272,0.000000 z"/>
<path class="rhombusEdge" d="M 16.944272,0.000000 16.135255,0.587785 z"/>
<path class="rhombusEdge" d="M 16.135255,0.587785 17.135255,0.587785 z"/>
<path class="rhombusEdge" d="M 17.444272,1.538842 17.135255,0.587785 z"/>
<path class="rhombusEdge" d="M 16.135255,0.587785 16.444272,1.538842 z"/>
<path class="rhombusEdge" d="M 16.444272,1.538842 17.444272,1.538842 z"/>
<path class="rhombusEdge" d="M 16.444272,1.538842 16.135255,2.489898 z"/>
<path class="rhombusEdge" d="M 16.135255,2.489898 17.135255,2.489898 z"/>
<path class="rhombusEdge" d="M 17.135255,2.489898 17.444272,1.538842 z"/>
<path class="rhombusEdge" d="M 17.444272,3.440955 17.135255,2.489898 z"/>
<path class="rhombusEdge" d="M 16.135255,2.489898 16.444272,3.440955 z"/>
<path class="rhombusEdge" d="M 16.444272,3.440955 17.444272,3.440955 z"/>
<path class="rhombusEdge" d="M 16.444272,3.440955 16.135255,4.392011 z"/>
<path class="rhombusEdge" d="M 16.135255,4.392011 17.135255,4.392011 z"/>
<path class="rhombusEdge" d="M 17.135255,4.392011 17.444272,3.440955 z"/>
<path class="rhombusEdge" d="M 16.135255,4.392011 16.944272,4.979797 z"/>
<path class="rhombusEdge" d="M 16.944272,4.979797 17.944272,4.979797 z"/>
<path class="rhombusEdge" d="M 17.944272,4.979797 17.135255,4.392011 z"/>
<path class="rhombusEdge" d="M 17.135255,5.567582 17.944272,4.979797 z"/>
<path class="rhombusEdge" d="M 16.944272,4.979797 16.135255,5.567582 z"/>
<path class="rhombusEdge" d="M 16.135255,5.567582 17.135255,5.567582 z"/>
<path class="rhombusEdge" d="M 17.444272,6.518638 17.135255,5.567582 z"/>
<path class="rhombusEdge" d="M 16.135255,5.567582 16.444272,6.518638 z"/>
<path class="rhombusEdge" d="M 16.444272,6.518638 17.444272,6.518638 z"/>
<path class="rhombusEdge" d="M 16.444272,6.518638 16.135255,7.469695 z"/>
<path class="rhombusEdge" d="M 16.135255,7.469695 17.135255,7.469695 z"/>
<path class="rhombusEdge" d="M 17.135255,7.469695 17.444272,6.518638 z"/>
<path class="rhombusEdge" d="M 16.135255,7.469695 16.944272,8.057480 z"/>
<path class="rhombusEdge" d="M 16.944272,8.057480 17.944272,8.057480 z"/>
<path class="rhombusEdge" d="M 17.944272,8.057480 17.135255,7.469695 z"/>
<path class="rhombusEdge" d="M 17.135255,8.645265 17.944272,8.057480 z"/>
<path class="rhombusEdge" d="M 16.944272,8.057480 16.135255,8.645265 z"/>
<path class="rhombusEdge" d="M 16.135255,8.645265 17.135255,8.645265 z"/>
<path class="rhombusEdge" d="M 17.444272,9.596322 17.135255,8.645265 z"/>
<path class="rhombusEdge" d="M 16.135255,8.645265 16.444272,9.596322 z"/>
<path class="rhombusEdge" d="M 16.444272,9.596322 17.444272,9.596322 z"/>
<path class="rhombusEdge" d="M 16.444272,9.596322 16.135255,10.547378 z"/>
<path class="rhombusEdge" d="M 16.135255,10.547378 17.135255,10.547378 z"/>
<path class="rhombusEdge" d="M 17.135255,10.547378 17.444272,9.596322 z"/>
<path class="rhombusEdge" d="M 17.444272,11.498435 17.135255,10.547378 z"/>
<path class="rhombusEdge" d="M 16.135255,10.547378 16.444272,11.498435 z"/>
<path class="rhombusEdge" d="M 16.444272,11.498435 17.444272,11.498435 z"/>
<path class="rhombusEdge" d="M 16.444272,11.498435 16.135255,12.449491 z"/>
<path class="rhombusEdge" d="M 16.135255,12.449491 17.135255,12.449491 z"/>
<path class="rhombusEdge" d="M 17.135255,12.449491 17.444272,11.498435 z"/>
<path class="rhombusEdge" d="M 16.135255,12.449491 16.944272,13.037277 z"/>
<path class="rhombusEdge" d="M 16.944272,13.037277 17.944272,13.037277 z"/>
<path class="rhombusEdge" d="M 17.944272,13.037277 17.135255,12.449491 z"/>
<path class="rhombusEdge" d="M 17.135255,13.625062 17.944272,13.037277 z"/>
<path class="rhombusEdge" d="M 16.944272,13.037277 16.135255,13.625062 z"/>
<path class="rhombusEdge" d="M 16.135255,13.625062 17.135255,13.625062 z"/>
<path class="rhombusEdge" d="M 17.444272,14.576118 17.135255,13.625062 z"/>
<path class="rhombusEdge" d="M 16.135255,13.625062 16.444272,14.576118 z"/>
<path class="rhombusEdge" d="M 16.444272,14.576118 17.444272,14.576118 z"/>
<path class="rhombusEdge" d="M 16.444272,14.576118 16.135255,15.527175 z"/>
<path class="rhombusEdge" d="M 16.135255,15.527175 17.135255,15.527175 z"/>
<path class="rhombusEdge" d="M 17.135255,15.527175 17.444272,14.576118 z"/>
<path class="rhombusEdge" d="M 17.444272,16.478231 17.135255,15.527175 z"/>
<path class="rhombusEdge" d="M 16.135255,15.527175 16.444272,16.478231 z"/>
<path class="rhombusEdge" d="M 16.444272,16.478231 17.444272,16.478231 z"/>
<path class="rhombusEdge" d="M 16.444272,16.478231 16.135255,17.429288 z"/>
<path class="rhombusEdge" d="M 16.135255,17.429288 17.135255,17.429288 z"/>
<path class="rhombusEdge" d="M 17.135255,17.429288 17.444272,16.478231 z"/>
<path class="rhombusEdge" d="M 16.135255,17.429288 16.944272,18.017073 z"/>
<path class="rhombusEdge" d="M 16.944272,18.017073 17.944272,18.017073 z"/>
<path class="rhombusEdge" d="M 17.944272,18.017073 17.135255,17.429288 z"/>
<path class="rhombusEdge" d="M 17.135255,18.604858 17.944272,18.017073 z"/>
<path class="rhombusEdge" d="M 16.944272,18.017073 16.135255,18.604858 z"/>
<path class="rhombusEdge" d="M 16.135255,18.604858 17.135255,18.604858 z"/>
<path class="rhombusEdge" d="M 17.444272,19.555915 17.135255,18.604858 z"/>
<path class="rhombusEdge" d="M 16.135255,18.604858 16.444272,19.555915 z"/>
<path class="rhombusEdge" d="M 16.444272,19.555915 17.444272,19.555915 z"/>
<path class="rhombusEdge" d="M 19.253289,0.951057 18.944272,0.000000 z"/>
<path class="rhombusEdge" d="M 18.944272,0.000000 17.944272,0.000000 z"/>
<path class="rhombusEdge" d="M 17.944272,0.000000 18.253289,0.951057 z"/>
<path class="rhombusEdge" d="M 18.253289,0.951057 19.253289,0.951057 z"/>
<path class="rhombusEdge" d="M 18.253289,0.951057 19.062306,1.538842 z"/>
<path class="rhombusEdge" d="M 19.062306,1.538842 20.062306,1.538842 z"/>
<path class="rhombusEdge" d="M 20.062306,1.538842 19.253289,0.951057 z"/>
<path class="rhombusEdge" d="M 19.062306,1.538842 18.753289,2.489898 z"/>
<path class="rhombusEdge" d="M 18.753289,2.489898 19.753289,2.489898 z"/>
<path class="rhombusEdge" d="M 19.753289,2.489898 20.062306,1.538842 z"/>
<path class="rhombusEdge" d="M 20.062306,3.440955 19.753289,2.489898 z"/>
<path class="rhombusEdge" d="M 18.753289,2.489898 19.062306,3.440955 z"/>
<path class="rhombusEdge" d="M 19.062306,3.440955 20.062306,3.440955 z"/>
<path class="rhombusEdge" d="M 19.253289,4.028740 20.062306,3.440955 z"/>
<path class="rhombusEdge" d="M 19.062306,3.440955 18.253289,4.028740 z"/>
<path class="rhombusEdge" d="M 18.253289,4.028740 19.253289,4.028740 z"/>
<path class="rhombusEdge" d="M 18.253289,4.028740 17.944272,4.979797 z"/>
<path class="rhombusEdge" d="M 17.944272,4.979797 18.944272,4.979797 z"/>
<path class="rhombusEdge" d="M 18.944272,4.979797 19.253289,4.028740 z"/>
<path class="rhombusEdge" d="M 17.944272,4.979797 18.753289,5.567582 z"/>
<path class="rhombusEdge" d="M 18.753289,5.567582 19.753289,5.567582 z"/>
<path class="rhombusEdge" d="M 19.753289,5.567582 18.944272,4.979797 z"/>
<path class="rhombusEdge" d="M 20.062306,6.518638 19.753289,5.567582 z"/>
<path class="rhombusEdge" d="M 18.753289,5.567582 19.062306,6.518638 z"/>
<path class="rhombusEdge" d="M 19.062306,6.518638 20.062306,6.518638 z"/>
<path class="rhombusEdge" d="M 19.062306,6.518638 18.753289,7.469695 z"/>
<path class="rhombusEdge" d="M 18.753289,7.469695 19.753289,7.469695 z"/>
<path class="rhombusEdge" d="M 19.753289,7.469695 20.062306,6.518638 z"/>
<path class="rhombusEdge" d="M 18.944272,8.057480 19.753289,7.469695 z"/>
<path class="rhombusEdge" d="M 18.753289,7.469695 17.944272,8.057480 z"/>
<path class="rhombusEdge" d="M 17.944272,8.057480 18.944272,8.057480 z"/>
<path class="rhombusEdge" d="M 19.253289,9.008537 18.944272,8.057480 z"/>
<path class="rhombusEdge" d="M 17.944272,8.057480 18.253289,9.008537 z"/>
<path class="rhombusEdge" d="M 18.253289,9.008537 19.253289,9.008537 z"/>
<path class="rhombusEdge" d="M 18.253289,9.008537 19.062306,9.596322 z"/>
<path class="rhombusEdge" d="M 19.062306,9.596322 20.062306,9.596322 z"/>
<path class="rhombusEdge" d="M 20.062306,9.596322 19.253289,9.008537 z"/>
<path class="rhombusEdge" d="M 19.062306,9.596322 18.753289,10.547378 z"/>
<path class="rhombusEdge" d="M 18.753289,10.547378 19.753289,10.547378 z"/>
<path class="rhombusEdge" d="M 19.753289,10.547378 20.062306,9.596322 z"/>
<path class="rhombusEdge" d="M 20.062306,11.498435 19.753289,10.547378 z"/>
<path class="rhombusEdge" d="M 18.753289,10.547378 19.062306,11.498435 z"/>
<path class="rhombusEdge" d="M 19.062306,11.498435 20.062306,11.498435 z"/>
<path class="rhombusEdge" d="M 19.253289,12.086220 20.062306,11.498435 z"/>
<path class="rhombusEdge" d="M 19.062306,11.498435 18.253289,12.086220 z"/>
<path class="rhombusEdge" d="M 18.253289,12.086220 19.253289,12.086220 z"/>
<path class="rhombusEdge" d="M 18.253289,12.086220 17.944272,13.037277 z"/>
<path class="rhombusEdge" d="M 17.944272,13.037277 18.944272,13.037277 z"/>
<path class="rhombusEdge" d="M 18.944272,13.037277 19.253289,12.086220 z"/>
<path class="rhombusEdge" d="M 19.253289,13.988333 18.944272,13.037277 z"/>
<path class="rhombusEdge" d="M 17.944272,13.037277 18.253289,13.988333 z"/>
<path class="rhombusEdge" d="M 18.253289,13.988333 19.253289,13.988333 z"/>
<path class="rhombusEdge" d="M 18.253289,13.988333 19.062306,14.576118 z"/>
<path class="rhombusEdge" d="M 19.062306,14.576118 20.062306,14.576118 z"/>
<path class="rhombusEdge" d="M 20.062306,14.576118 19.253289,13.988333 z"/>
<path class="rhombusEdge" d="M 19.062306,14.576118 18.753289,15.527175 z"/>
<path class="rhombusEdge" d="M 18.753289,15.527175 19.753289,15.527175 z"/>
<path class="rhombusEdge" d="M 19.753289,15.527175 20.062306,14.576118 z"/>
<path class="rhombusEdge" d="M 20.062306,16.478231 19.753289,15.527175 z"/>
<path class="rhombusEdge" d="M 18.753289,15.527175 19.062306,16.478231 z"/>
<path class="rhombusEdge" d="M 19.062306,16.478231 20.062306,16.478231 z"/>
<path class="rhombusEdge" d="M 19.253289,17.066017 20.062306,16.478231 z"/>
<path class="rhombusEdge" d="M 19.062306,16.478231 18.253289,17.066017 z"/>
<path class="rhombusEdge" d="M 18.253289,17.066017 19.253289,17.066017 z"/>
<path class="rhombusEdge" d="M 18.253289,17.066017 17.944272,18.017073 z"/>
<path class="rhombusEdge" d="M 17.944272,18.017073 18.944272,18.017073 z"/>
<path class="rhombusEdge" d="M 18.944272,18.017073 19.253289,17.066017 z"/>
<path class="rhombusEdge" d="M 17.944272,18.017073 18.753289,18.604858 z"/>
<path class="rhombusEdge" d="M 18.753289,18.604858 19.753289,18.604858 z"/>
<path class="rhombusEdge" d="M 19.753289,18.604858 18.944272,18.017073 z"/>
<path class="rhombusEdge" d="M 20.062306,19.555915 19.753289,18.604858 z"/>
<path class="rhombusEdge" d="M 18.753289,18.604858 19.062306,19.555915 z"/>
<path class="rhombusEdge" d="M 19.062306,19.555915 20.062306,19.555915 z"/>
<path class="rhombusEdge" d="M -0.309017,18.968130 0.500000,19.555915 z"/>
<path class="rhombusEdge" d="M 0.500000,19.555915 0.809017,18.604858 z"/>
<path class="rhombusEdge" d="M 0.809017,18.604858 -0.000000,18.017073 z"/>
<path class="rhombusEdge" d="M -0.000000,18.017073 -0.309017,18.968130 z"/>
<path class="rhombusEdge" d="M 0.500000,19.555915 0.809017,20.506972 z"/>
<path class="rhombusEdge" d="M 0.809017,20.506972 1.118034,19.555915 z"/>
<path class="rhombusEdge" d="M -0.000000,18.017073 0.809017,17.429288 z"/>
<path class="rhombusEdge" d="M 0.809017,17.429288 1.118034,16.478231 z"/>
<path class="rhombusEdge" d="M 1.118034,16.478231 0.309017,17.066017 z"/>
<path class="rhombusEdge" d="M 0.309017,17.066017 -0.000000,18.017073 z"/>
<path class="rhombusEdge" d="M 0.809017,17.429288 1.618034,18.017073 z"/>
<path class="rhombusEdge" d="M 2.618034,18.017073 3.427051,18.604858 z"/>
<path class="rhombusEdge" d="M 5.045085,18.604858 4.736068,17.653802 z"/>
<path class="rhombusEdge" d="M 4.736068,19.555915 5.045085,18.604858 z"/>
<path class="rhombusEdge" d="M 4.736068,19.555915 5.545085,18.968130 z"/>
<path class="rhombusEdge" d="M 5.545085,18.968130 5.854102,18.017073 z"/>
<path class="rhombusEdge" d="M 5.854102,18.017073 5.045085,18.604858 z"/>
<path class="rhombusEdge" d="M 5.545085,18.968130 6.354102,19.555915 z"/>
<path class="rhombusEdge" d="M 7.972136,19.555915 7.663119,18.604858 z"/>
<path class="rhombusEdge" d="M 7.354102,19.555915 7.663119,20.506972 z"/>
<path class="rhombusEdge" d="M 7.663119,20.506972 7.972136,19.555915 z"/>
<path class="rhombusEdge" d="M -0.309017,13.988333 0.500000,14.576118 z"/>
<path class="rhombusEdge" d="M 0.500000,14.576118 0.809017,13.625062 z"/>
<path class="rhombusEdge" d="M 0.809017,13.625062 -0.000000,13.037277 z"/>
<path class="rhombusEdge" d="M -0.000000,13.037277 -0.309017,13.988333 z"/>
<path class="rhombusEdge" d="M 0.500000,14.576118 0.809017,15.527175 z"/>
<path class="rhombusEdge" d="M 1.809017,15.527175 2.618034,14.939390 z"/>
<path class="rhombusEdge" d="M 2.618034,14.939390 2.927051,13.988333 z"/>
<path class="rhombusEdge" d="M 2.927051,13.988333 2.118034,14.576118 z"/>
<path class="rhombusEdge" d="M 2.618034,14.939390 3.427051,15.527175 z"/>
<path class="rhombusEdge" d="M 5.045085,15.527175 4.736068,14.576118 z"/>
<path class="rhombusEdge" d="M 4.736068,16.478231 5.045085,15.527175 z"/>
<path class="rhombusEdge" d="M 4.736068,16.478231 5.545085,17.066017 z"/>
<path class="rhombusEdge" d="M 5.854102,16.114960 5.045085,15.527175 z"/>
<path class="rhombusEdge" d="M 6.545085,17.066017 7.354102,16.478231 z"/>
<path class="rhombusEdge" d="M 7.354102,16.478231 7.663119,15.527175 z"/>
<path class="rhombusEdge" d="M 7.354102,16.478231 8.163119,17.066017 z"/>
<path class="rhombusEdge" d="M 8.163119,17.066017 8.472136,16.114960 z"/>
<path class="rhombusEdge" d="M 8.472136,16.114960 7.663119,15.527175 z"/>
<path class="rhombusEdge" d="M 8.163119,17.066017 8.472136,18.017073 z"/>
<path class="rhombusEdge" d="M 10.281153,18.604858 10.590170,17.653802 z"/>
<path class="rhombusEdge" d="M 10.590170,17.653802 9.781153,17.066017 z"/>
<path class="rhombusEdge" d="M 10.281153,18.604858 11.090170,18.017073 z"/>
<path class="rhombusEdge" d="M 11.399187,17.066017 10.590170,17.653802 z"/>
<path class="rhombusEdge" d="M 12.708204,18.017073 12.399187,17.066017 z"/>
<path class="rhombusEdge" d="M 12.399187,18.968130 12.708204,18.017073 z"/>
<path class="rhombusEdge" d="M 12.399187,18.968130 13.208204,19.555915 z"/>
<path class="rhombusEdge" d="M 13.517221,18.604858 12.708204,18.017073 z"/>
<path class="rhombusEdge" d="M 14.208204,19.555915 15.017221,18.968130 z"/>
<path class="rhombusEdge" d="M 15.017221,18.968130 15.326238,18.017073 z"/>
<path class="rhombusEdge" d="M 15.017221,18.968130 15.826238,19.555915 z"/>
<path class="rhombusEdge" d="M 15.826238,19.555915 16.135255,18.604858 z"/>
<path class="rhombusEdge" d="M 16.135255,18.604858 15.326238,18.017073 z"/>
<path class="rhombusEdge" d="M 15.826238,19.555915 16.135255,20.506972 z"/>
<path class="rhombusEdge" d="M 16.135255,20.506972 16.444272,19.555915 z"/>
<path class="rhombusEdge" d="M -0.309017,12.086220 0.500000,11.498435 z"/>
<path class="rhombusEdge" d="M 0.500000,11.498435 0.809017,10.547378 z"/>
<path class="rhombusEdge" d="M 0.809017,10.547378 -0.000000,11.135164 z"/>
<path class="rhombusEdge" d="M -0.000000,11.135164 -0.309017,12.086220 z"/>
<path class="rhombusEdge" d="M 0.500000,11.498435 0.809017,12.449491 z"/>
<path class="rhombusEdge" d="M 2.927051,12.086220 2.118034,11.498435 z"/>
<path class="rhombusEdge" d="M 3.618034,13.037277 4.427051,12.449491 z"/>
<path class="rhombusEdge" d="M 4.427051,12.449491 4.736068,11.498435 z"/>
<path class="rhombusEdge" d="M 4.427051,12.449491 5.236068,13.037277 z"/>
<path class="rhombusEdge" d="M 5.236068,13.037277 5.545085,12.086220 z"/>
<path class="rhombusEdge" d="M 5.545085,12.086220 4.736068,11.498435 z"/>
<path class="rhombusEdge" d="M 5.236068,13.037277 5.545085,13.988333 z"/>
<path class="rhombusEdge" d="M 7.354102,14.576118 7.663119,13.625062 z"/>
<path class="rhombusEdge" d="M 7.663119,13.625062 6.854102,13.037277 z"/>
<path class="rhombusEdge" d="M 7.354102,14.576118 8.163119,13.988333 z"/>
<path class="rhombusEdge" d="M 8.163119,13.988333 8.472136,13.037277 z"/>
<path class="rhombusEdge" d="M 8.472136,13.037277 7.663119,13.625062 z"/>
<path class="rhombusEdge" d="M 8.163119,13.988333 8.472136,14.939390 z"/>
<path class="rhombusEdge" d="M 10.590170,14.576118 9.781153,13.988333 z"/>
<path class="rhombusEdge" d="M 12.090170,16.114960 12.399187,15.163904 z"/>
<path class="rhombusEdge" d="M 12.399187,15.163904 11.590170,14.576118 z"/>
<path class="rhombusEdge" d="M 12.090170,16.114960 12.899187,15.527175 z"/>
<path class="rhombusEdge" d="M 12.899187,15.527175 13.208204,14.576118 z"/>
<path class="rhombusEdge" d="M 13.208204,14.576118 12.399187,15.163904 z"/>
<path class="rhombusEdge" d="M 12.899187,15.527175 13.208204,16.478231 z"/>
<path class="rhombusEdge" d="M 15.017221,17.066017 15.326238,16.114960 z"/>
<path class="rhombusEdge" d="M 15.326238,16.114960 14.517221,15.527175 z"/>
<path class="rhombusEdge" d="M 15.017221,17.066017 15.826238,16.478231 z"/>
<path class="rhombusEdge" d="M 15.826238,16.478231 16.135255,15.527175 z"/>
<path class="rhombusEdge" d="M 16.135255,15.527175 15.326238,16.114960 z"/>
<path class="rhombusEdge" d="M 15.826238,16.478231 16.135255,17.429288 z"/>
<path class="rhombusEdge" d="M 18.253289,17.066017 17.444272,16.478231 z"/>
<path class="rhombusEdge" d="M 19.753289,18.604858 20.062306,17.653802 z"/>
<path class="rhombusEdge" d="M 20.062306,17.653802 19.253289,17.066017 z"/>
<path class="rhombusEdge" d="M -0.000000,9.959593 0.809017,10.547378 z"/>
<path class="rhombusEdge" d="M 1.118034,9.596322 0.309017,9.008537 z"/>
<path class="rhombusEdge" d="M 0.309017,9.008537 -0.000000,9.959593 z"/>
<path class="rhombusEdge" d="M 1.809017,10.547378 2.618034,9.959593 z"/>
<path class="rhombusEdge" d="M 2.618034,9.959593 2.927051,9.008537 z"/>
<path class="rhombusEdge" d="M 2.618034,9.959593 3.427051,10.547378 z"/>
<path class="rhombusEdge" d="M 5.045085,10.547378 4.736068,9.596322 z"/>
<path class="rhombusEdge" d="M 4.736068,11.498435 5.045085,10.547378 z"/>
<path class="rhombusEdge" d="M 4.736068,11.498435 5.545085,10.910650 z"/>
<path class="rhombusEdge" d="M 5.545085,10.910650 5.854102,9.959593 z"/>
<path class="rhombusEdge" d="M 5.854102,9.959593 5.045085,10.547378 z"/>
<path class="rhombusEdge" d="M 5.545085,10.910650 6.354102,11.498435 z"/>
<path class="rhombusEdge" d="M 7.354102,11.498435 8.163119,12.086220 z"/>
<path class="rhombusEdge" d="M 8.163119,12.086220 8.472136,11.135164 z"/>
<path class="rhombusEdge" d="M 8.472136,11.135164 7.663119,10.547378 z"/>
<path class="rhombusEdge" d="M 8.163119,12.086220 8.472136,13.037277 z"/>
<path class="rhombusEdge" d="M 9.472136,13.037277 10.281153,12.449491 z"/>
<path class="rhombusEdge" d="M 10.281153,12.449491 10.590170,11.498435 z"/>
<path class="rhombusEdge" d="M 10.590170,11.498435 9.781153,12.086220 z"/>
<path class="rhombusEdge" d="M 10.281153,12.449491 11.090170,13.037277 z"/>
<path class="rhombusEdge" d="M 12.708204,13.037277 12.399187,12.086220 z"/>
<path class="rhombusEdge" d="M 12.399187,13.988333 12.708204,13.037277 z"/>
<path class="rhombusEdge" d="M 12.399187,13.988333 13.208204,14.576118 z"/>
<path class="rhombusEdge" d="M 13.208204,14.576118 13.517221,13.625062 z"/>
<path class="rhombusEdge" d="M 13.517221,13.625062 12.708204,13.037277 z"/>
<path class="rhombusEdge" d="M 14.326238,13.037277 13.517221,13.625062 z"/>
<path class="rhombusEdge" d="M 15.017221,13.988333 15.826238,14.576118 z"/>
<path class="rhombusEdge" d="M 15.826238,14.576118 16.135255,13.625062 z"/>
<path class="rhombusEdge" d="M 16.135255,13.625062 15.326238,13.037277 z"/>
<path class="rhombusEdge" d="M 15.826238,14.576118 16.135255,15.527175 z"/>
<path class="rhombusEdge" d="M 17.135255,15.527175 17.944272,14.939390 z"/>
<path class="rhombusEdge" d="M 17.944272,14.939390 18.253289,13.988333 z"/>
<path class="rhombusEdge" d="M 18.253289,13.988333 17.444272,14.576118 z"/>
<path class="rhombusEdge" d="M 17.944272,14.939390 18.753289,15.527175 z"/>
<path class="rhombusEdge" d="M -0.309017,5.930853 0.500000,6.518638 z"/>
<path class="rhombusEdge" d="M 0.500000,6.518638 0.809017,5.567582 z"/>
<path class="rhombusEdge" d="M 0.809017,5.567582 -0.000000,4.979797 z"/>
<path class="rhombusEdge" d="M -0.000000,4.979797 -0.309017,5.930853 z"/>
<path class="rhombusEdge" d="M 0.500000,6.518638 0.809017,7.469695 z"/>
<path class="rhombusEdge" d="M 2.618034,8.057480 2.927051,7.106424 z"/>
<path class="rhombusEdge" d="M 2.927051,7.106424 2.118034,6.518638 z"/>
<path class="rhombusEdge" d="M 2.618034,8.057480 3.427051,7.469695 z"/>
<path class="rhombusEdge" d="M 3.736068,6.518638 2.927051,7.106424 z"/>
<path class="rhombusEdge" d="M 5.045085,7.469695 4.736068,6.518638 z"/>
<path class="rhombusEdge" d="M 4.736068,8.420751 5.045085,7.469695 z"/>
<path class="rhombusEdge" d="M 4.736068,8.420751 5.545085,9.008537 z"/>
<path class="rhombusEdge" d="M 5.854102,8.057480 5.045085,7.469695 z"/>
<path class="rhombusEdge" d="M 6.545085,9.008537 7.354102,8.420751 z"/>
<path class="rhombusEdge" d="M 7.354102,8.420751 7.663119,7.469695 z"/>
<path class="rhombusEdge" d="M 7.354102,8.420751 8.163119,9.008537 z"/>
<path class="rhombusEdge" d="M 8.163119,9.008537 8.472136,8.057480 z"/>
<path class="rhombusEdge" d="M 8.472136,8.057480 7.663119,7.469695 z"/>
<path class="rhombusEdge" d="M 8.163119,9.008537 8.472136,9.959593 z"/>
<path class="rhombusEdge" d="M 10.281153,10.547378 10.590170,9.596322 z"/>
<path class="rhombusEdge" d="M 10.590170,9.596322 9.781153,9.008537 z"/>
<path class="rhombusEdge" d="M 11.399187,9.008537 10.590170,9.596322 z"/>
<path class="rhombusEdge" d="M 12.090170,9.959593 12.899187,10.547378 z"/>
<path class="rhombusEdge" d="M 12.899187,10.547378 13.208204,9.596322 z"/>
<path class="rhombusEdge" d="M 13.208204,9.596322 12.399187,9.008537 z"/>
<path class="rhombusEdge" d="M 12.899187,10.547378 13.208204,11.498435 z"/>
<path class="rhombusEdge" d="M 15.017221,12.086220 15.326238,11.135164 z"/>
<path class="rhombusEdge" d="M 15.326238,11.135164 14.517221,10.547378 z"/>
<path class="rhombusEdge" d="M 15.017221,12.086220 15.826238,11.498435 z"/>
<path class="rhombusEdge" d="M 15.826238,11.498435 16.135255,10.547378 z"/>
<path class="rhombusEdge" d="M 16.135255,10.547378 15.326238,11.135164 z"/>
<path class="rhombusEdge" d="M 15.826238,11.498435 16.135255,12.449491 z"/>
<path class="rhombusEdge" d="M 18.253289,12.086220 17.444272,11.498435 z"/>
<path class="rhombusEdge" d="M 18.944272,13.037277 19.753289,12.449491 z"/>
<path class="rhombusEdge" d="M 19.753289,12.449491 20.062306,11.498435 z"/>
<path class="rhombusEdge" d="M -0.000000,4.979797 0.809017,4.392011 z"/>
<path class="rhombusEdge" d="M 0.809017,4.392011 1.118034,3.440955 z"/>
<path class="rhombusEdge" d="M 1.118034,3.440955 0.309017,4.028740 z"/>
<path class="rhombusEdge" d="M 0.309017,4.028740 -0.000000,4.979797 z"/>
<path class="rhombusEdge" d="M 0.809017,4.392011 1.618034,4.979797 z"/>
<path class="rhombusEdge" d="M 2.618034,4.979797 3.427051,5.567582 z"/>
<path class="rhombusEdge" d="M 5.045085,5.567582 4.736068,4.616525 z"/>
<path class="rhombusEdge" d="M 4.736068,6.518638 5.045085,5.567582 z"/>
<path class="rhombusEdge" d="M 4.736068,6.518638 5.545085,5.930853 z"/>
<path class="rhombusEdge" d="M 5.545085,5.930853 5.854102,4.979797 z"/>
<path class="rhombusEdge" d="M 5.854102,4.979797 5.045085,5.567582 z"/>
<path class="rhombusEdge" d="M 5.545085,5.930853 6.354102,6.518638 z"/>
<path class="rhombusEdge" d="M 7.972136,6.518638 7.663119,5.567582 z"/>
<path class="rhombusEdge" d="M 7.663119,7.469695 7.972136,6.518638 z"/>
<path class="rhombusEdge" d="M 7.663119,7.469695 8.472136,6.881910 z"/>
<path class="rhombusEdge" d="M 8.472136,6.881910 8.781153,5.930853 z"/>
<path class="rhombusEdge" d="M 8.781153,5.930853 7.972136,6.518638 z"/>
<path class="rhombusEdge" d="M 8.472136,6.881910 9.281153,7.469695 z"/>
<path class="rhombusEdge" d="M 10.281153,7.469695 11.090170,8.057480 z"/>
<path class="rhombusEdge" d="M 12.708204,8.057480 12.399187,7.106424 z"/>
<path class="rhombusEdge" d="M 12.399187,9.008537 12.708204,8.057480 z"/>
<path class="rhombusEdge" d="M 12.399187,9.008537 13.208204,8.420751 z"/>
<path class="rhombusEdge" d="M 13.208204,8.420751 13.517221,7.469695 z"/>
<path class="rhombusEdge" d="M 13.517221,7.469695 12.708204,8.057480 z"/>
<path class="rhombusEdge" d="M 13.208204,8.420751 14.017221,9.008537 z"/>
<path class="rhombusEdge" d="M 15.017221,9.008537 15.826238,9.596322 z"/>
<path class="rhombusEdge" d="M 15.826238,9.596322 16.135255,8.645265 z"/>
<path class="rhombusEdge" d="M 16.135255,8.645265 15.326238,8.057480 z"/>
<path class="rhombusEdge" d="M 15.826238,9.596322 16.135255,10.547378 z"/>
<path class="rhombusEdge" d="M 17.135255,10.547378 17.944272,9.959593 z"/>
<path class="rhombusEdge" d="M 17.944272,9.959593 18.253289,9.008537 z"/>
<path class="rhombusEdge" d="M 18.253289,9.008537 17.444272,9.596322 z"/>
<path class="rhombusEdge" d="M 17.944272,9.959593 18.753289,10.547378 z"/>
<path class="rhombusEdge" d="M 0.309017,0.951057 0.000000,0.000000 z"/>
<path class="rhombusEdge" d="M 0.000000,0.000000 -0.309017,0.951057 z"/>
<path class="rhombusEdge" d="M -0.309017,0.951057 0.000000,1.902113 z"/>
<path class="rhombusEdge" d="M 0.000000,1.902113 0.309017,0.951057 z"/>
<path class="rhombusEdge" d="M 0.000000,1.902113 0.809017,2.489898 z"/>
<path class="rhombusEdge" d="M 1.118034,1.538842 0.309017,0.951057 z"/>
<path class="rhombusEdge" d="M 1.809017,2.489898 2.618034,1.902113 z"/>
<path class="rhombusEdge" d="M 2.618034,1.902113 2.927051,0.951057 z"/>
<path class="rhombusEdge" d="M 2.618034,1.902113 3.427051,2.489898 z"/>
<path class="rhombusEdge" d="M 5.045085,2.489898 4.736068,1.538842 z"/>
<path class="rhombusEdge" d="M 4.736068,3.440955 5.045085,2.489898 z"/>
<path class="rhombusEdge" d="M 4.736068,3.440955 5.545085,4.028740 z"/>
<path class="rhombusEdge" d="M 5.545085,4.028740 5.854102,3.077684 z"/>
<path class="rhombusEdge" d="M 5.854102,3.077684 5.045085,2.489898 z"/>
<path class="rhombusEdge" d="M 6.663119,2.489898 5.854102,3.077684 z"/>
<path class="rhombusEdge" d="M 7.354102,3.440955 8.163119,4.028740 z"/>
<path class="rhombusEdge" d="M 8.163119,4.028740 8.472136,3.077684 z"/>
<path class="rhombusEdge" d="M 8.472136,3.077684 7.663119,2.489898 z"/>
<path class="rhombusEdge" d="M 8.163119,4.028740 8.472136,4.979797 z"/>
<path class="rhombusEdge" d="M 9.472136,4.979797 10.281153,4.392011 z"/>
<path class="rhombusEdge" d="M 10.281153,4.392011 10.590170,3.440955 z"/>
<path class="rhombusEdge" d="M 10.590170,3.440955 9.781153,4.028740 z"/>
<path class="rhombusEdge" d="M 10.281153,4.392011 11.090170,4.979797 z"/>
<path class="rhombusEdge" d="M 12.708204,4.979797 12.399187,4.028740 z"/>
<path class="rhombusEdge" d="M 12.399187,5.930853 12.708204,4.979797 z"/>
<path class="rhombusEdge" d="M 12.399187,5.930853 13.208204,6.518638 z"/>
<path class="rhombusEdge" d="M 13.517221,5.567582 12.708204,4.979797 z"/>
<path class="rhombusEdge" d="M 14.208204,6.518638 15.017221,5.930853 z"/>
<path class="rhombusEdge" d="M 15.017221,5.930853 15.326238,4.979797 z"/>
<path class="rhombusEdge" d="M 15.017221,5.930853 15.826238,6.518638 z"/>
<path class="rhombusEdge" d="M 15.826238,6.518638 16.135255,5.567582 z"/>
<path class="rhombusEdge" d="M 16.135255,5.567582 15.326238,4.979797 z"/>
<path class="rhombusEdge" d="M 15.826238,6.518638 16.135255,7.469695 z"/>
<path class="rhombusEdge" d="M 17.944272,8.057480 18.253289,7.106424 z"/>
<path class="rhombusEdge" d="M 18.253289,7.106424 17.444272,6.518638 z"/>
<path class="rhombusEdge" d="M 19.062306,6.518638 18.253289,7.106424 z"/>
<path class="rhombusEdge" d="M 4.736068,0.363271 5.545085,0.951057 z"/>
<path class="rhombusEdge" d="M 5.854102,0.000000 5.045085,-0.587785 z"/>
<path class="rhombusEdge" d="M 5.045085,-0.587785 4.736068,0.363271 z"/>
<path class="rhombusEdge" d="M 7.354102,1.538842 7.663119,0.587785 z"/>
<path class="rhombusEdge" d="M 7.663119,0.587785 6.854102,0.000000 z"/>
<path class="rhombusEdge" d="M 7.354102,1.538842 8.163119,0.951057 z"/>
<path class="rhombusEdge" d="M 8.163119,0.951057 8.472136,0.000000 z"/>
<path class="rhombusEdge" d="M 8.472136,0.000000 7.663119,0.587785 z"/>
<path class="rhombusEdge" d="M 8.163119,0.951057 8.472136,1.902113 z"/>
<path class="rhombusEdge" d="M 10.590170,1.538842 9.781153,0.951057 z"/>
<path class="rhombusEdge" d="M 11.281153,2.489898 12.090170,1.902113 z"/>
<path class="rhombusEdge" d="M 12.090170,1.902113 12.399187,0.951057 z"/>
<path class="rhombusEdge" d="M 12.090170,1.902113 12.899187,2.489898 z"/>
<path class="rhombusEdge" d="M 12.899187,2.489898 13.208204,1.538842 z"/>
<path class="rhombusEdge" d="M 13.208204,1.538842 12.399187,0.951057 z"/>
<path class="rhombusEdge" d="M 12.899187,2.489898 13.208204,3.440955 z"/>
<path class="rhombusEdge" d="M 15.017221,4.028740 15.326238,3.077684 z"/>
<path class="rhombusEdge" d="M 15.326238,3.077684 14.517221,2.489898 z"/>
<path class="rhombusEdge" d="M 15.017221,4.028740 15.826238,3.440955 z"/>
<path class="rhombusEdge" d="M 15.826238,3.440955 16.135255,2.489898 z"/>
<path class="rhombusEdge" d="M 16.135255,2.489898 15.326238,3.077684 z"/>
<path class="rhombusEdge" d="M 15.826238,3.440955 16.135255,4.392011 z"/>
<path class="rhombusEdge" d="M 18.253289,4.028740 17.444272,3.440955 z"/>
<path class="rhombusEdge" d="M 19.753289,5.567582 20.062306,4.616525 z"/>
<path class="rhombusEdge" d="M 20.062306,4.616525 19.253289,4.028740 z"/>
<path class="rhombusEdge" d="M 12.708204,0.000000 12.399187,-0.951057 z"/>
<path class="rhombusEdge" d="M 12.399187,-0.951057 12.090170,0.000000 z"/>
<path class="rhombusEdge" d="M 12.399187,0.951057 12.708204,0.000000 z"/>
<path class="rhombusEdge" d="M 12.399187,0.951057 13.208204,0.363271 z"/>
<path class="rhombusEdge" d="M 13.208204,0.363271 13.517221,-0.587785 z"/>
<path class="rhombusEdge" d="M 13.517221,-0.587785 12.708204,0.000000 z"/>
<path class="rhombusEdge" d="M 13.208204,0.363271 14.017221,0.951057 z"/>
<path class="rhombusEdge" d="M 14.326238,0.000000 13.517221,-0.587785 z"/>
<path class="rhombusEdge" d="M 15.017221,0.951057 15.826238,1.538842 z"/>
<path class="rhombusEdge" d="M 15.826238,1.538842 16.135255,0.587785 z"/>
<path class="rhombusEdge" d="M 16.135255,0.587785 15.326238,0.000000 z"/>
<path class="rhombusEdge" d="M 15.826238,1.538842 16.135255,2.489898 z"/>
<path class="rhombusEdge" d="M 17.135255,2.489898 17.944272,1.902113 z"/>
<path class="rhombusEdge" d="M 17.944272,1.902113 18.253289,0.951057 z"/>
<path class="rhombusEdge" d="M 18.253289,0.951057 17.444272,1.538842 z"/>
<path class="rhombusEdge" d="M 17.944272,1.902113 18.753289,2.489898 z"/>
<path class="rhombusEdge" d="M 18.253289,20.143700 19.062306,19.555915 z"/>
<path class="rhombusEdge" d="M 19.062306,19.555915 18.253289,18.968130 z"/>
<path class="rhombusEdge" d="M 18.253289,18.968130 17.444272,19.555915 z"/>
<path class="rhombusEdge" d="M 17.444272,19.555915 18.253289,20.143700 z"/>
<path class="rhombusEdge" d="M 17.944272,18.017073 18.253289,18.968130 z"/>
<path class="rhombusEdge" d="M 15.017221,20.143700 15.826238,19.555915 z"/>
<path class="rhombusEdge" d="M 14.208204,19.555915 15.017221,20.143700 z"/>
<path class="rhombusEdge" d="M 16.135255,17.429288 15.326238,18.017073 z"/>
<path class="rhombusEdge" d="M 18.253289,17.066017 17.944272,16.114960 z"/>
<path class="rhombusEdge" d="M 17.944272,16.114960 17.135255,15.527175 z"/>
<path class="rhombusEdge" d="M 17.944272,16.114960 18.753289,15.527175 z"/>
<path class="rhombusEdge" d="M 20.062306,14.576118 19.753289,13.625062 z"/>
<path class="rhombusEdge" d="M 19.753289,13.625062 18.944272,13.037277 z"/>
<path class="rhombusEdge" d="M 19.753289,13.625062 20.562306,13.037277 z"/>
<path class="rhombusEdge" d="M 20.562306,13.037277 19.753289,12.449491 z"/>
<path class="rhombusEdge" d="M 12.399187,20.143700 13.208204,19.555915 z"/>
<path class="rhombusEdge" d="M 13.517221,18.604858 13.208204,17.653802 z"/>
<path class="rhombusEdge" d="M 13.208204,17.653802 12.399187,17.066017 z"/>
<path class="rhombusEdge" d="M 13.208204,17.653802 14.017221,17.066017 z"/>
<path class="rhombusEdge" d="M 13.208204,16.478231 12.399187,17.066017 z"/>
<path class="rhombusEdge" d="M 16.135255,15.527175 15.326238,14.939390 z"/>
<path class="rhombusEdge" d="M 15.326238,14.939390 14.517221,15.527175 z"/>
<path class="rhombusEdge" d="M 15.017221,13.988333 15.326238,14.939390 z"/>
<path class="rhombusEdge" d="M 16.135255,12.449491 15.326238,13.037277 z"/>
<path class="rhombusEdge" d="M 18.253289,12.086220 17.944272,11.135164 z"/>
<path class="rhombusEdge" d="M 17.944272,11.135164 17.135255,10.547378 z"/>
<path class="rhombusEdge" d="M 17.944272,11.135164 18.753289,10.547378 z"/>
<path class="rhombusEdge" d="M 8.781153,20.143700 8.472136,19.192644 z"/>
<path class="rhombusEdge" d="M 8.472136,19.192644 7.663119,18.604858 z"/>
<path class="rhombusEdge" d="M 7.972136,19.555915 8.781153,20.143700 z"/>
<path class="rhombusEdge" d="M 8.472136,19.192644 9.281153,18.604858 z"/>
<path class="rhombusEdge" d="M 8.472136,18.017073 7.663119,18.604858 z"/>
<path class="rhombusEdge" d="M 11.399187,17.066017 10.590170,16.478231 z"/>
<path class="rhombusEdge" d="M 10.590170,16.478231 9.781153,17.066017 z"/>
<path class="rhombusEdge" d="M 10.281153,15.527175 10.590170,16.478231 z"/>
<path class="rhombusEdge" d="M 14.326238,13.037277 13.517221,12.449491 z"/>
<path class="rhombusEdge" d="M 13.517221,12.449491 12.708204,13.037277 z"/>
<path class="rhombusEdge" d="M 13.208204,11.498435 13.517221,12.449491 z"/>
<path class="rhombusEdge" d="M 16.135255,10.547378 15.326238,9.959593 z"/>
<path class="rhombusEdge" d="M 15.326238,9.959593 14.517221,10.547378 z"/>
<path class="rhombusEdge" d="M 15.017221,9.008537 15.326238,9.959593 z"/>
<path class="rhombusEdge" d="M 16.135255,7.469695 15.326238,8.057480 z"/>
<path class="rhombusEdge" d="M 19.062306,6.518638 18.253289,5.930853 z"/>
<path class="rhombusEdge" d="M 18.253289,5.930853 17.444272,6.518638 z"/>
<path class="rhombusEdge" d="M 17.944272,4.979797 18.253289,5.930853 z"/>
<path class="rhombusEdge" d="M 5.545085,20.143700 6.354102,19.555915 z"/>
<path class="rhombusEdge" d="M 4.736068,19.555915 5.545085,20.143700 z"/>
<path class="rhombusEdge" d="M 7.663119,18.604858 7.354102,17.653802 z"/>
<path class="rhombusEdge" d="M 7.354102,17.653802 6.545085,17.066017 z"/>
<path class="rhombusEdge" d="M 7.354102,17.653802 8.163119,17.066017 z"/>
<path class="rhombusEdge" d="M 8.472136,14.939390 7.663119,15.527175 z"/>
<path class="rhombusEdge" d="M 10.590170,14.576118 10.281153,13.625062 z"/>
<path class="rhombusEdge" d="M 10.281153,13.625062 9.472136,13.037277 z"/>
<path class="rhombusEdge" d="M 10.281153,13.625062 11.090170,13.037277 z"/>
<path class="rhombusEdge" d="M 12.399187,12.086220 13.208204,11.498435 z"/>
<path class="rhombusEdge" d="M 13.208204,11.498435 12.399187,10.910650 z"/>
<path class="rhombusEdge" d="M 12.399187,10.910650 11.590170,11.498435 z"/>
<path class="rhombusEdge" d="M 12.090170,9.959593 12.399187,10.910650 z"/>
<path class="rhombusEdge" d="M 15.326238,8.057480 15.017221,7.106424 z"/>
<path class="rhombusEdge" d="M 15.017221,7.106424 14.208204,6.518638 z"/>
<path class="rhombusEdge" d="M 15.017221,7.106424 15.826238,6.518638 z"/>
<path class="rhombusEdge" d="M 16.135255,4.392011 15.326238,4.979797 z"/>
<path class="rhombusEdge" d="M 18.253289,4.028740 17.944272,3.077684 z"/>
<path class="rhombusEdge" d="M 17.944272,3.077684 17.135255,2.489898 z"/>
<path class="rhombusEdge" d="M 17.944272,3.077684 18.753289,2.489898 z"/>
<path class="rhombusEdge" d="M 2.927051,20.143700 3.736068,19.555915 z"/>
<path class="rhombusEdge" d="M 3.736068,19.555915 2.927051,18.968130 z"/>
<path class="rhombusEdge" d="M 2.927051,18.968130 2.118034,19.555915 z"/>
<path class="rhombusEdge" d="M 2.118034,19.555915 2.927051,20.143700 z"/>
<path class="rhombusEdge" d="M 2.618034,18.017073 2.927051,18.968130 z"/>
<path class="rhombusEdge" d="M 4.736068,17.653802 5.545085,17.066017 z"/>
<path class="rhombusEdge" d="M 5.854102,16.114960 5.545085,15.163904 z"/>
<path class="rhombusEdge" d="M 5.545085,15.163904 4.736068,14.576118 z"/>
<path class="rhombusEdge" d="M 5.545085,15.163904 6.354102,14.576118 z"/>
<path class="rhombusEdge" d="M 5.545085,13.988333 4.736068,14.576118 z"/>
<path class="rhombusEdge" d="M 8.472136,13.037277 7.663119,12.449491 z"/>
<path class="rhombusEdge" d="M 7.663119,12.449491 6.854102,13.037277 z"/>
<path class="rhombusEdge" d="M 7.354102,11.498435 7.663119,12.449491 z"/>
<path class="rhombusEdge" d="M 8.472136,9.959593 7.663119,10.547378 z"/>
<path class="rhombusEdge" d="M 11.399187,9.008537 10.590170,8.420751 z"/>
<path class="rhombusEdge" d="M 10.590170,8.420751 9.781153,9.008537 z"/>
<path class="rhombusEdge" d="M 10.281153,7.469695 10.590170,8.420751 z"/>
<path class="rhombusEdge" d="M 12.399187,7.106424 13.208204,6.518638 z"/>
<path class="rhombusEdge" d="M 13.517221,5.567582 13.208204,4.616525 z"/>
<path class="rhombusEdge" d="M 13.208204,4.616525 12.399187,4.028740 z"/>
<path class="rhombusEdge" d="M 13.208204,4.616525 14.017221,4.028740 z"/>
<path class="rhombusEdge" d="M 13.208204,3.440955 12.399187,4.028740 z"/>
<path class="rhombusEdge" d="M 16.135255,2.489898 15.326238,1.902113 z"/>
<path class="rhombusEdge" d="M 15.326238,1.902113 14.517221,2.489898 z"/>
<path class="rhombusEdge" d="M 15.017221,0.951057 15.326238,1.902113 z"/>
<path class="rhombusEdge" d="M 16.944272,0.000000 16.135255,-0.587785 z"/>
<path class="rhombusEdge" d="M 16.135255,-0.587785 15.326238,0.000000 z"/>
<path class="rhombusEdge" d="M 2.927051,17.066017 2.618034,16.114960 z"/>
<path class="rhombusEdge" d="M 2.618034,16.114960 1.809017,15.527175 z"/>
<path class="rhombusEdge" d="M 2.618034,16.114960 3.427051,15.527175 z"/>
<path class="rhombusEdge" d="M 4.736068,14.576118 4.427051,13.625062 z"/>
<path class="rhombusEdge" d="M 4.427051,13.625062 3.618034,13.037277 z"/>
<path class="rhombusEdge" d="M 4.427051,13.625062 5.236068,13.037277 z"/>
<path class="rhombusEdge" d="M 7.663119,10.547378 7.354102,9.596322 z"/>
<path class="rhombusEdge" d="M 7.354102,9.596322 6.545085,9.008537 z"/>
<path class="rhombusEdge" d="M 7.354102,9.596322 8.163119,9.008537 z"/>
<path class="rhombusEdge" d="M 10.590170,6.518638 10.281153,5.567582 z"/>
<path class="rhombusEdge" d="M 10.281153,5.567582 9.472136,4.979797 z"/>
<path class="rhombusEdge" d="M 10.281153,5.567582 11.090170,4.979797 z"/>
<path class="rhombusEdge" d="M 12.399187,4.028740 12.090170,3.077684 z"/>
<path class="rhombusEdge" d="M 12.090170,3.077684 11.281153,2.489898 z"/>
<path class="rhombusEdge" d="M 12.090170,3.077684 12.899187,2.489898 z"/>
<path class="rhombusEdge" d="M -0.309017,13.988333 -0.000000,14.939390 z"/>
<path class="rhombusEdge" d="M -0.000000,14.939390 0.809017,15.527175 z"/>
<path class="rhombusEdge" d="M 0.809017,12.449491 -0.000000,13.037277 z"/>
<path class="rhombusEdge" d="M 2.927051,12.086220 2.618034,11.135164 z"/>
<path class="rhombusEdge" d="M 2.618034,11.135164 1.809017,10.547378 z"/>
<path class="rhombusEdge" d="M 2.618034,11.135164 3.427051,10.547378 z"/>
<path class="rhombusEdge" d="M 4.736068,9.596322 5.545085,9.008537 z"/>
<path class="rhombusEdge" d="M 5.854102,8.057480 5.545085,7.106424 z"/>
<path class="rhombusEdge" d="M 5.545085,7.106424 4.736068,6.518638 z"/>
<path class="rhombusEdge" d="M 5.545085,7.106424 6.354102,6.518638 z"/>
<path class="rhombusEdge" d="M 7.663119,5.567582 8.472136,4.979797 z"/>
<path class="rhombusEdge" d="M 8.472136,4.979797 7.663119,4.392011 z"/>
<path class="rhombusEdge" d="M 7.663119,4.392011 6.854102,4.979797 z"/>
<path class="rhombusEdge" d="M 7.354102,3.440955 7.663119,4.392011 z"/>
<path class="rhombusEdge" d="M 8.472136,1.902113 7.663119,2.489898 z"/>
<path class="rhombusEdge" d="M 10.590170,1.538842 10.281153,0.587785 z"/>
<path class="rhombusEdge" d="M 10.281153,0.587785 9.472136,0.000000 z"/>
<path class="rhombusEdge" d="M 10.281153,0.587785 11.090170,0.000000 z"/>
<path class="rhombusEdge" d="M 11.090170,0.000000 10.281153,-0.587785 z"/>
<path class="rhombusEdge" d="M 10.281153,-0.587785 9.472136,0.000000 z"/>
<path class="rhombusEdge" d="M 1.118034,9.596322 0.809017,8.645265 z"/>
<path class="rhombusEdge" d="M 0.809017,8.645265 -0.000000,8.057480 z"/>
<path class="rhombusEdge" d="M -0.000000,8.057480 0.309017,9.008537 z"/>
<path class="rhombusEdge" d="M 0.809017,8.645265 1.618034,8.057480 z"/>
<path class="rhombusEdge" d="M 0.809017,7.469695 -0.000000,8.057480 z"/>
<path class="rhombusEdge" d="M 3.736068,6.518638 2.927051,5.930853 z"/>
<path class="rhombusEdge" d="M 2.927051,5.930853 2.118034,6.518638 z"/>
<path class="rhombusEdge" d="M 2.618034,4.979797 2.927051,5.930853 z"/>
<path class="rhombusEdge" d="M 4.736068,4.616525 5.545085,4.028740 z"/>
<path class="rhombusEdge" d="M 6.663119,2.489898 5.854102,1.902113 z"/>
<path class="rhombusEdge" d="M 5.854102,1.902113 5.045085,2.489898 z"/>
<path class="rhombusEdge" d="M 5.545085,0.951057 5.854102,1.902113 z"/>
<path class="rhombusEdge" d="M 8.472136,0.000000 7.663119,-0.587785 z"/>
<path class="rhombusEdge" d="M 7.663119,-0.587785 6.854102,0.000000 z"/>
<path class="rhombusEdge" d="M 2.927051,4.028740 2.618034,3.077684 z"/>
<path class="rhombusEdge" d="M 2.618034,3.077684 1.809017,2.489898 z"/>
<path class="rhombusEdge" d="M 2.618034,3.077684 3.427051,2.489898 z"/>
<path class="rhombusEdge" d="M 4.736068,1.538842 5.545085,0.951057 z"/>
<path class="rhombusEdge" d="M 1.118034,1.538842 0.809017,0.587785 z"/>
<path class="rhombusEdge" d="M 0.809017,0.587785 0.000000,0.000000 z"/>
<path class="rhombusEdge" d="M 0.809017,0.587785 1.618034,0.000000 z"/>
<path class="rhombusEdge" d="M 1.618034,0.000000 0.809017,-0.587785 z"/>
<path class="rhombusEdge" d="M 0.809017,-0.587785 0.000000,0.000000 z"/>
<path class="rhombusEdge" d="M 20.062306,0.363271 19.753289,-0.587785 z"/>
<path class="rhombusEdge" d="M 19.753289,-0.587785 18.944272,0.000000 z"/>
<path class="rhombusEdge" d="M 19.253289,0.951057 20.062306,0.363271 z"/>
<path class="rhombusEdge" d="M 20.062306,8.420751 19.753289,7.469695 z"/>
<path class="rhombusEdge" d="M 19.253289,9.008537 20.062306,8.420751 z"/>
<path class="rhombusEdge" d="M 3.736068,0.363271 3.427051,-0.587785 z"/>
<path class="rhombusEdge" d="M 3.427051,-0.587785 2.618034,0.000000 z"/>
<path class="rhombusEdge" d="M 0.809017,2.489898 -0.000000,3.077684 z"/>
<path class="rhombusEdge" d="M -0.000000,3.077684 0.309017,4.028740 z"/>
<path class="rhombusEdge" d="M 0.500000,6.518638 -0.309017,7.106424 z"/>
<path class="rhombusEdge" d="M -0.309017,7.106424 -0.000000,8.057480 z"/>
<path class="rhombusEdge" d="M -0.309017,12.086220 -0.000000,13.037277 z"/>
<path class="rhombusEdge" d="M 0.809017,15.527175 -0.000000,16.114960 z"/>
<path class="rhombusEdge" d="M -0.000000,16.114960 0.309017,17.066017 z"/>
</svg>
